<?xml version="1.0" standalone="no"?>
<!DOCTYPE svg PUBLIC "-//W3C//DTD SVG 1.1//EN" "http://www.w3.org/Graphics/SVG/1.1/DTD/svg11.dtd" >
<svg>
<metadata>
Created by FontForge 20090622 at Tue Dec 24 07:33:19 2019
 By deploy user
Copyright 2017 The Barlow Project Authors (https://github.com/jpt/barlow)
</metadata>
<defs>
<font id="BarlowCondensed-Light" horiz-adv-x="0" >
  <font-face 
    font-family="Barlow Condensed Light"
    font-weight="300"
    font-stretch="condensed"
    units-per-em="1000"
    panose-1="0 0 4 6 0 0 0 0 0 0"
    ascent="800"
    descent="-200"
    x-height="504"
    cap-height="700"
    bbox="-408 -209.41 973 983"
    underline-thickness="50"
    underline-position="-50"
    unicode-range="U+000D-U+25CA"
  />
<missing-glyph horiz-adv-x="325" 
d="M0 4q0 -4 4 -4h317q4 0 4 4v692q0 4 -4 4h-317q-4 0 -4 -4v-692zM147 228q-10 0 -10 10v44q0 30 14.5 54t32.5 38.5t32.5 40.5t14.5 59q0 39 -17.5 62.5t-46.5 23.5q-30 0 -48.5 -24t-18.5 -63v-21q0 -10 -10 -10l-18 1q-10 0 -10 10v20q0 55 29 88.5t76 33.5t74.5 -33
t27.5 -89q0 -33 -9.5 -58.5t-23.5 -41t-27.5 -29t-23 -29.5t-9.5 -35v-42q0 -10 -10 -10h-19zM159 91q-13 0 -22.5 11t-9.5 26t9.5 25.5t22.5 10.5t23 -10.5t10 -25.5t-10 -26t-23 -11z" />
    <glyph glyph-name="I_J.liga" unicode="IJ" horiz-adv-x="630" 
d="M89 0q-10 0 -10 10v680q0 10 10 10h33q10 0 10 -10v-680q0 -10 -10 -10h-33zM393 -8q-71 0 -114.5 45t-43.5 119v88q0 10 10 10h33q10 0 10 -10v-89q0 -52 29 -84t76 -32t76 32t29 84v535q0 10 10 10h33q10 0 10 -10v-534q0 -74 -43.5 -119t-114.5 -45z" />
    <glyph glyph-name="f_f_i.liga" unicode="ffi" horiz-adv-x="729" 
d="M139 548v-40q0 -4 4 -4h100q10 0 10 -10v-22q0 -10 -10 -10h-100q-4 0 -4 -4v-448q0 -10 -10 -10h-33q-10 0 -10 10v448q0 4 -4 4h-42q-10 0 -10 10v22q0 10 10 10h42q4 0 4 4v43q0 81 29.5 119.5t97.5 37.5h12q10 0 10 -10v-20q0 -10 -10 -10h-11q-44 -1 -59.5 -30
t-15.5 -90zM349 551q0 81 29 119.5t98 37.5h12q10 0 10 -10v-20q0 -10 -10 -10h-11q-44 -1 -59.5 -30t-15.5 -90v-40q0 -4 4 -4h82q10 0 10 -10v-22q0 -10 -10 -10h-82q-4 0 -4 -4v-448q0 -10 -10 -10h-33q-10 0 -10 10v448q0 4 -4 4h-61q-10 0 -10 10v22q0 10 10 10h61
q4 0 4 4v43zM632 693q17 0 28.5 -12.5t11.5 -31.5t-11.5 -31.5t-28.5 -12.5t-29 12.5t-12 31.5t12 31.5t29 12.5zM616 0q-10 0 -10 10v484q0 10 10 10h33q10 0 10 -10v-484q0 -10 -10 -10h-33z" />
    <glyph glyph-name="f_f_l.liga" unicode="ffl" horiz-adv-x="710" 
d="M139 548v-40q0 -4 4 -4h100q10 0 10 -10v-22q0 -10 -10 -10h-100q-4 0 -4 -4v-448q0 -10 -10 -10h-33q-10 0 -10 10v448q0 4 -4 4h-42q-10 0 -10 10v22q0 10 10 10h42q4 0 4 4v43q0 81 29.5 119.5t97.5 37.5h12q10 0 10 -10v-20q0 -10 -10 -10h-11q-44 -1 -59.5 -30
t-15.5 -90zM350 551q0 81 29.5 119.5t97.5 37.5h12q10 0 10 -10v-20q0 -10 -10 -10h-11q-44 -1 -59.5 -30t-15.5 -90v-40q0 -4 4 -4h82q10 0 10 -10v-22q0 -10 -10 -10h-82q-4 0 -4 -4v-448q0 -10 -10 -10h-33q-10 0 -10 10v448q0 4 -4 4h-61q-10 0 -10 10v22q0 10 10 10h61
q4 0 4 4v43zM596 690q0 10 10 10h33q10 0 10 -10v-680q0 -10 -10 -10h-33q-10 0 -10 10v680z" />
    <glyph glyph-name="f_i.liga" unicode="fi" horiz-adv-x="466" 
d="M86 545q0 84 29 123.5t98 39.5h15q10 0 10 -10l-1 -26q0 -10 -10 -10h-13q-43 0 -59 -28.5t-16 -89.5v-36q0 -4 4 -4h82q10 0 10 -10v-22q0 -10 -10 -10h-82q-4 0 -4 -4v-448q0 -10 -10 -10h-33q-10 0 -10 10v448q0 4 -4 4h-42q-10 0 -10 10v22q0 10 10 10h42q4 0 4 4v37
zM369 692q18 0 29 -12t11 -31q0 -20 -11 -32t-29 -12q-17 0 -29 12.5t-12 31.5t12 31t29 12zM353 0q-10 0 -10 10v484q0 10 10 10h33q10 0 10 -10v-484q0 -10 -10 -10h-33z" />
    <glyph glyph-name="f_l.liga" unicode="fl" horiz-adv-x="445" 
d="M86 545q0 84 29 123.5t98 39.5h15q10 0 10 -10l-1 -26q0 -10 -10 -10h-13q-43 0 -59 -28.5t-16 -89.5v-36q0 -4 4 -4h82q10 0 10 -10v-22q0 -10 -10 -10h-82q-4 0 -4 -4v-448q0 -10 -10 -10h-33q-10 0 -10 10v448q0 4 -4 4h-42q-10 0 -10 10v22q0 10 10 10h42q4 0 4 4v37
zM332 690q0 10 10 10h33q10 0 10 -10v-680q0 -10 -10 -10h-33q-10 0 -10 10v680z" />
    <glyph glyph-name="g_j.liga" unicode="gj" horiz-adv-x="592" 
d="M498 693q18 0 30 -12t12 -31q0 -20 -11.5 -32t-30.5 -12q-18 0 -29 12t-11 32q0 19 12 31t28 12zM292 458q3 -3 5 1v35q0 10 10 10h34q10 0 10 -10v-488q0 -103 -47 -157t-151 -50q-10 0 -10 10v27q0 10 10 10q77 -1 110.5 40.5t33.5 123.5v38q0 3 -1.5 3.5t-3.5 -2.5
q-34 -54 -102 -54q-62 0 -98.5 41.5t-36.5 108.5v217q0 67 36.5 108.5t98.5 41.5q69 0 102 -54zM472 -55v549q0 10 10 10h33q10 0 10 -10v-549q0 -151 -127 -154q-10 0 -10 10l1 27q0 10 8 10q36 1 55.5 29.5t19.5 77.5zM204 42q41 0 67 29t26 76v212q0 47 -26 76.5
t-67 29.5q-42 0 -69 -29.5t-27 -76.5v-212q0 -46 27 -75.5t69 -29.5z" />
    <glyph glyph-name="i_j.liga" unicode="ij" horiz-adv-x="379" 
d="M286 605q-18 0 -29 12t-11 32t11.5 32t28.5 12q18 0 30 -12t12 -32t-11.5 -32t-30.5 -12zM98 605q-17 0 -29 12.5t-12 31.5t12 31t29 12q18 0 29 -12t11 -31q0 -20 -11 -32t-29 -12zM82 0q-10 0 -10 10v484q0 10 10 10h33q10 0 10 -10v-484q0 -10 -10 -10h-33zM180 -209
q-10 0 -10 10v27q0 10 10 10q40 2 60 30.5t20 76.5v549q0 10 10 10h33q10 0 10 -10v-549q0 -75 -30 -114t-103 -40z" />
    <glyph glyph-name="hyphen_hyphen.liga" unicode="&#x2d;&#x2d;" horiz-adv-x="592" 
d="M44 283q-10 0 -10 10v27q0 10 10 10h504q10 0 10 -10v-27q0 -10 -10 -10h-504z" />
    <glyph glyph-name=".notdef" horiz-adv-x="325" 
d="M0 4q0 -4 4 -4h317q4 0 4 4v692q0 4 -4 4h-317q-4 0 -4 -4v-692zM147 228q-10 0 -10 10v44q0 30 14.5 54t32.5 38.5t32.5 40.5t14.5 59q0 39 -17.5 62.5t-46.5 23.5q-30 0 -48.5 -24t-18.5 -63v-21q0 -10 -10 -10l-18 1q-10 0 -10 10v20q0 55 29 88.5t76 33.5t74.5 -33
t27.5 -89q0 -33 -9.5 -58.5t-23.5 -41t-27.5 -29t-23 -29.5t-9.5 -35v-42q0 -10 -10 -10h-19zM159 91q-13 0 -22.5 11t-9.5 26t9.5 25.5t22.5 10.5t23 -10.5t10 -25.5t-10 -26t-23 -11z" />
    <glyph glyph-name=".null" 
 />
    <glyph glyph-name="nonmarkingreturn" horiz-adv-x="333" 
 />
    <glyph glyph-name="CR" unicode="&#xd;" horiz-adv-x="200" 
 />
    <glyph glyph-name="space" unicode=" " horiz-adv-x="200" 
 />
    <glyph glyph-name="exclam" unicode="!" horiz-adv-x="248" 
d="M111 225q-10 0 -10 10l-3 455q0 10 10 10h33q10 0 10 -10l-5 -455q0 -10 -10 -10h-25zM122 4q-20 0 -33.5 15t-13.5 38q0 21 14.5 36.5t32.5 15.5q19 0 33.5 -15.5t14.5 -36.5q0 -22 -14 -37.5t-34 -15.5z" />
    <glyph glyph-name="quotedbl" unicode="&#x22;" horiz-adv-x="206" 
d="M40 493q-10 0 -10 10l-6 180q0 10 10 10h34q10 0 10 -10l-6 -180q0 -10 -10 -10h-22zM142 493q-10 0 -10 10l-5 180q0 10 10 10h33q10 0 10 -10l-6 -180q0 -10 -10 -10h-22z" />
    <glyph glyph-name="numbersign" unicode="#" horiz-adv-x="582" 
d="M521 446q0 -10 -10 -10h-62q-5 0 -5 -4l-26 -175q0 -4 3 -4h58q10 0 10 -10v-27q0 -10 -10 -10h-64q-5 0 -5 -4l-27 -179q-1 -9 -10 -9l-33 1q-11 0 -9 11l25 176q0 4 -3 4h-161q-5 0 -5 -4l-27 -179q-1 -9 -10 -9l-33 1q-11 0 -9 11l25 176q0 4 -3 4h-59q-10 0 -10 10
v27q0 10 10 10h66q5 0 5 4l25 175q0 4 -3 4h-61q-10 0 -10 10v27q0 10 10 10h68q5 0 5 4l27 180q1 9 10 9l33 -2q11 0 9 -10l-25 -177q0 -4 3 -4h161q5 0 5 4l27 180q1 9 10 9l33 -2q11 0 9 -10l-25 -177q0 -4 3 -4h55q10 0 10 -10v-27zM360 253q5 0 5 4l25 175q0 4 -3 4
h-161q-5 0 -5 -4l-26 -175q0 -4 3 -4h162z" />
    <glyph glyph-name="dollar" unicode="$" horiz-adv-x="420" 
d="M375 171q0 -76 -38.5 -123.5t-101.5 -54.5q-4 0 -4 -4v-63q0 -10 -10 -10h-18q-10 0 -10 10v63q0 4 -4 4q-61 9 -97.5 56t-36.5 118v22q0 10 10 10h32q10 0 10 -10v-20q0 -59 30 -95t77 -36t78 35t31 91q0 23 -7 43t-14 32.5t-29.5 32.5l-32 28t-43.5 33q-51 38 -75 59.5
t-45.5 61.5t-21.5 89q0 70 36 113t95 51q4 0 4 4l-1 68q0 10 10 10h18q10 0 10 -10v-68q0 -4 4 -4q64 -7 101 -55t37 -122v-25q0 -10 -10 -10h-32q-10 0 -10 10v25q0 59 -30 95.5t-78 36.5q-45 0 -73.5 -31.5t-28.5 -88.5q0 -49 25 -81t94 -83q86 -64 117.5 -103t31.5 -104z
" />
    <glyph glyph-name="percent" unicode="%" horiz-adv-x="785" 
d="M215 433q-57 0 -96.5 40.5t-39.5 98.5q0 57 39.5 97.5t96.5 40.5q56 0 95.5 -40.5t39.5 -97.5q0 -58 -39.5 -98.5t-95.5 -40.5zM196 0q-6 0 -8.5 3.5t0.5 8.5l367 681q3 7 12 7h21q6 0 8.5 -3.5t-0.5 -8.5l-367 -681q-3 -7 -12 -7h-21zM215 467q41 0 70 30.5t29 74.5
q0 43 -29 73t-70 30q-42 0 -71 -30t-29 -73q0 -44 29 -74.5t71 -30.5zM572 -10q-57 0 -96.5 40.5t-39.5 98.5t39.5 98t96.5 40q55 0 94.5 -40.5t39.5 -97.5q0 -58 -39 -98.5t-95 -40.5zM572 25q41 0 70 30.5t29 73.5t-29 73.5t-70 30.5q-43 0 -72 -30t-29 -74t29 -74t72 -30
z" />
    <glyph glyph-name="ampersand" unicode="&#x26;" horiz-adv-x="537" 
d="M484 12q3 -4 1 -8t-8 -4h-34q-8 0 -12 6l-47 70q-3 5 -6 0q-38 -45 -76.5 -64.5t-86.5 -19.5q-74 0 -117 41.5t-43 118.5q0 68 32.5 118t90.5 101q3 1 1 5q-53 81 -67.5 113.5t-14.5 71.5q0 67 37 107t97 40t98.5 -40t38.5 -105q0 -42 -19 -81t-40.5 -61.5t-59.5 -56.5
q-3 -1 -1 -5l65 -98l65 -96q3 -3 6 0q14 21 50 83q5 10 14 4l24 -14q8 -5 3 -14q-33 -60 -63 -102q-2 -3 0 -6zM232 659q-37 0 -59.5 -27t-22.5 -73q0 -30 11.5 -58t53.5 -93q1 -4 5 -1q46 41 70.5 76.5t24.5 79.5q0 43 -23 69.5t-60 26.5zM221 39q70 1 130 79q1 3 0 6
l-50 74l-89 128q-2 4 -5 1q-48 -45 -73.5 -84t-25.5 -90q0 -54 29.5 -84.5t83.5 -29.5z" />
    <glyph glyph-name="quotesingle" unicode="'" horiz-adv-x="106" 
d="M40 498q-10 0 -10 10l-6 180q0 10 10 10h36q10 0 10 -10l-7 -180q0 -10 -10 -10h-23z" />
    <glyph glyph-name="parenleft" unicode="(" horiz-adv-x="199" 
d="M90 -107q-8 0 -12 7q-36 75 -59 188t-23 235q0 126 23.5 242.5t61.5 191.5q4 7 12 7h30q13 0 8 -11q-32 -78 -53 -193t-21 -235q0 -119 21 -231.5t53 -189.5q5 -11 -8 -11h-33z" />
    <glyph glyph-name="parenright" unicode=")" horiz-adv-x="199" 
d="M121 -100q-4 -7 -12 -7h-33q-5 0 -7.5 3.5t-0.5 7.5q32 77 53 189.5t21 231.5q0 120 -21 235t-53 193q-2 4 0.5 7.5t7.5 3.5h30q8 0 12 -7q38 -75 61.5 -191.5t23.5 -242.5q0 -122 -23 -235t-59 -188z" />
    <glyph glyph-name="asterisk" unicode="*" horiz-adv-x="360" 
d="M172 394q-10 0 -10 10v128q0 6 -5 3l-106 -66q-8 -6 -14 4l-8 14q-5 9 3 14l108 66q2 1 2 3t-2 3l-108 66q-8 5 -3 14l8 14q6 10 14 4l106 -66q5 -3 5 3v129q0 10 10 10h17q10 0 10 -10v-129q0 -2 1.5 -3t3.5 0l105 66q8 6 14 -4l8 -14q5 -9 -3 -14l-107 -66q-1 -1 -1 -3
t1 -3l107 -66q8 -5 3 -14l-8 -14q-6 -10 -14 -4l-105 66q-3 1 -5 -3v-128q0 -10 -10 -10h-17z" />
    <glyph glyph-name="plus" unicode="+" horiz-adv-x="443" 
d="M398 342q10 0 10 -10v-23q0 -10 -10 -10h-152q-4 0 -4 -4v-151q0 -10 -10 -10h-22q-10 0 -10 10v151q0 4 -4 4h-152q-10 0 -10 10v23q0 10 10 10h152q4 0 4 4v152q0 10 10 10h22q10 0 10 -10v-152q0 -4 4 -4h152z" />
    <glyph glyph-name="comma" unicode="," horiz-adv-x="169" 
d="M50 -74q-11 0 -9 11l34 208q1 9 10 9h28q11 0 9 -11l-42 -208q-2 -9 -11 -9h-19z" />
    <glyph glyph-name="hyphen" unicode="-" horiz-adv-x="309" 
d="M44 291q-10 0 -10 10v27q0 10 10 10h221q10 0 10 -10v-27q0 -10 -10 -10h-221z" />
    <glyph glyph-name="period" unicode="." horiz-adv-x="193" 
d="M95 4q-20 0 -33.5 15.5t-13.5 37.5q0 21 14.5 36.5t32.5 15.5q19 0 33.5 -15.5t14.5 -36.5q0 -22 -14 -37.5t-34 -15.5z" />
    <glyph glyph-name="slash" unicode="/" horiz-adv-x="277" 
d="M35 0q-11 0 -8 11l170 680q1 9 11 9h33q11 0 8 -11l-170 -680q-1 -9 -11 -9h-33z" />
    <glyph glyph-name="zero" unicode="0" horiz-adv-x="405" 
d="M201 -10q-73 0 -117.5 48t-44.5 126v372q0 78 44.5 126t117.5 48q74 0 119.5 -48t45.5 -126v-372q0 -78 -45.5 -126t-119.5 -48zM201 38q51 0 81.5 33t30.5 89v380q0 56 -30.5 89t-81.5 33q-49 0 -79 -33.5t-30 -88.5v-380q0 -55 30 -88.5t79 -33.5z" />
    <glyph glyph-name="one" unicode="1" horiz-adv-x="241" 
d="M121 696q8 4 13 4h36q10 0 10 -10v-680q0 -10 -10 -10h-33q-10 0 -10 10v628q0 6 -5 3l-86 -43q-5 -3 -8.5 -0.5t-3.5 7.5v23q0 7 7 12z" />
    <glyph glyph-name="two" unicode="2" horiz-adv-x="392" 
d="M53 0q-10 0 -10 10v30q0 7 3 13l174 291q66 118 66 193q0 56 -26 90t-70 34q-43 0 -68.5 -33.5t-24.5 -89.5v-36q0 -10 -10 -10h-35q-10 0 -10 10v38q2 75 43 121.5t106 46.5q67 0 108 -47t41 -124q0 -91 -72 -216l-158 -269q-3 -5 3 -5h239q10 0 10 -10v-27
q0 -10 -10 -10h-299z" />
    <glyph glyph-name="three" unicode="3" horiz-adv-x="418" 
d="M346 323q14 -43 14 -114q0 -55 -8 -92q-12 -59 -52 -92t-100 -33q-61 0 -101 34t-51 95q-8 37 -8 77q0 10 10 10h33q10 0 10 -10q2 -47 6 -66q9 -44 35 -68.5t66 -24.5q80 0 101 86q8 35 8 88q0 63 -12 103q-22 79 -97 79q-8 0 -22 -4q-10 -3 -14 2l-15 16q-5 7 -1 14
l145 225q1 3 -3 5h-236q-10 0 -10 10v27q0 10 10 10h292q10 0 10 -10v-30q0 -5 -4 -13l-130 -205q-2 -5 3 -5q45 -4 76.5 -35.5t44.5 -78.5z" />
    <glyph glyph-name="four" unicode="4" horiz-adv-x="381" 
d="M347 243q10 0 10 -10v-28q0 -10 -10 -10h-30q-4 0 -4 -4v-181q0 -10 -10 -10h-33q-10 0 -10 10v181q0 4 -4 4h-222q-10 0 -10 10v26q0 4 2 12l154 449q3 8 12 8h36q11 0 8 -11l-150 -441q-2 -5 3 -5h167q4 0 4 4v166q0 10 10 10h33q10 0 10 -10v-166q0 -4 4 -4h30z" />
    <glyph glyph-name="five" unicode="5" horiz-adv-x="401" 
d="M349 317q12 -43 12 -105q0 -52 -7 -88q-11 -64 -48.5 -98t-96.5 -34q-123 0 -146 135q-2 10 -4 30q0 10 10 10h33q10 0 10 -10q1 -5 2.5 -13.5t1.5 -12.5q18 -92 93 -92q71 0 91 87q8 33 8 86q0 55 -11 96q-21 76 -88 76q-76 0 -96 -77q-3 -9 -11 -9h-34q-10 0 -10 10
v382q0 10 10 10h264q10 0 10 -10v-27q0 -10 -10 -10h-217q-4 0 -4 -4v-268q0 -8 5 -1q32 51 105 51q102 0 128 -114z" />
    <glyph glyph-name="six" unicode="6" horiz-adv-x="402" 
d="M352 309q10 -39 10 -97q0 -38 -5 -78q-10 -69 -47.5 -105.5t-99.5 -36.5q-121 0 -143 133q-8 32 -8 85l-1 329q0 76 42 122.5t110 46.5q62 0 101.5 -46.5t39.5 -122.5v-11q0 -10 -10 -10h-33q-10 0 -10 10v11q0 53 -25.5 87t-62.5 34q-44 0 -71 -33.5t-27 -87.5v-154
q1 -4 5 -1q31 52 95 52q56 0 92 -33t48 -94zM304 139q5 40 5 76q0 46 -10 93q-19 81 -89 81t-90 -86q-8 -36 -8 -88q0 -45 6 -82q18 -94 92 -94q76 0 94 100z" />
    <glyph glyph-name="seven" unicode="7" horiz-adv-x="355" 
d="M116 0q-12 0 -9 11l173 638q2 4 -4 4h-201q-4 0 -4 -4v-42q0 -10 -10 -10h-25q-10 0 -10 10v83q0 10 10 10h291q10 0 10 -10v-31q0 -2 -2 -12l-172 -638q-2 -9 -11 -9h-36z" />
    <glyph glyph-name="eight" unicode="8" horiz-adv-x="418" 
d="M284 376q-4 -3 0 -6q34 -18 53 -57q23 -48 23 -120q0 -52 -13 -96q-37 -105 -139 -105q-101 0 -137 105q-14 44 -14 97q0 64 20 110q17 44 56 66q5 3 0 5q-33 17 -53 53q-23 43 -23 105q0 63 22 104q38 72 129 72q88 0 128 -70q25 -41 25 -107q0 -60 -22 -102
q-20 -36 -55 -54zM109 528q0 -50 18 -82q24 -50 81 -50q60 0 84 54q17 32 17 80q0 52 -20 84q-26 48 -81 48q-56 0 -82 -51q-17 -34 -17 -83zM298 120q9 31 9 76q0 57 -16 95q-25 60 -83 60q-61 0 -84 -65q-14 -37 -14 -90q0 -48 11 -81q22 -76 87 -76q68 0 90 81z" />
    <glyph glyph-name="nine" unicode="9" horiz-adv-x="395" 
d="M336 490l1 -329q0 -76 -42 -122.5t-110 -46.5q-62 0 -101.5 46.5t-39.5 122.5v11q0 10 10 10h33q10 0 10 -10v-11q0 -53 25.5 -87t62.5 -34q44 0 71 33.5t27 87.5v154q-1 4 -5 1q-31 -52 -95 -52q-56 0 -92 33t-48 94q-10 39 -10 97q0 38 5 78q10 69 47.5 105.5
t99.5 36.5q121 0 143 -133q8 -32 8 -85zM185 311q70 0 90 86q8 36 8 88q0 45 -6 82q-18 94 -92 94q-76 0 -94 -100q-5 -40 -5 -76q0 -46 10 -93q19 -81 89 -81z" />
    <glyph glyph-name="colon" unicode=":" horiz-adv-x="194" 
d="M98 345q-20 0 -34 15.5t-14 37.5q0 21 14.5 36t33.5 15q18 0 32.5 -15t14.5 -36q0 -22 -13.5 -37.5t-33.5 -15.5zM98 6q-20 0 -34 15.5t-14 37.5q0 21 14.5 36.5t33.5 15.5q18 0 32.5 -15.5t14.5 -36.5q0 -22 -13.5 -37.5t-33.5 -15.5z" />
    <glyph glyph-name="semicolon" unicode=";" horiz-adv-x="183" 
d="M92 355q-20 0 -34 15.5t-14 37.5q0 21 14.5 36.5t33.5 15.5q18 0 32.5 -15.5t14.5 -36.5q0 -22 -14 -37.5t-33 -15.5zM57 -70q-5 0 -8 3.5t-2 7.5l21 199q1 9 10 9h30q11 0 9 -11l-31 -199q-2 -9 -10 -9h-19z" />
    <glyph glyph-name="less" unicode="&#x3c;" horiz-adv-x="443" 
d="M409 73q0 -5 -3.5 -7.5t-8.5 0.5l-355 178q-7 3 -7 12v33q0 9 7 12l355 178q5 3 8.5 0.5t3.5 -7.5v-32q0 -8 -7 -12l-312 -152q-4 -3 0 -6l312 -153q7 -4 7 -12v-32z" />
    <glyph glyph-name="equal" unicode="=" horiz-adv-x="443" 
d="M44 417q-10 0 -10 10v23q0 10 10 10h354q10 0 10 -10v-23q0 -10 -10 -10h-354zM44 206q-10 0 -10 10v23q0 10 10 10h354q10 0 10 -10v-23q0 -10 -10 -10h-354z" />
    <glyph glyph-name="greater" unicode="&#x3e;" horiz-adv-x="443" 
d="M46 66q-5 -3 -8.5 -0.5t-3.5 7.5v32q0 8 7 12l312 153q5 3 0 6l-312 152q-7 4 -7 12v32q0 5 3.5 7.5t8.5 -0.5l355 -178q7 -3 7 -12v-33q0 -9 -7 -12z" />
    <glyph glyph-name="question" unicode="?" horiz-adv-x="352" 
d="M145 195q-10 0 -10 10v65q0 35 13.5 62.5t32.5 47.5l38.5 40t33 50t13.5 69q0 55 -24.5 88t-64.5 33q-43 0 -68.5 -33.5t-25.5 -88.5v-34q0 -10 -10 -10l-33 2q-10 0 -10 10v32q0 76 41 123.5t106 47.5t103.5 -46.5t38.5 -124.5q0 -46 -13.5 -82t-32.5 -58t-38 -40.5
t-32.5 -41t-13.5 -49.5v-62q0 -10 -10 -10h-34zM165 3q-18 0 -31.5 15t-13.5 36t13.5 36t31.5 15t32 -15t14 -36t-13.5 -36t-32.5 -15z" />
    <glyph glyph-name="at" unicode="@" horiz-adv-x="763" 
d="M423 606q143 0 221.5 -91t59.5 -240q-12 -93 -57.5 -145t-113.5 -52q-67 0 -93 48q-3 4 -6 0q-28 -50 -86 -50q-46 0 -72.5 29.5t-22.5 76.5q1 13 5 40.5t5 37.5q1 12 4.5 38t4.5 37q7 48 36 76.5t74 28.5q40 0 64 -30q3 -3 5 1l2 15q1 9 10 9h21q5 0 8 -3.5t2 -7.5
l-27 -211q-5 -44 14.5 -70.5t58.5 -26.5q47 0 79 41.5t42 116.5q18 133 -50.5 213.5t-193.5 80.5q-120 0 -210.5 -87.5t-107.5 -226.5q-17 -137 52 -220.5t185 -83.5q100 0 163 47q8 7 14 -2l10 -14q5 -8 -2 -14q-73 -56 -193 -56q-135 0 -212 95t-58 250q19 154 123 252
t242 98zM351 113q28 0 47.5 19.5t24.5 52.5l2 14q0 1 0.5 4t0.5 5l17 135q0 28 -15 44.5t-41 16.5q-28 0 -48.5 -19.5t-25.5 -51.5q-8 -60 -9 -75q-1 -12 -3 -24.5t-4 -27l-3 -21.5q-3 -33 12.5 -52.5t44.5 -19.5z" />
    <glyph glyph-name="A" unicode="A" horiz-adv-x="443" 
d="M362 0q-10 0 -11 9l-27 131q0 4 -5 4h-195q-5 0 -5 -4l-28 -131q-1 -9 -11 -9h-33q-11 0 -9 11l152 680q2 9 11 9h40q9 0 11 -9l153 -680q2 -11 -9 -11h-34zM130 192q-2 -4 3 -4h176q3 0 3 4l-88 417q-2 8 -4 0z" />
    <glyph glyph-name="B" unicode="B" horiz-adv-x="443" 
d="M406 189q1 -90 -46 -139.5t-128 -49.5h-143q-10 0 -10 10v680q0 10 10 10h137q83 0 130 -47t47 -134q0 -115 -86 -155q-6 -2 -2 -4q91 -46 91 -171zM136 653q-4 0 -4 -4v-262q0 -4 4 -4h91q59 0 91.5 35t32.5 98q0 65 -33 101t-91 36h-91zM229 48q59 0 91.5 38t32.5 107
q0 70 -33 109t-91 39h-93q-4 0 -4 -4v-285q0 -4 4 -4h93z" />
    <glyph glyph-name="C" unicode="C" horiz-adv-x="441" 
d="M223 -8q-73 0 -117.5 45.5t-44.5 121.5v384q0 75 44.5 120t117.5 45q74 0 118.5 -45t44.5 -120v-19q0 -11 -10 -11l-33 -2q-10 0 -10 10v25q0 52 -30.5 83.5t-79.5 31.5t-79 -31.5t-30 -83.5v-391q0 -52 30 -84t79 -32t79.5 32t30.5 84v23q0 10 10 10l33 -2q10 0 10 -10
v-17q0 -76 -44.5 -121.5t-118.5 -45.5z" />
    <glyph glyph-name="D" unicode="D" horiz-adv-x="463" 
d="M89 0q-10 0 -10 10v680q0 10 10 10h147q74 0 117 -49.5t43 -134.5v-332q0 -85 -43 -134.5t-117 -49.5h-147zM132 51q0 -4 4 -4h100q49 1 77.5 37.5t28.5 100.5v329q0 65 -28.5 102t-78.5 37h-99q-4 0 -4 -4v-598z" />
    <glyph glyph-name="E" unicode="E" horiz-adv-x="427" 
d="M383 663q0 -10 -10 -10h-237q-4 0 -4 -4v-271q0 -4 4 -4h152q10 0 10 -10v-27q0 -10 -10 -10h-152q-4 0 -4 -4v-272q0 -4 4 -4h237q10 0 10 -10v-27q0 -10 -10 -10h-284q-10 0 -10 10v680q0 10 10 10h284q10 0 10 -10v-27z" />
    <glyph glyph-name="F" unicode="F" horiz-adv-x="399" 
d="M381 663q0 -10 -10 -10h-235q-4 0 -4 -4v-271q0 -4 4 -4h151q10 0 10 -10v-27q0 -10 -10 -10h-151q-4 0 -4 -4v-313q0 -10 -10 -10h-33q-10 0 -10 10v680q0 10 10 10h282q10 0 10 -10v-27z" />
    <glyph glyph-name="G" unicode="G" horiz-adv-x="440" 
d="M223 -8q-73 0 -117.5 44.5t-44.5 117.5v392q0 73 44.5 117.5t117.5 44.5t118 -44.5t45 -117.5v-44q0 -10 -10 -10h-33q-10 0 -10 10v45q0 52 -30 83t-80 31t-80 -31t-30 -83v-394q0 -52 30 -83t80 -31t80 31t30 83v141q0 4 -4 4h-94q-10 0 -10 10v27q0 10 10 10h141
q10 0 10 -10v-181q0 -73 -45 -117.5t-118 -44.5z" />
    <glyph glyph-name="H" unicode="H" horiz-adv-x="470" 
d="M338 690q0 10 10 10h33q10 0 10 -10v-680q0 -10 -10 -10h-33q-10 0 -10 10v313q0 4 -4 4h-198q-4 0 -4 -4v-313q0 -10 -10 -10h-33q-10 0 -10 10v680q0 10 10 10h33q10 0 10 -10v-312q0 -4 4 -4h198q4 0 4 4v312z" />
    <glyph glyph-name="I" unicode="I" horiz-adv-x="211" 
d="M89 0q-10 0 -10 10v680q0 10 10 10h33q10 0 10 -10v-680q0 -10 -10 -10h-33z" />
    <glyph glyph-name="J" unicode="J" horiz-adv-x="419" 
d="M182 -8q-71 0 -114.5 45t-43.5 119v88q0 10 10 10h33q10 0 10 -10v-89q0 -52 29 -84t76 -32t76 32t29 84v535q0 10 10 10h33q10 0 10 -10v-534q0 -74 -43.5 -119t-114.5 -45z" />
    <glyph glyph-name="K" unicode="K" horiz-adv-x="442" 
d="M89 0q-10 0 -10 10v680q0 10 10 10h33q10 0 10 -10v-343q0 -3 2 -3.5t3 2.5l209 347q5 7 12 7h38q14 0 7 -12l-158 -266q-3 -3 -1 -6l175 -404q5 -12 -8 -12h-38q-8 0 -11 8l-154 360q-1 4 -5 0l-70 -107q-1 -1 -1 -5v-246q0 -10 -10 -10h-33z" />
    <glyph glyph-name="L" unicode="L" horiz-adv-x="388" 
d="M89 0q-10 0 -10 10v680q0 10 10 10h33q10 0 10 -10v-639q0 -4 4 -4h234q10 0 10 -10v-27q0 -10 -10 -10h-281z" />
    <glyph glyph-name="M" unicode="M" horiz-adv-x="513" 
d="M88 0q-10 0 -10 10v680q0 10 10 10h34q8 0 11 -8l120 -292q1 -2 3 -2t3 2l120 292q3 8 11 8h34q10 0 10 -10v-680q0 -10 -10 -10h-33q-10 0 -10 10v555q0 2 -1 3q-3 1 -4 -2l-108 -258q-3 -8 -10 -8q-8 0 -11 8l-111 258q-1 3 -4 2q-1 -1 -1 -3v-555q0 -10 -10 -10h-33z
" />
    <glyph glyph-name="N" unicode="N" horiz-adv-x="488" 
d="M89 0q-10 0 -10 10v680q0 10 10 10h35q8 0 11 -8l217 -549q1 -3 3 -2.5t2 3.5v546q0 10 10 10h32q10 0 10 -10v-680q0 -10 -10 -10h-35q-8 0 -11 8l-217 550q-1 3 -3 2.5t-2 -3.5l1 -547q0 -10 -10 -10h-33z" />
    <glyph glyph-name="O" unicode="O" horiz-adv-x="451" 
d="M225 -8q-73 0 -118.5 46.5t-45.5 121.5v379q0 76 45 122.5t119 46.5t120 -46.5t46 -122.5v-379q0 -75 -46 -121.5t-120 -46.5zM225 39q50 0 81.5 33t31.5 86v383q0 53 -31.5 86.5t-81.5 33.5q-49 0 -80 -33.5t-31 -86.5v-383q0 -53 31 -86t80 -33z" />
    <glyph glyph-name="P" unicode="P" horiz-adv-x="436" 
d="M244 702q70 0 113 -52.5t43 -137.5t-42.5 -136t-111.5 -51h-111q-4 0 -4 -4v-311q0 -10 -10 -10h-33q-10 0 -10 10v682q0 10 10 10h156zM238 369q49 0 79 39t30 103q0 65 -30 104t-79 39h-103q-4 0 -4 -4v-277q0 -4 4 -4h103z" />
    <glyph glyph-name="Q" unicode="Q" horiz-adv-x="439" 
d="M220 708q71 0 114.5 -47.5t43.5 -123.5v-374q0 -68 -34.5 -113.5t-93.5 -54.5q-4 -1 -4 -5v-100q0 -10 -10 -10h-34q-10 0 -10 10v100q0 4 -4 5q-58 11 -92.5 55.5t-34.5 112.5v374q0 76 44 123.5t115 47.5zM325 158v384q0 53 -29.5 86t-75.5 33q-47 0 -76.5 -33
t-29.5 -86v-384q0 -53 29.5 -86t76.5 -33q46 0 75.5 33t29.5 86z" />
    <glyph glyph-name="R" unicode="R" horiz-adv-x="436" 
d="M361 0q-9 0 -12 8l-110 319q-1 3 -4 3h-99q-4 0 -4 -4v-316q0 -10 -10 -10h-33q-10 0 -10 10v682q0 10 10 10h155q70 0 113 -52t43 -136q0 -68 -29 -115t-80 -63q-5 -2 -3 -5l114 -320q3 -11 -8 -11h-33zM136 654q-4 0 -4 -4v-272q0 -4 4 -4h102q49 0 79 38t30 101
q0 64 -30 102.5t-79 38.5h-102z" />
    <glyph glyph-name="S" unicode="S" horiz-adv-x="420" 
d="M215 -8q-71 0 -115.5 48.5t-44.5 126.5v22q0 10 10 10h32q10 0 10 -10v-20q0 -59 30 -95t77 -36t78 35t31 91q0 23 -7 43t-14 32.5t-29.5 32.5l-32 28t-43.5 33q-51 38 -75 59.5t-45.5 61.5t-21.5 89q0 77 43 121t111 44q73 0 116.5 -49t43.5 -129v-25q0 -10 -10 -10h-32
q-10 0 -10 10v25q0 59 -30 95.5t-78 36.5q-45 0 -73.5 -31.5t-28.5 -88.5q0 -49 25 -81t94 -83q86 -64 117.5 -103t31.5 -104q0 -81 -44.5 -130t-115.5 -49z" />
    <glyph glyph-name="T" unicode="T" horiz-adv-x="411" 
d="M365 700q10 0 10 -10v-27q0 -10 -10 -10h-133q-4 0 -4 -4v-639q0 -10 -10 -10h-33q-10 0 -10 10v639q0 4 -4 4h-125q-10 0 -10 10v27q0 10 10 10h319z" />
    <glyph glyph-name="U" unicode="U" horiz-adv-x="475" 
d="M237 -8q-74 0 -119 51.5t-45 137.5v509q0 10 10 10h33q10 0 10 -10v-515q0 -61 30.5 -98.5t80.5 -37.5t81.5 37.5t31.5 98.5v515q0 10 10 10h33q10 0 10 -10v-509q0 -85 -46 -137t-120 -52z" />
    <glyph glyph-name="V" unicode="V" horiz-adv-x="427" 
d="M195 0q-9 0 -11 9l-146 680q-2 11 9 11h37q10 0 11 -9l118 -588q2 -8 4 0l116 588q1 9 11 9h35q11 0 9 -11l-145 -680q-1 -9 -11 -9h-37z" />
    <glyph glyph-name="W" unicode="W" horiz-adv-x="606" 
d="M173 0q-9 0 -11 9l-131 680q-2 11 9 11h35q9 0 11 -9l103 -567q2 -6 4 0l87 567q1 9 10 9h31q9 0 10 -9l92 -567q2 -6 4 0l94 567q1 9 10 9h35q11 0 9 -11l-124 -680q-1 -9 -11 -9h-32q-8 0 -10 9l-90 566q-2 6 -4 0l-89 -566q-1 -9 -10 -9h-32z" />
    <glyph glyph-name="X" unicode="X" horiz-adv-x="423" 
d="M49 0q-13 0 -8 12l142 335q1 3 0 6l-142 335q-5 12 8 12h36q8 0 11 -8l113 -285q1 -3 3 -3t3 3l113 285q3 8 11 8h35q13 0 8 -12l-142 -336q-2 -3 0 -6l142 -334q5 -12 -8 -12h-35q-8 0 -11 8l-113 284q-1 3 -3 2.5t-3 -2.5l-114 -284q-3 -8 -11 -8h-35z" />
    <glyph glyph-name="Y" unicode="Y" horiz-adv-x="411" 
d="M189 0q-10 0 -10 10v310q0 4 -1 5l-138 363q-5 12 8 12h35q9 0 12 -8l108 -306q1 -2 3 -2t3 2l107 306q3 8 12 8h35q13 0 8 -12l-138 -363q-1 -1 -1 -5v-310q0 -10 -10 -10h-33z" />
    <glyph glyph-name="Z" unicode="Z" horiz-adv-x="391" 
d="M46 0q-10 0 -10 10v31q0 7 2 12l252 595q2 5 -3 5h-241q-10 0 -10 10v27q0 10 10 10h292q10 0 10 -10v-31q0 -7 -2 -12l-251 -595q-3 -5 3 -5h240q10 0 10 -10v-27q0 -10 -10 -10h-292z" />
    <glyph glyph-name="bracketleft" unicode="[" horiz-adv-x="292" 
d="M35 -114q-10 0 -10 10v862q0 10 10 10h142q10 0 10 -10v-28q0 -10 -10 -10h-95q-4 0 -4 -4v-779q0 -4 4 -4h96q10 0 10 -10v-27q0 -10 -10 -10h-143z" />
    <glyph glyph-name="backslash" unicode="\" horiz-adv-x="277" 
d="M250 11q3 -11 -8 -11h-33q-9 0 -11 9l-170 680q-3 11 8 11h33q9 0 11 -9z" />
    <glyph glyph-name="bracketright" unicode="]" horiz-adv-x="292" 
d="M267 -104q0 -10 -10 -10h-143q-10 0 -10 10v27q0 10 10 10h96q4 0 4 4v779q0 4 -4 4h-95q-10 0 -10 10v28q0 10 10 10h142q10 0 10 -10v-862z" />
    <glyph glyph-name="asciicircum" unicode="^" horiz-adv-x="390" 
d="M46 310q-11 0 -8 11l129 371q3 8 12 8h31q9 0 12 -8l129 -371q3 -11 -8 -11h-26q-9 0 -12 8l-107 319q-1 2 -3 2t-3 -2l-108 -319q-3 -8 -12 -8h-26z" />
    <glyph glyph-name="underscore" unicode="_" horiz-adv-x="365" 
d="M34 0q-10 0 -10 10v24q0 10 10 10h297q10 0 10 -10v-24q0 -10 -10 -10h-297z" />
    <glyph glyph-name="grave" unicode="`" horiz-adv-x="174" 
d="M143 590q7 -12 -7 -12h-24q-7 0 -12 7l-68 110q-7 12 6 12h31q7 0 12 -7z" />
    <glyph glyph-name="a" unicode="a" horiz-adv-x="403" 
d="M203 512q68 0 106.5 -45.5t38.5 -121.5v-335q0 -10 -10 -10h-33q-10 0 -10 10v36q0 3 -1.5 3.5t-3.5 -1.5q-37 -56 -116 -56q-53 0 -91.5 31t-38.5 109q0 83 46 122t123 39h78q4 0 4 4v46q0 56 -24.5 89t-68.5 33q-35 0 -60.5 -22t-29.5 -57q0 -10 -10 -10l-36 2
q-11 0 -9 10q6 56 47 90t99 34zM185 39q45 0 77.5 29t32.5 82v95q0 4 -4 4h-78q-52 0 -83.5 -28.5t-31.5 -84.5q0 -49 24 -73t63 -24z" />
    <glyph glyph-name="b" unicode="b" horiz-adv-x="417" 
d="M361 364q0 -18 0.5 -55t0.5 -55t-0.5 -56t-0.5 -57q-2 -66 -38.5 -107.5t-96.5 -41.5q-67 0 -101 52q-1 3 -3 2.5t-2 -3.5v-33q0 -10 -10 -10h-33q-10 0 -10 10v680q0 10 10 10h33q10 0 10 -10v-229q0 -3 2 -3.5t3 2.5q34 52 101 52q60 0 96.5 -41.5t38.5 -106.5z
M309 357q0 48 -27 78t-69 30q-41 0 -67 -30t-26 -78v-210q0 -48 26 -78t67 -30q43 0 69.5 30t26.5 78v210z" />
    <glyph glyph-name="c" unicode="c" horiz-adv-x="394" 
d="M203 -8q-67 0 -107.5 41.5t-40.5 108.5v220q0 66 41 108t107 42t107.5 -39.5t41.5 -94.5v-6q0 -10 -10 -10l-33 -2q-10 0 -10 8v8q0 36 -27 62.5t-69 26.5t-68.5 -29.5t-26.5 -76.5v-215q0 -46 26.5 -75.5t68.5 -29.5t69 26.5t27 62.5v5q0 10 10 10h33q10 0 10 -9v-9
q0 -55 -41.5 -94t-107.5 -39z" />
    <glyph glyph-name="d" unicode="d" horiz-adv-x="417" 
d="M297 690q0 10 10 10h33q10 0 10 -10v-680q0 -10 -10 -10h-33q-10 0 -10 10v33q0 3 -1.5 3.5t-3.5 -2.5q-34 -52 -101 -52q-60 0 -96.5 41.5t-38.5 107.5q0 19 -0.5 57t-0.5 56t0.5 55t0.5 55q2 65 38.5 106.5t96.5 41.5q67 0 101 -52q2 -3 3.5 -2.5t1.5 3.5v229zM204 39
q41 0 67 30t26 78v210q0 48 -26 78t-67 30q-42 0 -69 -30t-27 -78v-210q0 -48 26.5 -78t69.5 -30z" />
    <glyph glyph-name="e" unicode="e" horiz-adv-x="400" 
d="M352 243q0 -10 -10 -10h-230q-4 0 -4 -4v-85q0 -46 26.5 -75.5t68.5 -29.5q35 0 60 21t33 55q3 9 11 9l32 -2q4 0 7 -2t2 -6v-4q-10 -55 -48 -86.5t-97 -31.5q-66 0 -107 41.5t-41 107.5v221q0 66 41 108t107 42q67 0 108 -42t41 -108v-119zM203 465q-42 0 -68.5 -29.5
t-26.5 -76.5v-76q0 -4 4 -4h183q4 0 4 4v76q0 47 -26.5 76.5t-69.5 29.5z" />
    <glyph glyph-name="f" unicode="f" horiz-adv-x="271" 
d="M214 662q-43 0 -59 -28.5t-16 -89.5v-36q0 -4 4 -4h82q10 0 10 -10v-22q0 -10 -10 -10h-82q-4 0 -4 -4v-448q0 -10 -10 -10h-33q-10 0 -10 10v448q0 4 -4 4h-42q-10 0 -10 10v22q0 10 10 10h42q4 0 4 4v37q0 84 29 123.5t98 39.5h15q10 0 10 -10l-1 -26q0 -10 -10 -10
h-13z" />
    <glyph glyph-name="g" unicode="g" horiz-adv-x="406" 
d="M297 494q0 10 10 10h34q10 0 10 -10v-488q0 -103 -47 -157t-151 -50q-10 0 -10 10v27q0 10 10 10q77 -1 110.5 40.5t33.5 123.5v38q0 3 -1.5 3.5t-3.5 -2.5q-34 -54 -102 -54q-62 0 -98.5 41.5t-36.5 108.5v217q0 67 36.5 108.5t98.5 41.5q69 0 102 -54q3 -3 5 1v35z
M204 42q41 0 67 29t26 76v212q0 47 -26 76.5t-67 29.5q-42 0 -69 -29.5t-27 -76.5v-212q0 -46 27 -75.5t69 -29.5z" />
    <glyph glyph-name="h" unicode="h" horiz-adv-x="418" 
d="M231 511q61 0 94 -41t33 -115v-345q0 -10 -10 -10h-33q-10 0 -10 10v340q0 54 -23.5 84t-66.5 30q-44 0 -69.5 -32t-25.5 -88v-334q0 -10 -10 -10h-33q-10 0 -10 10v680q0 10 10 10h33q10 0 10 -10v-235q0 -3 2 -3t3 3q36 56 106 56z" />
    <glyph glyph-name="i" unicode="i" horiz-adv-x="195" 
d="M98 605q-17 0 -29 12.5t-12 31.5t12 31t29 12q18 0 29 -12t11 -31q0 -20 -11 -32t-29 -12zM82 0q-10 0 -10 10v484q0 10 10 10h33q10 0 10 -10v-484q0 -10 -10 -10h-33z" />
    <glyph glyph-name="j" unicode="j" horiz-adv-x="186" 
d="M93 605q-18 0 -29 12t-11 32t11.5 32t28.5 12q18 0 30 -12t12 -32t-11.5 -32t-30.5 -12zM-13 -209q-10 0 -10 10v27q0 10 10 10q40 2 60 30.5t20 76.5v549q0 10 10 10h33q10 0 10 -10v-549q0 -75 -30 -114t-103 -40z" />
    <glyph glyph-name="k" unicode="k" horiz-adv-x="394" 
d="M77 0q-10 0 -10 10v680q0 10 10 10h33q10 0 10 -10v-420q0 -2 2 -2.5t3 1.5l165 229q4 6 12 6h35q6 0 8 -4t-2 -8l-97 -136q-2 -2 -1 -5l117 -340q3 -11 -8 -11h-35q-9 0 -12 8l-95 297q-1 6 -6 1l-84 -116q-2 -2 -2 -5v-175q0 -10 -10 -10h-33z" />
    <glyph glyph-name="l" unicode="l" horiz-adv-x="174" 
d="M71 0q-10 0 -10 10v680q0 10 10 10h33q10 0 10 -10v-680q0 -10 -10 -10h-33z" />
    <glyph glyph-name="m" unicode="m" horiz-adv-x="641" 
d="M457 511q57 0 90 -44t33 -120v-337q0 -10 -10 -10h-33q-10 0 -10 10v332q0 56 -23.5 89t-62.5 33q-42 0 -66.5 -32t-24.5 -88v-334q0 -10 -10 -10h-33q-10 0 -10 10v332q0 56 -24 89t-62 33q-42 0 -67 -32t-25 -88v-334q0 -10 -10 -10h-32q-10 0 -10 10v484q0 10 10 10
h32q10 0 10 -10v-37q0 -3 1.5 -3.5t3.5 2.5q37 55 103 55q77 0 109 -77q2 -5 5 2q33 75 116 75z" />
    <glyph glyph-name="n" unicode="n" horiz-adv-x="418" 
d="M231 511q61 0 94 -41t33 -115v-345q0 -10 -10 -10h-33q-10 0 -10 10v340q0 54 -23.5 84t-66.5 30q-44 0 -69.5 -32t-25.5 -88v-334q0 -10 -10 -10h-33q-10 0 -10 10v484q0 10 10 10h33q10 0 10 -10v-39q0 -3 2 -3t3 3q36 56 106 56z" />
    <glyph glyph-name="o" unicode="o" horiz-adv-x="407" 
d="M203 -8q-66 0 -107 41.5t-41 107.5v221q0 66 41 108t107 42q68 0 109 -41.5t41 -108.5v-221q0 -66 -41 -107.5t-109 -41.5zM203 39q43 0 70 29.5t27 75.5v215q0 47 -27 76.5t-70 29.5q-42 0 -68.5 -29.5t-26.5 -76.5v-215q0 -46 26.5 -75.5t68.5 -29.5z" />
    <glyph glyph-name="p" unicode="p" horiz-adv-x="423" 
d="M367 363q0 -19 0.5 -57t0.5 -56t-0.5 -55t-0.5 -55q-2 -65 -38.5 -106.5t-96.5 -41.5q-67 0 -101 52q-1 3 -3 2.5t-2 -3.5v-229q0 -10 -10 -10h-33q-10 0 -10 10v680q0 10 10 10h33q10 0 10 -10v-33q0 -3 2 -3.5t3 2.5q34 52 101 52q60 0 96.5 -41.5t38.5 -107.5z
M315 357q0 48 -26.5 78t-69.5 30q-41 0 -67 -30t-26 -78v-210q0 -48 26 -78t67 -30q42 0 69 30t27 78v210z" />
    <glyph glyph-name="q" unicode="q" horiz-adv-x="423" 
d="M297 494q0 10 10 10h33q10 0 10 -10v-680q0 -10 -10 -10h-33q-10 0 -10 10v229q0 3 -1.5 3.5t-3.5 -2.5q-34 -52 -101 -52q-60 0 -96.5 41.5t-38.5 106.5q0 18 -0.5 55t-0.5 55t0.5 56t0.5 57q2 66 38.5 107.5t96.5 41.5q67 0 101 -52q2 -3 3.5 -2.5t1.5 3.5v33zM204 39
q41 0 67 30t26 78v210q0 48 -26 78t-67 30q-43 0 -69.5 -30t-26.5 -78v-210q0 -48 27 -78t69 -30z" />
    <glyph glyph-name="r" unicode="r" horiz-adv-x="284" 
d="M222 508q25 0 43 -10q7 -4 5 -13l-8 -34q-3 -9 -13 -5q-16 6 -39 5q-40 -1 -65 -40t-25 -96v-305q0 -10 -10 -10h-33q-10 0 -10 10v484q0 10 10 10h33q10 0 10 -10v-62q0 -3 2 -3t3 3q30 76 97 76z" />
    <glyph glyph-name="s" unicode="s" horiz-adv-x="364" 
d="M190 -5q-65 0 -104.5 35.5t-39.5 91.5v6q0 10 10 10h31q10 0 10 -8v-8q0 -36 26 -60t67 -24q40 0 64.5 24.5t24.5 63.5q0 22 -8 38.5t-26 29.5t-31.5 19.5t-40.5 17.5q-29 12 -45 20.5t-37.5 25.5t-31.5 41.5t-10 56.5q0 61 38 97t101 36q64 0 102 -37t38 -96v-3
q0 -10 -10 -10h-30q-10 0 -10 8v7q0 37 -25 62t-65 25t-64 -24.5t-24 -63.5q0 -21 7 -36.5t24.5 -28t29.5 -18.5t39 -18q31 -13 47.5 -21.5t39.5 -26t34 -42t11 -57.5q0 -60 -39 -96.5t-103 -36.5z" />
    <glyph glyph-name="t" unicode="t" horiz-adv-x="261" 
d="M230 472q0 -10 -10 -10h-80q-4 0 -4 -4v-322q0 -50 17 -69.5t54 -19.5h10q10 0 10 -10v-27q0 -10 -10 -10h-20q-56 0 -84.5 26t-28.5 97v335q0 4 -4 4h-41q-10 0 -10 10v22q0 10 10 10h41q4 0 4 4v112q0 10 10 10h32q10 0 10 -10v-112q0 -4 4 -4h80q10 0 10 -10v-22z" />
    <glyph glyph-name="u" unicode="u" horiz-adv-x="418" 
d="M298 494q0 10 10 10h33q10 0 10 -10v-484q0 -10 -10 -10h-33q-10 0 -10 10v36q0 3 -2 3.5t-3 -1.5q-32 -55 -102 -55q-60 0 -95 36.5t-35 109.5v355q0 10 10 10h33q10 0 10 -10v-343q0 -111 90 -111q44 0 69 32t25 88v334z" />
    <glyph glyph-name="v" unicode="v" horiz-adv-x="364" 
d="M163 0q-9 0 -11 9l-125 484q-3 11 9 11h38q9 0 11 -9l96 -410q2 -8 4 0l95 410q2 9 11 9l38 -1q12 0 8 -11l-123 -483q-2 -9 -11 -9h-40z" />
    <glyph glyph-name="w" unicode="w" horiz-adv-x="539" 
d="M142 0q-10 0 -11 9l-105 484q-2 11 9 11h32q9 0 11 -9l80 -413q2 -8 4 0l81 413q1 9 11 9h30q10 0 11 -9l81 -413q2 -8 4 0l82 413q2 9 11 9l31 -1q11 0 9 -11l-106 -483q-1 -9 -11 -9h-34q-10 0 -11 9l-81 393q-2 8 -4 0l-79 -393q-1 -9 -11 -9h-34z" />
    <glyph glyph-name="x" unicode="x" horiz-adv-x="359" 
d="M31 0q-12 0 -7 12l124 237q2 3 0 6l-124 237q-5 12 7 12h38q9 0 12 -7l96 -194q1 -2 3 -2t3 2l96 194q3 7 12 7h37q12 0 7 -12l-123 -237q-2 -3 0 -6l123 -237q5 -12 -7 -12h-37q-9 0 -12 7l-96 194q-1 2 -3 2t-3 -2l-96 -194q-3 -7 -12 -7h-38z" />
    <glyph glyph-name="y" unicode="y" horiz-adv-x="353" 
d="M45 -200q-6 0 -6 10v26q0 10 6 10h5q43 1 61 29t38 122v6l-128 490q-3 11 9 11h35q9 0 11 -9l99 -416q2 -8 4 0l98 416q1 9 11 9l36 -1q12 0 8 -11l-141 -543q-24 -93 -51 -121t-89 -28h-6z" />
    <glyph glyph-name="z" unicode="z" horiz-adv-x="357" 
d="M47 0q-10 0 -10 10v32q0 6 3 13l217 395q1 2 0.5 3.5t-2.5 1.5h-205q-10 0 -10 10v29q0 10 10 10h262q10 0 10 -10v-32q0 -7 -3 -13l-218 -395q-1 -2 -0.5 -3.5t2.5 -1.5h209q10 0 10 -10v-29q0 -10 -10 -10h-265z" />
    <glyph glyph-name="braceleft" unicode="{" horiz-adv-x="255" 
d="M177 -114q-49 0 -71.5 26.5t-22.5 84.5v219q0 81 -49 91q-9 1 -9 10v26q0 9 9 10q49 10 49 90v213q0 58 22.5 85t71.5 27h42q10 0 10 -10v-28q0 -10 -10 -10h-27q-56 0 -56 -77v-201q0 -85 -46 -109q-5 -2 0 -5q46 -25 46 -110v-208q0 -77 56 -77h27q10 0 10 -10v-27
q0 -10 -10 -10h-42z" />
    <glyph glyph-name="bar" unicode="|" horiz-adv-x="133" 
d="M50 -80q-10 0 -10 10v820q0 10 10 10h33q10 0 10 -10v-820q0 -10 -10 -10h-33z" />
    <glyph glyph-name="braceright" unicode="}" horiz-adv-x="255" 
d="M78 -114h-42q-10 0 -10 10v27q0 10 10 10h27q56 0 56 77v208q0 85 46 110q5 3 0 5q-46 24 -46 109v201q0 77 -56 77h-27q-10 0 -10 10v28q0 10 10 10h42q49 0 71.5 -27t22.5 -85v-213q0 -80 49 -90q9 -1 9 -10v-26q0 -9 -9 -10q-49 -10 -49 -91v-219q0 -58 -22.5 -84.5
t-71.5 -26.5z" />
    <glyph glyph-name="asciitilde" unicode="~" horiz-adv-x="454" 
d="M318 240q-20 0 -40.5 6.5t-29.5 11t-31 17.5q-40 25 -71 25q-46 0 -73 -42q-5 -10 -14 -4l-17 11q-8 6 -4 13q32 70 105 70q38 0 82 -27q54 -33 92 -33q20 0 33 10t30 30q7 9 14 3l17 -12q7 -6 3 -13q-39 -66 -96 -66z" />
    <glyph glyph-name="uni00A0" unicode="&#xa0;" horiz-adv-x="200" 
 />
    <glyph glyph-name="exclamdown" unicode="&#xa1;" horiz-adv-x="248" 
d="M122 708q20 0 34 -15.5t14 -37.5q0 -21 -14.5 -36.5t-33.5 -15.5q-18 0 -32.5 15.5t-14.5 36.5q0 23 13.5 38t33.5 15zM101 477q0 10 10 10h25q10 0 10 -10l5 -455q0 -10 -10 -10h-33q-10 0 -10 10z" />
    <glyph glyph-name="cent" unicode="&#xa2;" horiz-adv-x="394" 
d="M352 460q0 -8 -10 -8l-33 -2q-10 0 -10 8v8q0 36 -27 62.5t-69 26.5t-68.5 -29.5t-26.5 -76.5v-215q0 -46 26.5 -75.5t68.5 -29.5t69 26.5t27 62.5v5q0 10 10 10h33q10 0 10 -9v-9q0 -50 -33.5 -87t-89.5 -45q-4 0 -4 -4l1 -69q0 -10 -10 -10h-27q-10 0 -10 10l2 69
q0 4 -4 5q-56 8 -89 48t-33 100v220q0 59 33 99.5t89 48.5q4 1 4 5l-2 68q0 10 10 10h27q10 0 10 -10l-1 -68q0 -4 4 -5q56 -8 89.5 -45.5t33.5 -86.5v-8z" />
    <glyph glyph-name="sterling" unicode="&#xa3;" horiz-adv-x="499" 
d="M168 51q-3 -5 2 -5h283q10 0 10 -10v-26q0 -10 -10 -10h-339q-10 0 -10 10v28q0 8 6 12q42 34 42 128v132q0 4 -4 4h-59q-10 0 -10 10v24q0 10 10 10h59q4 0 4 4v155q0 86 40 136.5t109 54.5q118 6 152 -128q2 -10 -8 -12l-31 -5q-10 -2 -12 9q-22 93 -100 90
q-47 -3 -73 -40t-26 -103v-157q0 -4 4 -4h147q10 0 10 -10v-24q0 -10 -10 -10h-147q-4 0 -4 -4v-130q0 -84 -35 -129z" />
    <glyph glyph-name="currency" unicode="&#xa4;" horiz-adv-x="497" 
d="M438 301q0 -65 -39 -115q-2 -4 1 -6l65 -64q7 -6 -1 -14l-21 -18q-7 -6 -14 1l-63 61q-3 3 -6 1q-51 -38 -115 -38q-63 0 -112 35q-3 2 -6 -1l-60 -58q-7 -7 -14 -1l-20 18q-7 8 -1 14l60 60q3 3 1 6q-42 53 -42 119q0 64 40 115q2 3 -1 6l-65 65q-7 7 1 14l21 18
q8 6 14 -1l62 -63q3 -3 6 -1q50 39 116 39q68 0 119 -42q3 -2 6 1l66 66q8 8 14 1l20 -18q8 -7 1 -14l-68 -68q-3 -3 -1 -6q36 -49 36 -112zM99 301q0 -60 42.5 -102.5t103.5 -42.5q60 0 102.5 42t42.5 103q0 60 -43 103t-102 43q-61 0 -103.5 -42.5t-42.5 -103.5z" />
    <glyph glyph-name="yen" unicode="&#xa5;" horiz-adv-x="521" 
d="M437 317q0 -10 -10 -10h-140q-4 0 -4 -4v-74q0 -4 4 -4h140q10 0 10 -10v-16q0 -10 -10 -10h-140q-4 0 -4 -4v-175q0 -10 -10 -10h-33q-10 0 -10 10v175q0 4 -4 4h-133q-10 0 -10 10v16q0 10 10 10h133q4 0 4 4v74q0 4 -4 4h-133q-10 0 -10 10v15q0 10 10 10h125q6 0 3 5
l-130 341q-5 12 8 12h35q9 0 12 -8l108 -306q1 -2 3 -2t3 2l107 306q3 8 12 8h35q13 0 8 -12l-130 -341q-2 -5 3 -5h132q10 0 10 -10v-15z" />
    <glyph glyph-name="brokenbar" unicode="&#xa6;" horiz-adv-x="133" 
d="M50 385q-10 0 -10 10v355q0 10 10 10h33q10 0 10 -10v-355q0 -10 -10 -10h-33zM50 -80q-10 0 -10 10v347q0 10 10 10h33q10 0 10 -10v-347q0 -10 -10 -10h-33z" />
    <glyph glyph-name="section" unicode="&#xa7;" horiz-adv-x="385" 
d="M197 -207q-61 0 -98 43t-37 112v14q0 10 10 10h33q10 0 10 -10v-11q1 -50 23.5 -80.5t58.5 -30.5q37 0 60.5 31t23.5 77q0 29 -9.5 51t-29.5 37.5t-33 22.5t-37 17q-26 11 -41.5 19.5t-32.5 25t-26 39.5q-16 35 -16 86t23 94q24 45 64 59q5 2 0 5q-37 19 -60.5 59
t-23.5 92q0 67 38 110t99 43q60 0 97.5 -43.5t38.5 -113.5v-12q0 -10 -10 -10h-34q-10 0 -10 10v10q0 50 -22.5 81t-59.5 31q-38 0 -60.5 -31t-22.5 -80q0 -50 25.5 -79t79.5 -51q1 -1 11 -5t13 -5.5l12 -6t13.5 -7.5t12 -8.5t12.5 -10.5t11 -12t11 -15q27 -41 27 -98
q0 -55 -20 -95q-25 -50 -69 -62q-5 -2 0 -5q82 -42 82 -144q0 -66 -38 -109.5t-99 -43.5zM198 127q53 0 76 51q14 35 14 73q0 46 -22 78q-27 39 -71 39q-49 0 -73 -53q-12 -28 -12 -68q0 -42 13 -70q22 -50 75 -50z" />
    <glyph glyph-name="dieresis" unicode="&#xa8;" horiz-adv-x="245" 
d="M62 601q-16 0 -27 11.5t-11 28.5t11 28.5t27 11.5t26 -11.5t10 -28.5t-10 -28.5t-26 -11.5zM184 601q-16 0 -27 11.5t-11 28.5t11 28.5t27 11.5t26 -11.5t10 -28.5t-10 -28.5t-26 -11.5z" />
    <glyph glyph-name="copyright" unicode="&#xa9;" horiz-adv-x="846" 
d="M422 -8q-153 0 -257 103.5t-104 253.5q0 151 104 255t257 104q155 0 259 -104t104 -255q0 -150 -104.5 -253.5t-258.5 -103.5zM422 28q138 0 231.5 93t93.5 228q0 136 -93.5 229.5t-231.5 93.5t-231 -93.5t-93 -229.5q0 -135 93.5 -228t230.5 -93zM423 181
q-37 0 -59.5 21t-22.5 56v178q0 35 22.5 55.5t59.5 20.5q38 0 61 -21t23 -55v-7q0 -10 -10 -10l-16 -1q-10 0 -10 10v10q0 19 -13 30.5t-35 11.5t-35 -11.5t-13 -30.5v-182q0 -19 13 -31t35 -12t35 12t13 31v10q0 10 10 10l16 -1q10 0 10 -8v-9q0 -34 -23 -55.5t-61 -21.5z
" />
    <glyph glyph-name="ordfeminine" unicode="&#xaa;" horiz-adv-x="270" 
d="M136 562h49q4 0 4 4v30q0 35 -15.5 56t-44.5 21q-21 0 -36.5 -12.5t-19.5 -33.5q-2 -11 -11 -9l-21 2q-10 2 -9 11q4 34 31.5 55.5t66.5 21.5q47 0 73.5 -29.5t26.5 -79.5v-219q0 -10 -10 -10h-21q-10 0 -10 10v16q0 7 -5 2q-23 -33 -71 -33q-37 0 -63 20.5t-26 73.5
q0 103 112 103zM120 399q28 0 48.5 17.5t20.5 51.5v56q0 4 -4 4h-48q-33 0 -52.5 -17.5t-19.5 -51.5q0 -60 55 -60zM22 307q0 10 10 10h201q10 0 10 -10v-19q0 -10 -10 -10h-201q-10 0 -10 10v19z" />
    <glyph glyph-name="guillemotleft" unicode="&#xab;" horiz-adv-x="475" 
d="M241 119q4 -5 2 -8.5t-8 -3.5h-29q-8 0 -12 6l-113 161q-4 7 0 14l113 161q4 6 12 6h29q6 0 8 -3.5t-2 -8.5l-112 -159q-1 -3 0 -6zM387 119q4 -5 2 -8.5t-8 -3.5h-29q-8 0 -12 6l-113 161q-4 7 0 14l113 161q4 6 12 6h29q6 0 8 -3.5t-2 -8.5l-112 -159q-1 -3 0 -6z" />
    <glyph glyph-name="logicalnot" unicode="&#xac;" horiz-adv-x="443" 
d="M398 340q10 0 10 -10v-27v-6q-1 -1 -1 -2v-105q0 -10 -10 -10h-24q-10 0 -10 10v103q0 4 -4 4h-315q-10 0 -10 10v23q0 10 10 10h354z" />
    <glyph glyph-name="uni00AD" unicode="&#xad;" horiz-adv-x="309" 
d="M44 291q-10 0 -10 10v27q0 10 10 10h221q10 0 10 -10v-27q0 -10 -10 -10h-221z" />
    <glyph glyph-name="registered" unicode="&#xae;" horiz-adv-x="439" 
d="M219 715q82 0 138.5 -56.5t56.5 -136.5q0 -81 -56.5 -137t-138.5 -56q-81 0 -138 56t-57 137q0 80 57 136.5t138 56.5zM219 358q69 0 116.5 48t47.5 116t-47.5 115.5t-116.5 47.5q-68 0 -116 -47.5t-48 -115.5t48 -116t116 -48zM281 557q0 -33 -27 -44q-3 -2 -2 -6
l26 -63q5 -12 -8 -12h-8q-8 0 -11 8l-27 65q-2 3 -4 3h-19q-4 0 -4 -4v-62q0 -10 -10 -10h-7q-10 0 -10 10v158q0 10 10 10h50q22 0 36.5 -15t14.5 -38zM201 586q-4 0 -4 -4v-49q0 -4 4 -4h26q12 0 19.5 7.5t7.5 20.5q0 29 -27 29h-26z" />
    <glyph glyph-name="macron" unicode="&#xaf;" horiz-adv-x="531" 
d="M175 599q-10 0 -10 10v20q0 10 10 10h179q10 0 10 -10v-20q0 -10 -10 -10h-179z" />
    <glyph glyph-name="degree" unicode="&#xb0;" horiz-adv-x="358" 
d="M179 494q-65 0 -110 45.5t-45 111.5t45 111.5t110 45.5t110 -45.5t45 -111.5t-45 -111.5t-110 -45.5zM179 534q48 0 81 34t33 83q0 50 -33 84t-81 34t-81 -34t-33 -84q0 -49 33 -83t81 -34z" />
    <glyph glyph-name="plusminus" unicode="&#xb1;" horiz-adv-x="443" 
d="M242 366q0 -4 4 -4h152q10 0 10 -10v-23q0 -10 -10 -10h-152q-4 0 -4 -4v-151q0 -10 -10 -10h-22q-10 0 -10 10v151q0 4 -4 4h-152q-10 0 -10 10v23q0 10 10 10h152q4 0 4 4v152q0 10 10 10h22q10 0 10 -10v-152zM44 32q-10 0 -10 10v23q0 10 10 10h354q10 0 10 -10v-23
q0 -10 -10 -10h-354z" />
    <glyph glyph-name="uni00B2" unicode="&#xb2;" horiz-adv-x="239" 
d="M34 449q-10 0 -10 10v18q0 8 4 13l104 168q37 65 37 111q0 32 -14.5 50.5t-38.5 18.5q-23 0 -37.5 -18.5t-14.5 -49.5v-19q0 -10 -10 -10h-21q-10 0 -10 10v20q1 47 26.5 75t67.5 28t67.5 -28t25.5 -79q0 -55 -38 -123q-30 -55 -92 -155q-3 -5 3 -5h129q10 0 10 -10v-15
q0 -10 -10 -10h-178z" />
    <glyph glyph-name="uni00B3" unicode="&#xb3;" horiz-adv-x="258" 
d="M211 635q7 -31 7 -60q0 -40 -10 -66q-17 -65 -87 -65q-38 0 -64 24t-31 63q-2 22 -2 34q0 10 10 10h20q10 0 10 -10q0 -11 2 -25q8 -60 55 -60q36 0 50 39q9 31 9 60q0 31 -6 53q-12 49 -53 49q-5 0 -11 -2q-10 -2 -14 3l-9 10q-5 7 -1 14l80 123q1 3 -3 5h-127
q-10 0 -10 10v15q0 10 10 10h169q10 0 10 -10v-18q0 -5 -4 -13l-72 -113q-1 -1 -0.5 -3t2.5 -2q26 -3 44.5 -23t25.5 -52z" />
    <glyph glyph-name="acute" unicode="&#xb4;" horiz-adv-x="174" 
d="M38 578q-14 0 -7 12l62 110q5 7 12 7h31q14 0 7 -12l-69 -110q-5 -7 -12 -7h-24z" />
    <glyph glyph-name="uni00B5" unicode="&#xb5;" horiz-adv-x="424" 
d="M304 494q0 10 10 10h33q10 0 10 -10v-484q0 -10 -10 -10h-33q-10 0 -10 10v36q0 3 -2 3.5t-3 -1.5q-32 -55 -102 -55q-42 0 -72 18q-5 3 -5 -3v-198q0 -10 -10 -10h-33q-10 0 -10 10v684q0 10 10 10h33q10 0 10 -10v-343q0 -111 90 -111q44 0 69 32t25 88v334z" />
    <glyph glyph-name="paragraph" unicode="&#xb6;" horiz-adv-x="459" 
d="M202 700h168q10 0 10 -10v-880q0 -10 -10 -10h-26q-10 0 -10 10v841q0 4 -4 4h-86q-4 0 -4 -4v-841q0 -10 -10 -10h-27q-10 0 -10 10v436q0 4 -4 4q-69 7 -111 70t-42 155q0 96 46 160.5t120 64.5z" />
    <glyph glyph-name="periodcentered" unicode="&#xb7;" horiz-adv-x="95" 
d="M47 4q-20 0 -33.5 15.5t-13.5 37.5q0 21 14.5 36.5t32.5 15.5q19 0 33.5 -15.5t14.5 -36.5q0 -22 -14 -37.5t-34 -15.5z" />
    <glyph glyph-name="cedilla" unicode="&#xb8;" horiz-adv-x="113" 
d="M11 -181q-8 1 -7 11l2 14q2 8 10 8q1 -1 4 -1q46 -6 53 38q7 49 -40 99q-4 4 -2.5 8t7.5 4h16q7 0 10 -3l4 -4q56 -52 44 -118q-7 -40 -37 -51.5t-64 -4.5z" />
    <glyph glyph-name="uni00B9" unicode="&#xb9;" horiz-adv-x="142" 
d="M62 866q6 3 13 3h24q10 0 10 -10v-400q0 -10 -10 -10h-21q-10 0 -10 10v365q0 6 -5 3l-21 -8q-12 -3 -12 8v11q0 7 7 12z" />
    <glyph glyph-name="ordmasculine" unicode="&#xba;" horiz-adv-x="276" 
d="M138 365q-46 0 -73.5 27.5t-27.5 72.5v143q0 45 27.5 72.5t73.5 27.5t73.5 -27.5t27.5 -72.5v-143q0 -45 -27.5 -72.5t-73.5 -27.5zM138 400q27 0 44 18.5t17 47.5v139q0 30 -17 49t-44 19t-44 -19t-17 -49v-139q0 -29 17 -47.5t44 -18.5zM38 278q-10 0 -10 10v19
q0 10 10 10h201q10 0 10 -10v-19q0 -10 -10 -10h-201z" />
    <glyph glyph-name="guillemotright" unicode="&#xbb;" horiz-adv-x="475" 
d="M94 107q-6 0 -8 3.5t2 8.5l112 159q2 3 0 6l-112 159q-4 5 -2 8.5t8 3.5h29q8 0 12 -6l113 -161q4 -7 0 -14l-113 -161q-4 -6 -12 -6h-29zM240 107q-6 0 -8 3.5t2 8.5l112 159q2 3 0 6l-112 159q-4 5 -2 8.5t8 3.5h29q8 0 12 -6l113 -161q4 -7 0 -14l-113 -161
q-4 -6 -12 -6h-29z" />
    <glyph glyph-name="onequarter" unicode="&#xbc;" horiz-adv-x="648" 
d="M78 280q-10 0 -10 10v365q0 5 -5 3l-21 -8q-12 -3 -12 8v11q0 7 7 12l25 15q8 4 13 4h24q10 0 10 -10v-400q0 -10 -10 -10h-21zM507 693q5 7 12 7h21q13 0 6 -12l-436 -681q-5 -7 -12 -7h-21q-13 0 -6 12zM625 152q10 0 10 -10v-17q0 -10 -10 -10h-13q-4 0 -4 -4v-101
q0 -10 -10 -10h-20q-10 0 -10 10v101q0 4 -4 4h-130q-10 0 -10 10v16q0 4 2 12l88 259q3 8 12 8h22q11 0 8 -11l-84 -252q-2 -5 3 -5h89q4 0 4 4v88q0 10 10 10h20q10 0 10 -10v-88q0 -4 4 -4h13z" />
    <glyph glyph-name="onehalf" unicode="&#xbd;" horiz-adv-x="657" 
d="M78 280q-10 0 -10 10v365q0 5 -5 3l-21 -8q-12 -3 -12 8v11q0 7 7 12l25 15q8 4 13 4h24q10 0 10 -10v-400q0 -10 -10 -10h-21zM507 693q5 7 12 7h21q13 0 6 -12l-436 -681q-5 -7 -12 -7h-21q-13 0 -6 12zM498 40q-3 -5 3 -5h129q10 0 10 -10v-15q0 -10 -10 -10h-178
q-10 0 -10 10v18q0 8 4 13l104 168q37 65 37 111q0 32 -14.5 50.5t-38.5 18.5q-23 0 -37.5 -18.5t-14.5 -49.5v-19q0 -10 -10 -10h-21q-10 0 -10 10v20q1 47 26.5 75t67.5 28t67.5 -28t25.5 -79q0 -55 -38 -123q-30 -55 -92 -155z" />
    <glyph glyph-name="threequarters" unicode="&#xbe;" horiz-adv-x="715" 
d="M574 693q5 7 12 7h21q13 0 6 -12l-436 -681q-5 -7 -12 -7h-21q-13 0 -6 12zM208 338q-17 -65 -87 -65q-38 0 -64 24t-31 63q-2 22 -2 34q0 10 10 10h20q10 0 10 -10q0 -11 2 -25q8 -60 55 -60q36 0 50 39q9 31 9 60q0 30 -6 53q-12 49 -53 49q-5 0 -11 -2q-10 -2 -14 3
l-9 10q-5 7 -1 14l80 123q1 3 -3 5h-127q-10 0 -10 10v15q0 10 10 10h169q10 0 10 -10v-18q0 -5 -4 -13l-72 -113q-1 -2 -0.5 -3.5t2.5 -1.5q26 -3 44.5 -23t25.5 -52t7 -60q0 -40 -10 -66zM692 152q10 0 10 -10v-17q0 -10 -10 -10h-13q-4 0 -4 -4v-101q0 -10 -10 -10h-20
q-10 0 -10 10v101q0 4 -4 4h-130q-10 0 -10 10v16q0 4 2 12l88 259q3 8 12 8h22q11 0 8 -11l-84 -252q-3 -5 3 -5h89q4 0 4 4v88q0 10 10 10h20q10 0 10 -10v-88q0 -4 4 -4h13z" />
    <glyph glyph-name="questiondown" unicode="&#xbf;" horiz-adv-x="352" 
d="M187 497q18 0 31.5 -15t13.5 -36t-13.5 -36t-31.5 -15t-32 15t-14 36t13.5 36t32.5 15zM207 305q10 0 10 -10v-65q0 -35 -13.5 -62.5t-32.5 -47.5l-38.5 -40t-33 -50t-13.5 -69q0 -55 24.5 -88t64.5 -33q43 0 68.5 33.5t25.5 88.5v34q0 10 10 10l33 -2q10 0 10 -10v-32
q0 -76 -41 -123.5t-106 -47.5t-103.5 46.5t-38.5 124.5q0 46 13.5 82t32.5 58t38 40.5t32.5 41t13.5 49.5v62q0 10 10 10h34z" />
    <glyph glyph-name="Agrave" unicode="&#xc0;" horiz-adv-x="443" 
d="M239 786q7 -12 -7 -12h-24q-7 0 -12 7l-68 110q-7 12 6 12h31q7 0 12 -7zM362 0q-10 0 -11 9l-27 131q0 4 -5 4h-195q-5 0 -5 -4l-28 -131q-1 -9 -11 -9h-33q-11 0 -9 11l152 680q2 9 11 9h40q9 0 11 -9l153 -680q2 -11 -9 -11h-34zM130 192q-2 -4 3 -4h176q3 0 3 4
l-88 417q-2 8 -4 0z" />
    <glyph glyph-name="Aacute" unicode="&#xc1;" horiz-adv-x="443" 
d="M288 903q14 0 7 -12l-69 -110q-5 -7 -12 -7h-24q-14 0 -7 12l62 110q5 7 12 7h31zM362 0q-10 0 -11 9l-27 131q0 4 -5 4h-195q-5 0 -5 -4l-28 -131q-1 -9 -11 -9h-33q-11 0 -9 11l152 680q2 9 11 9h40q9 0 11 -9l153 -680q2 -11 -9 -11h-34zM130 192q-2 -4 3 -4h176
q3 0 3 4l-88 417q-2 8 -4 0z" />
    <glyph glyph-name="Acircumflex" unicode="&#xc2;" horiz-adv-x="443" 
d="M224 849q-1 1 -3 1t-3 -1l-47 -76q-5 -7 -12 -7h-31q-13 0 -6 12l66 102q5 7 12 7h40q8 0 12 -6l68 -103q3 -4 1 -8t-8 -4h-31q-7 0 -12 7zM362 0q-10 0 -11 9l-27 131q0 4 -5 4h-195q-5 0 -5 -4l-28 -131q-1 -9 -11 -9h-33q-11 0 -9 11l152 680q2 9 11 9h40q9 0 11 -9
l153 -680q2 -11 -9 -11h-34zM130 192q-2 -4 3 -4h176q3 0 3 4l-88 417q-2 8 -4 0z" />
    <glyph glyph-name="Atilde" unicode="&#xc3;" horiz-adv-x="443" 
d="M183 837q-28 0 -46 -27q-6 -9 -14 -3l-12 9q-9 5 -4 13q27 48 73 48q23 0 56 -23l11 -7.5t12 -7.5t11 -4.5t13 -2.5q27 0 44 30q5 10 14 4l12 -8q8 -6 4 -14q-26 -50 -76 -50q-21 0 -53 22q-30 21 -45 21zM362 0q-10 0 -11 9l-27 131q0 4 -5 4h-195q-5 0 -5 -4l-28 -131
q-1 -9 -11 -9h-33q-11 0 -9 11l152 680q2 9 11 9h40q9 0 11 -9l153 -680q2 -11 -9 -11h-34zM130 192q-2 -4 3 -4h176q3 0 3 4l-88 417q-2 8 -4 0z" />
    <glyph glyph-name="Adieresis" unicode="&#xc4;" horiz-adv-x="443" 
d="M161 797q-16 0 -27 11.5t-11 28.5t11 28.5t27 11.5t26 -11.5t10 -28.5t-10 -28.5t-26 -11.5zM283 797q-16 0 -27 11.5t-11 28.5t11 28.5t27 11.5t26 -11.5t10 -28.5t-10 -28.5t-26 -11.5zM362 0q-10 0 -11 9l-27 131q0 4 -5 4h-195q-5 0 -5 -4l-28 -131q-1 -9 -11 -9h-33
q-11 0 -9 11l152 680q2 9 11 9h40q9 0 11 -9l153 -680q2 -11 -9 -11h-34zM130 192q-2 -4 3 -4h176q3 0 3 4l-88 417q-2 8 -4 0z" />
    <glyph glyph-name="Aring" unicode="&#xc5;" horiz-adv-x="443" 
d="M221 771q-41 0 -69.5 29.5t-28.5 71.5t28.5 71t69.5 29q42 0 70.5 -29t28.5 -71t-28.5 -71.5t-70.5 -29.5zM221 941q-27 0 -46.5 -20t-19.5 -49t19.5 -49t46.5 -20q28 0 47 20t19 49t-19 49t-47 20zM362 0q-10 0 -11 9l-27 131q0 4 -5 4h-195q-5 0 -5 -4l-28 -131
q-1 -9 -11 -9h-33q-11 0 -9 11l152 680q2 9 11 9h40q9 0 11 -9l153 -680q2 -11 -9 -11h-34zM130 192q-2 -4 3 -4h176q3 0 3 4l-88 417q-2 8 -4 0z" />
    <glyph glyph-name="AE" unicode="&#xc6;" horiz-adv-x="711" 
d="M667 663q0 -10 -10 -10h-237q-4 0 -4 -4v-271q0 -4 4 -4h152q10 0 10 -10v-27q0 -10 -10 -10h-152q-4 0 -4 -4v-272q0 -4 4 -4h237q10 0 10 -10v-27q0 -10 -10 -10h-285q-10 0 -10 10v130q0 4 -4 4h-201q-3 0 -4 -3l-59 -133q-3 -8 -11 -8h-34q-13 0 -8 12l302 680
q3 8 11 8h303q10 0 10 -10v-27zM175 193q-3 -5 3 -5h180q4 0 4 4l1 420q0 2 -1 3q-3 1 -4 -2z" />
    <glyph glyph-name="Ccedilla" unicode="&#xc7;" horiz-adv-x="441" 
d="M386 524q0 -11 -10 -11l-33 -2q-10 0 -10 10v25q0 52 -30.5 83.5t-79.5 31.5t-79 -31.5t-30 -83.5v-391q0 -52 30 -84t79 -32t79.5 32t30.5 84v23q0 10 10 10l33 -2q10 0 10 -10v-17q0 -69 -36.5 -113t-99.5 -52q-5 -2 -2 -5q52 -51 40 -115q-7 -40 -37 -51.5t-64 -4.5
q-8 1 -7 11l2 14q2 8 10 8q1 -1 4 -1q46 -6 53 38q8 49 -44 103q-2 2 -5 2q-63 7 -101 52t-38 114v384q0 75 44.5 120t117.5 45q74 0 118.5 -45t44.5 -120v-19z" />
    <glyph glyph-name="Egrave" unicode="&#xc8;" horiz-adv-x="427" 
d="M249 797q7 -12 -7 -12h-24q-7 0 -12 7l-68 110q-7 12 6 12h31q7 0 12 -7zM383 663q0 -10 -10 -10h-237q-4 0 -4 -4v-271q0 -4 4 -4h152q10 0 10 -10v-27q0 -10 -10 -10h-152q-4 0 -4 -4v-272q0 -4 4 -4h237q10 0 10 -10v-27q0 -10 -10 -10h-284q-10 0 -10 10v680
q0 10 10 10h284q10 0 10 -10v-27z" />
    <glyph glyph-name="Eacute" unicode="&#xc9;" horiz-adv-x="427" 
d="M298 914q14 0 7 -12l-69 -110q-5 -7 -12 -7h-24q-14 0 -7 12l62 110q5 7 12 7h31zM383 663q0 -10 -10 -10h-237q-4 0 -4 -4v-271q0 -4 4 -4h152q10 0 10 -10v-27q0 -10 -10 -10h-152q-4 0 -4 -4v-272q0 -4 4 -4h237q10 0 10 -10v-27q0 -10 -10 -10h-284q-10 0 -10 10v680
q0 10 10 10h284q10 0 10 -10v-27z" />
    <glyph glyph-name="Ecircumflex" unicode="&#xca;" horiz-adv-x="427" 
d="M234 860q-1 2 -3 2t-3 -2l-47 -76q-5 -7 -12 -7h-31q-13 0 -6 12l66 102q5 7 12 7h40q8 0 12 -6l68 -103q3 -5 1 -8.5t-8 -3.5h-31q-7 0 -12 7zM383 663q0 -10 -10 -10h-237q-4 0 -4 -4v-271q0 -4 4 -4h152q10 0 10 -10v-27q0 -10 -10 -10h-152q-4 0 -4 -4v-272
q0 -4 4 -4h237q10 0 10 -10v-27q0 -10 -10 -10h-284q-10 0 -10 10v680q0 10 10 10h284q10 0 10 -10v-27z" />
    <glyph glyph-name="Edieresis" unicode="&#xcb;" horiz-adv-x="427" 
d="M171 808q-16 0 -27 11.5t-11 28.5t11 28.5t27 11.5t26 -11.5t10 -28.5t-10 -28.5t-26 -11.5zM293 808q-16 0 -27 11.5t-11 28.5t11 28.5t27 11.5t26 -11.5t10 -28.5t-10 -28.5t-26 -11.5zM383 663q0 -10 -10 -10h-237q-4 0 -4 -4v-271q0 -4 4 -4h152q10 0 10 -10v-27
q0 -10 -10 -10h-152q-4 0 -4 -4v-272q0 -4 4 -4h237q10 0 10 -10v-27q0 -10 -10 -10h-284q-10 0 -10 10v680q0 10 10 10h284q10 0 10 -10v-27z" />
    <glyph glyph-name="Igrave" unicode="&#xcc;" horiz-adv-x="211" 
d="M123 797q7 -12 -7 -12h-24q-7 0 -12 7l-68 110q-7 12 6 12h31q7 0 12 -7zM89 0q-10 0 -10 10v680q0 10 10 10h33q10 0 10 -10v-680q0 -10 -10 -10h-33z" />
    <glyph glyph-name="Iacute" unicode="&#xcd;" horiz-adv-x="211" 
d="M74 785q-14 0 -7 12l62 110q5 7 12 7h31q14 0 7 -12l-69 -110q-5 -7 -12 -7h-24zM89 0q-10 0 -10 10v680q0 10 10 10h33q10 0 10 -10v-680q0 -10 -10 -10h-33z" />
    <glyph glyph-name="Icircumflex" unicode="&#xce;" horiz-adv-x="211" 
d="M12 777q-13 0 -6 12l66 102q5 7 12 7h40q8 0 12 -6l68 -103q3 -5 1 -8.5t-8 -3.5h-31q-7 0 -12 7l-46 76q-1 2 -3 2t-3 -2l-47 -76q-5 -7 -12 -7h-31zM89 0q-10 0 -10 10v680q0 10 10 10h33q10 0 10 -10v-680q0 -10 -10 -10h-33z" />
    <glyph glyph-name="Idieresis" unicode="&#xcf;" horiz-adv-x="211" 
d="M45 808q-16 0 -27 11.5t-11 28.5t11 28.5t27 11.5t26 -11.5t10 -28.5t-10 -28.5t-26 -11.5zM167 808q-16 0 -27 11.5t-11 28.5t11 28.5t27 11.5t26 -11.5t10 -28.5t-10 -28.5t-26 -11.5zM89 0q-10 0 -10 10v680q0 10 10 10h33q10 0 10 -10v-680q0 -10 -10 -10h-33z" />
    <glyph glyph-name="Eth" unicode="&#xd0;" horiz-adv-x="509" 
d="M282 700q74 0 117 -49.5t43 -134.5v-332q0 -85 -43 -134.5t-117 -49.5h-147q-10 0 -10 10v333q0 4 -4 4h-32q-10 0 -10 10v17q0 10 10 10h32q4 0 4 4v302q0 10 10 10h147zM388 185v329q0 65 -28.5 102t-78.5 37h-99q-4 0 -4 -4v-261q0 -4 4 -4h85q10 0 10 -10v-17
q0 -10 -10 -10h-85q-4 0 -4 -4v-292q0 -4 4 -4h100q49 1 77.5 37.5t28.5 100.5z" />
    <glyph glyph-name="Ntilde" unicode="&#xd1;" horiz-adv-x="488" 
d="M304 805q-21 0 -53 22q-30 21 -45 21q-28 0 -46 -27q-6 -9 -14 -3l-12 9q-9 5 -4 13q27 48 73 48q23 0 56 -23l11 -7.5t12 -7.5t11 -4.5t13 -2.5q26 0 44 30q5 10 14 4l12 -8q9 -6 0 -20q-27 -44 -72 -44zM89 0q-10 0 -10 10v680q0 10 10 10h35q8 0 11 -8l217 -549
q1 -3 3 -2.5t2 3.5v546q0 10 10 10h32q10 0 10 -10v-680q0 -10 -10 -10h-35q-8 0 -11 8l-217 550q-1 3 -3 2.5t-2 -3.5l1 -547q0 -10 -10 -10h-33z" />
    <glyph glyph-name="Ograve" unicode="&#xd2;" horiz-adv-x="451" 
d="M243 787q7 -12 -7 -12h-24q-7 0 -12 7l-68 110q-7 12 6 12h31q7 0 12 -7zM225 -8q-73 0 -118.5 46.5t-45.5 121.5v379q0 76 45 122.5t119 46.5t120 -46.5t46 -122.5v-379q0 -75 -46 -121.5t-120 -46.5zM225 39q50 0 81.5 33t31.5 86v383q0 53 -31.5 86.5t-81.5 33.5
q-49 0 -80 -33.5t-31 -86.5v-383q0 -53 31 -86t80 -33z" />
    <glyph glyph-name="Oacute" unicode="&#xd3;" horiz-adv-x="451" 
d="M194 775q-14 0 -7 12l62 110q5 7 12 7h31q14 0 7 -12l-69 -110q-5 -7 -12 -7h-24zM225 -8q-73 0 -118.5 46.5t-45.5 121.5v379q0 76 45 122.5t119 46.5t120 -46.5t46 -122.5v-379q0 -75 -46 -121.5t-120 -46.5zM225 39q50 0 81.5 33t31.5 86v383q0 53 -31.5 86.5
t-81.5 33.5q-49 0 -80 -33.5t-31 -86.5v-383q0 -53 31 -86t80 -33z" />
    <glyph glyph-name="Ocircumflex" unicode="&#xd4;" horiz-adv-x="451" 
d="M132 767q-13 0 -6 12l66 102q5 7 12 7h40q8 0 12 -6l68 -103q3 -5 1 -8.5t-8 -3.5h-31q-7 0 -12 7l-46 76q-1 2 -3 2t-3 -2l-47 -76q-5 -7 -12 -7h-31zM225 -8q-73 0 -118.5 46.5t-45.5 121.5v379q0 76 45 122.5t119 46.5t120 -46.5t46 -122.5v-379q0 -75 -46 -121.5
t-120 -46.5zM225 39q50 0 81.5 33t31.5 86v383q0 53 -31.5 86.5t-81.5 33.5q-49 0 -80 -33.5t-31 -86.5v-383q0 -53 31 -86t80 -33z" />
    <glyph glyph-name="Otilde" unicode="&#xd5;" horiz-adv-x="451" 
d="M285 795q-21 0 -53 22q-30 21 -45 21q-28 0 -46 -27q-6 -9 -14 -3l-12 9q-9 5 -4 13q27 48 73 48q23 0 56 -23l11 -7.5t12 -7.5t11 -4.5t13 -2.5q27 0 44 30q5 10 14 4l12 -8q9 -6 0 -20q-27 -44 -72 -44zM225 -8q-73 0 -118.5 46.5t-45.5 121.5v379q0 76 45 122.5
t119 46.5t120 -46.5t46 -122.5v-379q0 -75 -46 -121.5t-120 -46.5zM225 39q50 0 81.5 33t31.5 86v383q0 53 -31.5 86.5t-81.5 33.5q-49 0 -80 -33.5t-31 -86.5v-383q0 -53 31 -86t80 -33z" />
    <glyph glyph-name="Odieresis" unicode="&#xd6;" horiz-adv-x="451" 
d="M165 798q-16 0 -27 11.5t-11 28.5t11 28.5t27 11.5t26 -11.5t10 -28.5t-10 -28.5t-26 -11.5zM287 798q-16 0 -27 11.5t-11 28.5t11 28.5t27 11.5t26 -11.5t10 -28.5t-10 -28.5t-26 -11.5zM225 -8q-73 0 -118.5 46.5t-45.5 121.5v379q0 76 45 122.5t119 46.5t120 -46.5
t46 -122.5v-379q0 -75 -46 -121.5t-120 -46.5zM225 39q50 0 81.5 33t31.5 86v383q0 53 -31.5 86.5t-81.5 33.5q-49 0 -80 -33.5t-31 -86.5v-383q0 -53 31 -86t80 -33z" />
    <glyph glyph-name="multiply" unicode="&#xd7;" horiz-adv-x="363" 
d="M321 435q7 -7 0 -14l-107 -108q-3 -3 0 -6l106 -106q6 -6 0 -14l-15 -16q-7 -7 -14 0l-107 107q-3 3 -6 0l-107 -108q-7 -7 -14 0l-17 17q-7 7 0 14l108 107q3 3 0 6l-108 108q-7 7 0 14l16 15q7 7 14 0l107 -107q3 -3 6 0l108 107q7 7 14 0z" />
    <glyph glyph-name="Oslash" unicode="&#xd8;" horiz-adv-x="483" 
d="M409 743q13 0 8 -12l-39 -95q-2 -3 0 -6q23 -38 23 -91v-379q0 -75 -46 -121.5t-120 -46.5q-60 0 -102 32q-4 3 -6 -1l-21 -51q-3 -8 -11 -8h-21q-13 0 -8 12l33 80q1 2 -1 6q-27 39 -27 98v379q0 76 45 122.5t119 46.5q66 0 110 -38q4 -3 6 1l26 64q3 8 11 8h21z
M124 158q0 -15 1 -23q1 -3 3 -2.5t3 2.5l195 476q2 3 -1 6q-30 44 -90 44q-49 0 -80 -33.5t-31 -86.5v-383zM348 541v8q0 2 -1 3q-3 1 -4 -2l-192 -469q-1 -3 1 -5q31 -37 83 -37q50 0 81.5 33t31.5 86v383z" />
    <glyph glyph-name="Ugrave" unicode="&#xd9;" horiz-adv-x="475" 
d="M255 797q7 -12 -7 -12h-24q-7 0 -12 7l-68 110q-7 12 6 12h31q7 0 12 -7zM237 -8q-74 0 -119 51.5t-45 137.5v509q0 10 10 10h33q10 0 10 -10v-515q0 -61 30.5 -98.5t80.5 -37.5t81.5 37.5t31.5 98.5v515q0 10 10 10h33q10 0 10 -10v-509q0 -85 -46 -137t-120 -52z" />
    <glyph glyph-name="Uacute" unicode="&#xda;" horiz-adv-x="475" 
d="M206 785q-14 0 -7 12l62 110q5 7 12 7h31q14 0 7 -12l-69 -110q-5 -7 -12 -7h-24zM237 -8q-74 0 -119 51.5t-45 137.5v509q0 10 10 10h33q10 0 10 -10v-515q0 -61 30.5 -98.5t80.5 -37.5t81.5 37.5t31.5 98.5v515q0 10 10 10h33q10 0 10 -10v-509q0 -85 -46 -137
t-120 -52z" />
    <glyph glyph-name="Ucircumflex" unicode="&#xdb;" horiz-adv-x="475" 
d="M144 777q-13 0 -6 12l66 102q5 7 12 7h40q8 0 12 -6l68 -103q3 -5 1 -8.5t-8 -3.5h-31q-7 0 -12 7l-46 76q-1 2 -3 2t-3 -2l-47 -76q-5 -7 -12 -7h-31zM237 -8q-74 0 -119 51.5t-45 137.5v509q0 10 10 10h33q10 0 10 -10v-515q0 -61 30.5 -98.5t80.5 -37.5t81.5 37.5
t31.5 98.5v515q0 10 10 10h33q10 0 10 -10v-509q0 -85 -46 -137t-120 -52z" />
    <glyph glyph-name="Udieresis" unicode="&#xdc;" horiz-adv-x="475" 
d="M177 808q-16 0 -27 11.5t-11 28.5t11 28.5t27 11.5t26 -11.5t10 -28.5t-10 -28.5t-26 -11.5zM299 808q-16 0 -27 11.5t-11 28.5t11 28.5t27 11.5t26 -11.5t10 -28.5t-10 -28.5t-26 -11.5zM237 -8q-74 0 -119 51.5t-45 137.5v509q0 10 10 10h33q10 0 10 -10v-515
q0 -61 30.5 -98.5t80.5 -37.5t81.5 37.5t31.5 98.5v515q0 10 10 10h33q10 0 10 -10v-509q0 -85 -46 -137t-120 -52z" />
    <glyph glyph-name="Yacute" unicode="&#xdd;" horiz-adv-x="411" 
d="M175 774q-14 0 -7 12l62 110q5 7 12 7h31q14 0 7 -12l-69 -110q-5 -7 -12 -7h-24zM189 0q-10 0 -10 10v310q0 4 -1 5l-138 363q-5 12 8 12h35q9 0 12 -8l108 -306q1 -2 3 -2t3 2l107 306q3 8 12 8h35q13 0 8 -12l-138 -363q-1 -1 -1 -5v-310q0 -10 -10 -10h-33z" />
    <glyph glyph-name="Thorn" unicode="&#xde;" horiz-adv-x="436" 
d="M243 540q71 0 114 -52.5t43 -137.5q0 -84 -42.5 -135.5t-112.5 -51.5h-110q-4 0 -4 -4v-149q0 -10 -10 -10h-33q-10 0 -10 10v680q0 10 10 10h33q10 0 10 -10v-146q0 -4 4 -4h108zM237 208q50 0 80 38.5t30 102.5q0 66 -30 105t-80 39h-102q-4 0 -4 -4v-277q0 -4 4 -4
h102z" />
    <glyph glyph-name="germandbls" unicode="&#xdf;" horiz-adv-x="422" 
d="M77 0q-10 0 -10 10v507q0 90 38 141t105 51q69 0 109.5 -49.5t42.5 -133.5q3 -119 -69 -155q-5 -2 0 -5q35 -19 55 -64.5t20 -109.5q0 -90 -43 -141t-120 -51h-35q-10 0 -10 10v26q0 10 10 10l36 1q53 1 81.5 39.5t28.5 109.5t-25 110t-70 41h-36q-10 0 -10 10v24
q0 10 10 10h36q44 0 67 34t22 98q-1 66 -27.5 102.5t-71.5 36.5q-43 0 -67 -36.5t-24 -103.5v-512q0 -10 -10 -10h-33z" />
    <glyph glyph-name="agrave" unicode="&#xe0;" horiz-adv-x="403" 
d="M219 598q7 -12 -7 -12h-24q-7 0 -12 7l-68 110q-7 12 6 12h31q7 0 12 -7zM203 512q68 0 106.5 -45.5t38.5 -121.5v-335q0 -10 -10 -10h-33q-10 0 -10 10v36q0 3 -1.5 3.5t-3.5 -1.5q-37 -56 -116 -56q-53 0 -91.5 31t-38.5 109q0 83 46 122t123 39h78q4 0 4 4v46
q0 56 -24.5 89t-68.5 33q-35 0 -60.5 -22t-29.5 -57q0 -10 -10 -10l-36 2q-11 0 -9 10q6 56 47 90t99 34zM185 39q45 0 77.5 29t32.5 82v95q0 4 -4 4h-78q-52 0 -83.5 -28.5t-31.5 -84.5q0 -49 24 -73t63 -24z" />
    <glyph glyph-name="aacute" unicode="&#xe1;" horiz-adv-x="403" 
d="M268 715q14 0 7 -12l-69 -110q-5 -7 -12 -7h-24q-14 0 -7 12l62 110q5 7 12 7h31zM203 512q68 0 106.5 -45.5t38.5 -121.5v-335q0 -10 -10 -10h-33q-10 0 -10 10v36q0 3 -1.5 3.5t-3.5 -1.5q-37 -56 -116 -56q-53 0 -91.5 31t-38.5 109q0 83 46 122t123 39h78q4 0 4 4v46
q0 56 -24.5 89t-68.5 33q-35 0 -60.5 -22t-29.5 -57q0 -10 -10 -10l-36 2q-11 0 -9 10q6 56 47 90t99 34zM185 39q45 0 77.5 29t32.5 82v95q0 4 -4 4h-78q-52 0 -83.5 -28.5t-31.5 -84.5q0 -49 24 -73t63 -24z" />
    <glyph glyph-name="acircumflex" unicode="&#xe2;" horiz-adv-x="403" 
d="M204 661q-1 1 -3 1t-3 -1l-47 -76q-5 -7 -12 -7h-31q-13 0 -6 12l66 102q5 7 12 7h40q8 0 12 -6l68 -103q3 -4 1 -8t-8 -4h-31q-7 0 -12 7zM203 512q68 0 106.5 -45.5t38.5 -121.5v-335q0 -10 -10 -10h-33q-10 0 -10 10v36q0 3 -1.5 3.5t-3.5 -1.5q-37 -56 -116 -56
q-53 0 -91.5 31t-38.5 109q0 83 46 122t123 39h78q4 0 4 4v46q0 56 -24.5 89t-68.5 33q-35 0 -60.5 -22t-29.5 -57q0 -10 -10 -10l-36 2q-11 0 -9 10q6 56 47 90t99 34zM185 39q45 0 77.5 29t32.5 82v95q0 4 -4 4h-78q-52 0 -83.5 -28.5t-31.5 -84.5q0 -49 24 -73t63 -24z
" />
    <glyph glyph-name="atilde" unicode="&#xe3;" horiz-adv-x="403" 
d="M163 649q-28 0 -46 -27q-6 -9 -14 -3l-12 9q-9 5 -4 13q27 48 73 48q23 0 56 -23l11 -7.5t12 -7.5t11 -4.5t13 -2.5q27 0 44 30q5 10 14 4l12 -8q8 -6 4 -14q-26 -50 -76 -50q-21 0 -53 22q-30 21 -45 21zM203 512q68 0 106.5 -45.5t38.5 -121.5v-335q0 -10 -10 -10h-33
q-10 0 -10 10v36q0 3 -1.5 3.5t-3.5 -1.5q-37 -56 -116 -56q-53 0 -91.5 31t-38.5 109q0 83 46 122t123 39h78q4 0 4 4v46q0 56 -24.5 89t-68.5 33q-35 0 -60.5 -22t-29.5 -57q0 -10 -10 -10l-36 2q-11 0 -9 10q6 56 47 90t99 34zM185 39q45 0 77.5 29t32.5 82v95q0 4 -4 4
h-78q-52 0 -83.5 -28.5t-31.5 -84.5q0 -49 24 -73t63 -24z" />
    <glyph glyph-name="adieresis" unicode="&#xe4;" horiz-adv-x="403" 
d="M141 609q-16 0 -27 11.5t-11 28.5t11 28.5t27 11.5t26 -11.5t10 -28.5t-10 -28.5t-26 -11.5zM263 609q-16 0 -27 11.5t-11 28.5t11 28.5t27 11.5t26 -11.5t10 -28.5t-10 -28.5t-26 -11.5zM203 512q68 0 106.5 -45.5t38.5 -121.5v-335q0 -10 -10 -10h-33q-10 0 -10 10v36
q0 3 -1.5 3.5t-3.5 -1.5q-37 -56 -116 -56q-53 0 -91.5 31t-38.5 109q0 83 46 122t123 39h78q4 0 4 4v46q0 56 -24.5 89t-68.5 33q-35 0 -60.5 -22t-29.5 -57q0 -10 -10 -10l-36 2q-11 0 -9 10q6 56 47 90t99 34zM185 39q45 0 77.5 29t32.5 82v95q0 4 -4 4h-78
q-52 0 -83.5 -28.5t-31.5 -84.5q0 -49 24 -73t63 -24z" />
    <glyph glyph-name="aring" unicode="&#xe5;" horiz-adv-x="403" 
d="M201 583q-41 0 -69.5 29.5t-28.5 71.5t28.5 71t69.5 29q42 0 70.5 -29t28.5 -71t-28.5 -71.5t-70.5 -29.5zM201 753q-27 0 -46.5 -20t-19.5 -49t19.5 -49t46.5 -20q28 0 47 20t19 49t-19 49t-47 20zM203 512q68 0 106.5 -45.5t38.5 -121.5v-335q0 -10 -10 -10h-33
q-10 0 -10 10v36q0 3 -1.5 3.5t-3.5 -1.5q-37 -56 -116 -56q-53 0 -91.5 31t-38.5 109q0 83 46 122t123 39h78q4 0 4 4v46q0 56 -24.5 89t-68.5 33q-35 0 -60.5 -22t-29.5 -57q0 -10 -10 -10l-36 2q-11 0 -9 10q6 56 47 90t99 34zM185 39q45 0 77.5 29t32.5 82v95q0 4 -4 4
h-78q-52 0 -83.5 -28.5t-31.5 -84.5q0 -49 24 -73t63 -24z" />
    <glyph glyph-name="ae" unicode="&#xe6;" horiz-adv-x="643" 
d="M173 -8q-129 0 -129 139q0 153 164 153h82q4 0 4 4v55q0 56 -24.5 89t-69.5 33q-35 0 -62 -22t-31 -57q-1 -9 -11 -9l-33 2q-11 0 -9 10q5 56 46.5 89.5t99.5 33.5q82 0 117 -73q3 -5 6 0q38 73 124 73q66 0 106.5 -42t40.5 -108v-114q0 -10 -10 -10h-230q-4 0 -4 -4v-90
q0 -45 27 -73.5t69 -28.5q34 0 59 20.5t34 53.5q3 9 11 8l32 -2q11 -2 9 -11q-9 -54 -47.5 -86.5t-95.5 -32.5q-47 0 -81.5 22.5t-46.5 57.5q-2 7 -4 1q-14 -38 -53 -59.5t-90 -21.5zM350 287q0 -4 4 -4h183q4 0 4 4v72q0 47 -26.5 76.5t-68.5 29.5q-43 0 -69.5 -29.5
t-26.5 -76.5v-72zM185 36q44 0 76.5 28t32.5 80v89q0 4 -4 4h-78q-53 0 -84 -25.5t-31 -78.5q0 -49 24.5 -73t63.5 -24z" />
    <glyph glyph-name="ccedilla" unicode="&#xe7;" horiz-adv-x="394" 
d="M352 370q0 -8 -10 -8l-33 -2q-10 0 -10 8v8q0 36 -27 62.5t-69 26.5t-68.5 -29.5t-26.5 -76.5v-215q0 -46 26.5 -75.5t68.5 -29.5t69 26.5t27 62.5v5q0 10 10 10h33q10 0 10 -9v-9q0 -49 -33.5 -86t-88.5 -45q-5 -2 -2 -5q52 -51 40 -115q-7 -40 -37 -51.5t-64 -4.5
q-8 1 -7 11l2 14q2 8 10 8q1 -1 4 -1q46 -6 53 38q8 49 -44 103q-2 2 -5 2q-57 7 -91 47.5t-34 101.5v220q0 66 41 108t107 42t107.5 -39.5t41.5 -94.5v-8z" />
    <glyph glyph-name="egrave" unicode="&#xe8;" horiz-adv-x="400" 
d="M221 598q7 -12 -7 -12h-24q-7 0 -12 7l-68 110q-7 12 6 12h31q7 0 12 -7zM352 243q0 -10 -10 -10h-230q-4 0 -4 -4v-85q0 -46 26.5 -75.5t68.5 -29.5q35 0 60 21t33 55q3 9 11 9l32 -2q4 0 7 -2t2 -6v-4q-10 -55 -48 -86.5t-97 -31.5q-66 0 -107 41.5t-41 107.5v221
q0 66 41 108t107 42q67 0 108 -42t41 -108v-119zM203 465q-42 0 -68.5 -29.5t-26.5 -76.5v-76q0 -4 4 -4h183q4 0 4 4v76q0 47 -26.5 76.5t-69.5 29.5z" />
    <glyph glyph-name="eacute" unicode="&#xe9;" horiz-adv-x="400" 
d="M270 715q14 0 7 -12l-69 -110q-5 -7 -12 -7h-24q-14 0 -7 12l62 110q5 7 12 7h31zM352 243q0 -10 -10 -10h-230q-4 0 -4 -4v-85q0 -46 26.5 -75.5t68.5 -29.5q35 0 60 21t33 55q3 9 11 9l32 -2q4 0 7 -2t2 -6v-4q-10 -55 -48 -86.5t-97 -31.5q-66 0 -107 41.5t-41 107.5
v221q0 66 41 108t107 42q67 0 108 -42t41 -108v-119zM203 465q-42 0 -68.5 -29.5t-26.5 -76.5v-76q0 -4 4 -4h183q4 0 4 4v76q0 47 -26.5 76.5t-69.5 29.5z" />
    <glyph glyph-name="ecircumflex" unicode="&#xea;" horiz-adv-x="400" 
d="M206 661q-1 1 -3 1t-3 -1l-47 -76q-5 -7 -12 -7h-31q-13 0 -6 12l66 102q5 7 12 7h40q8 0 12 -6l68 -103q3 -4 1 -8t-8 -4h-31q-7 0 -12 7zM352 243q0 -10 -10 -10h-230q-4 0 -4 -4v-85q0 -46 26.5 -75.5t68.5 -29.5q35 0 60 21t33 55q3 9 11 9l32 -2q4 0 7 -2t2 -6v-4
q-10 -55 -48 -86.5t-97 -31.5q-66 0 -107 41.5t-41 107.5v221q0 66 41 108t107 42q67 0 108 -42t41 -108v-119zM203 465q-42 0 -68.5 -29.5t-26.5 -76.5v-76q0 -4 4 -4h183q4 0 4 4v76q0 47 -26.5 76.5t-69.5 29.5z" />
    <glyph glyph-name="edieresis" unicode="&#xeb;" horiz-adv-x="400" 
d="M143 609q-16 0 -27 11.5t-11 28.5t11 28.5t27 11.5t26 -11.5t10 -28.5t-10 -28.5t-26 -11.5zM265 609q-16 0 -27 11.5t-11 28.5t11 28.5t27 11.5t26 -11.5t10 -28.5t-10 -28.5t-26 -11.5zM352 243q0 -10 -10 -10h-230q-4 0 -4 -4v-85q0 -46 26.5 -75.5t68.5 -29.5
q35 0 60 21t33 55q3 9 11 9l32 -2q4 0 7 -2t2 -6v-4q-10 -55 -48 -86.5t-97 -31.5q-66 0 -107 41.5t-41 107.5v221q0 66 41 108t107 42q67 0 108 -42t41 -108v-119zM203 465q-42 0 -68.5 -29.5t-26.5 -76.5v-76q0 -4 4 -4h183q4 0 4 4v76q0 47 -26.5 76.5t-69.5 29.5z" />
    <glyph glyph-name="igrave" unicode="&#xec;" horiz-adv-x="180" 
d="M107 599q7 -12 -7 -12h-24q-7 0 -12 7l-68 110q-7 12 6 12h31q7 0 12 -7zM72 0q-10 0 -10 10v484q0 10 10 10h33q10 0 10 -10v-484q0 -10 -10 -10h-33z" />
    <glyph glyph-name="iacute" unicode="&#xed;" horiz-adv-x="180" 
d="M58 587q-14 0 -7 12l62 110q5 7 12 7h31q14 0 7 -12l-69 -110q-5 -7 -12 -7h-24zM72 0q-10 0 -10 10v484q0 10 10 10h33q10 0 10 -10v-484q0 -10 -10 -10h-33z" />
    <glyph glyph-name="icircumflex" unicode="&#xee;" horiz-adv-x="180" 
d="M-4 579q-13 0 -6 12l66 102q5 7 12 7h40q8 0 12 -6l68 -103q3 -5 1 -8.5t-8 -3.5h-31q-7 0 -12 7l-46 76q-1 2 -3 2t-3 -2l-47 -76q-5 -7 -12 -7h-31zM72 0q-10 0 -10 10v484q0 10 10 10h33q10 0 10 -10v-484q0 -10 -10 -10h-33z" />
    <glyph glyph-name="idieresis" unicode="&#xef;" horiz-adv-x="180" 
d="M29 610q-16 0 -27 11.5t-11 28.5t11 28.5t27 11.5t26 -11.5t10 -28.5t-10 -28.5t-26 -11.5zM151 610q-16 0 -27 11.5t-11 28.5t11 28.5t27 11.5t26 -11.5t10 -28.5t-10 -28.5t-26 -11.5zM72 0q-10 0 -10 10v484q0 10 10 10h33q10 0 10 -10v-484q0 -10 -10 -10h-33z" />
    <glyph glyph-name="eth" unicode="&#xf0;" horiz-adv-x="428" 
d="M292 603q-3 -2 -2 -5q59 -100 63 -243v-107v-106q0 -67 -41 -108.5t-109 -41.5q-67 0 -107.5 41.5t-40.5 108.5v213q0 65 40 107t102 42q58 0 92 -39q3 -2 4 1q-10 61 -44 120q-2 4 -5 2l-73 -23q-10 -3 -13 7l-3 11q-2 9 7 12l62 20q4 2 2 5q-21 31 -58 68q-5 4 -3.5 8
t8.5 4h30q7 0 12 -5q36 -38 53 -63q2 -4 5 -2l82 25q10 3 13 -7l3 -11q2 -9 -7 -12zM300 352q0 46 -27 75.5t-70 29.5q-42 0 -68.5 -29.5t-26.5 -75.5v-208q0 -46 26.5 -75.5t68.5 -29.5q43 0 70 29.5t27 75.5v208z" />
    <glyph glyph-name="ntilde" unicode="&#xf1;" horiz-adv-x="418" 
d="M181 646q-24 0 -40 -26q-5 -10 -14 -3l-8 7q-7 7 -3 14q22 48 62 48q19 0 48 -23q3 -2 9.5 -7.5t10 -7.5t9.5 -4.5t11 -2.5q24 0 38 29q5 10 14 3l8 -6q7 -5 4 -13q-22 -51 -65 -51q-18 0 -46 22q-24 21 -38 21zM231 511q61 0 94 -41t33 -115v-345q0 -10 -10 -10h-33
q-10 0 -10 10v340q0 54 -23.5 84t-66.5 30q-44 0 -69.5 -32t-25.5 -88v-334q0 -10 -10 -10h-33q-10 0 -10 10v484q0 10 10 10h33q10 0 10 -10v-39q0 -3 2 -3t3 3q36 56 106 56z" />
    <glyph glyph-name="ograve" unicode="&#xf2;" horiz-adv-x="407" 
d="M221 598q7 -12 -7 -12h-24q-7 0 -12 7l-68 110q-7 12 6 12h31q7 0 12 -7zM203 -8q-66 0 -107 41.5t-41 107.5v221q0 66 41 108t107 42q68 0 109 -41.5t41 -108.5v-221q0 -66 -41 -107.5t-109 -41.5zM203 39q43 0 70 29.5t27 75.5v215q0 47 -27 76.5t-70 29.5
q-42 0 -68.5 -29.5t-26.5 -76.5v-215q0 -46 26.5 -75.5t68.5 -29.5z" />
    <glyph glyph-name="oacute" unicode="&#xf3;" horiz-adv-x="407" 
d="M172 586q-14 0 -7 12l62 110q5 7 12 7h31q14 0 7 -12l-69 -110q-5 -7 -12 -7h-24zM203 -8q-66 0 -107 41.5t-41 107.5v221q0 66 41 108t107 42q68 0 109 -41.5t41 -108.5v-221q0 -66 -41 -107.5t-109 -41.5zM203 39q43 0 70 29.5t27 75.5v215q0 47 -27 76.5t-70 29.5
q-42 0 -68.5 -29.5t-26.5 -76.5v-215q0 -46 26.5 -75.5t68.5 -29.5z" />
    <glyph glyph-name="ocircumflex" unicode="&#xf4;" horiz-adv-x="407" 
d="M110 578q-13 0 -6 12l66 102q5 7 12 7h40q8 0 12 -6l68 -103q3 -4 1 -8t-8 -4h-31q-7 0 -12 7l-46 76q-1 1 -3 1t-3 -1l-47 -76q-5 -7 -12 -7h-31zM203 -8q-66 0 -107 41.5t-41 107.5v221q0 66 41 108t107 42q68 0 109 -41.5t41 -108.5v-221q0 -66 -41 -107.5t-109 -41.5
zM203 39q43 0 70 29.5t27 75.5v215q0 47 -27 76.5t-70 29.5q-42 0 -68.5 -29.5t-26.5 -76.5v-215q0 -46 26.5 -75.5t68.5 -29.5z" />
    <glyph glyph-name="otilde" unicode="&#xf5;" horiz-adv-x="407" 
d="M263 606q-21 0 -53 22q-30 21 -45 21q-28 0 -46 -27q-6 -9 -14 -3l-12 9q-9 5 -4 13q27 48 73 48q23 0 56 -23l11 -7.5t12 -7.5t11 -4.5t13 -2.5q27 0 44 30q5 10 14 4l12 -8q9 -6 0 -20q-27 -44 -72 -44zM203 -8q-66 0 -107 41.5t-41 107.5v221q0 66 41 108t107 42
q68 0 109 -41.5t41 -108.5v-221q0 -66 -41 -107.5t-109 -41.5zM203 39q43 0 70 29.5t27 75.5v215q0 47 -27 76.5t-70 29.5q-42 0 -68.5 -29.5t-26.5 -76.5v-215q0 -46 26.5 -75.5t68.5 -29.5z" />
    <glyph glyph-name="odieresis" unicode="&#xf6;" horiz-adv-x="407" 
d="M143 609q-16 0 -27 11.5t-11 28.5t11 28.5t27 11.5t26 -11.5t10 -28.5t-10 -28.5t-26 -11.5zM265 609q-16 0 -27 11.5t-11 28.5t11 28.5t27 11.5t26 -11.5t10 -28.5t-10 -28.5t-26 -11.5zM203 -8q-66 0 -107 41.5t-41 107.5v221q0 66 41 108t107 42q68 0 109 -41.5
t41 -108.5v-221q0 -66 -41 -107.5t-109 -41.5zM203 39q43 0 70 29.5t27 75.5v215q0 47 -27 76.5t-70 29.5q-42 0 -68.5 -29.5t-26.5 -76.5v-215q0 -46 26.5 -75.5t68.5 -29.5z" />
    <glyph glyph-name="divide" unicode="&#xf7;" horiz-adv-x="443" 
d="M221 430q-20 0 -34.5 14t-14.5 34q0 19 14.5 33t34.5 14t34.5 -14t14.5 -33q0 -20 -14.5 -34t-34.5 -14zM44 307q-10 0 -10 10v23q0 10 10 10h354q10 0 10 -10v-23q0 -10 -10 -10h-354zM221 134q-20 0 -34.5 14t-14.5 34q0 19 14.5 33.5t34.5 14.5t34.5 -14.5t14.5 -33.5
t-14.5 -33.5t-34.5 -14.5z" />
    <glyph glyph-name="oslash" unicode="&#xf8;" horiz-adv-x="417" 
d="M331 459q-1 -2 1 -6q27 -36 27 -91v-221q0 -66 -41 -107.5t-109 -41.5q-47 0 -82 22q-5 2 -6 -2l-15 -31q-5 -9 -13 -4l-22 11q-10 6 -5 14l22 44q1 2 -1 6q-26 37 -26 89v221q0 66 41 108t107 42q48 0 84 -22q5 -2 6 2l16 34q5 9 13 4l21 -11q10 -6 5 -14zM114 144
q0 -9 2 -25q2 -4 5 -1l152 319q2 3 -2 5q-25 23 -62 23q-42 0 -68.5 -29.5t-26.5 -76.5v-215zM306 359q0 15 -3 27q-2 4 -5 1l-151 -321q-1 -4 1 -5q25 -22 61 -22q43 0 70 29.5t27 75.5v215z" />
    <glyph glyph-name="ugrave" unicode="&#xf9;" horiz-adv-x="418" 
d="M224 590q7 -12 -7 -12h-24q-7 0 -12 7l-68 110q-7 12 6 12h31q7 0 12 -7zM298 494q0 10 10 10h33q10 0 10 -10v-484q0 -10 -10 -10h-33q-10 0 -10 10v36q0 3 -2 3.5t-3 -1.5q-32 -55 -102 -55q-60 0 -95 36.5t-35 109.5v355q0 10 10 10h33q10 0 10 -10v-343
q0 -111 90 -111q44 0 69 32t25 88v334z" />
    <glyph glyph-name="uacute" unicode="&#xfa;" horiz-adv-x="418" 
d="M273 707q14 0 7 -12l-69 -110q-5 -7 -12 -7h-24q-14 0 -7 12l62 110q5 7 12 7h31zM298 494q0 10 10 10h33q10 0 10 -10v-484q0 -10 -10 -10h-33q-10 0 -10 10v36q0 3 -2 3.5t-3 -1.5q-32 -55 -102 -55q-60 0 -95 36.5t-35 109.5v355q0 10 10 10h33q10 0 10 -10v-343
q0 -111 90 -111q44 0 69 32t25 88v334z" />
    <glyph glyph-name="ucircumflex" unicode="&#xfb;" horiz-adv-x="418" 
d="M209 653q-1 1 -3 1t-3 -1l-47 -76q-5 -7 -12 -7h-31q-13 0 -6 12l66 102q5 7 12 7h40q7 0 12 -6l68 -103q3 -4 1 -8t-8 -4h-31q-7 0 -12 7zM298 494q0 10 10 10h33q10 0 10 -10v-484q0 -10 -10 -10h-33q-10 0 -10 10v36q0 3 -2 3.5t-3 -1.5q-32 -55 -102 -55
q-60 0 -95 36.5t-35 109.5v355q0 10 10 10h33q10 0 10 -10v-343q0 -111 90 -111q44 0 69 32t25 88v334z" />
    <glyph glyph-name="udieresis" unicode="&#xfc;" horiz-adv-x="418" 
d="M146 601q-16 0 -27 11.5t-11 28.5t11 28.5t27 11.5t26 -11.5t10 -28.5t-10 -28.5t-26 -11.5zM268 601q-16 0 -27 11.5t-11 28.5t11 28.5t27 11.5t26 -11.5t10 -28.5t-10 -28.5t-26 -11.5zM298 494q0 10 10 10h33q10 0 10 -10v-484q0 -10 -10 -10h-33q-10 0 -10 10v36
q0 3 -2 3.5t-3 -1.5q-32 -55 -102 -55q-60 0 -95 36.5t-35 109.5v355q0 10 10 10h33q10 0 10 -10v-343q0 -111 90 -111q44 0 69 32t25 88v334z" />
    <glyph glyph-name="yacute" unicode="&#xfd;" horiz-adv-x="353" 
d="M146 578q-14 0 -7 12l62 110q5 7 12 7h31q14 0 7 -12l-69 -110q-5 -7 -12 -7h-24zM45 -200q-6 0 -6 10v26q0 10 6 10h5q43 1 61 29t38 122v6l-128 490q-3 11 9 11h35q9 0 11 -9l99 -416q2 -8 4 0l98 416q1 9 11 9l36 -1q12 0 8 -11l-141 -543q-24 -93 -51 -121t-89 -28
h-6z" />
    <glyph glyph-name="thorn" unicode="&#xfe;" horiz-adv-x="411" 
d="M355 364q0 -18 0.5 -55t0.5 -55t-0.5 -56t-0.5 -57q-2 -66 -38.5 -107.5t-96.5 -41.5q-67 0 -101 52q-1 3 -3 2.5t-2 -3.5v-233q0 -10 -10 -10h-33q-10 0 -10 10v880q0 10 10 10h33q10 0 10 -10v-229q0 -3 2 -3.5t3 2.5q34 52 101 52q60 0 96.5 -41.5t38.5 -106.5z
M303 357q0 48 -27 78t-69 30q-41 0 -67 -30t-26 -78v-210q0 -48 26 -78t67 -30q43 0 69.5 30t26.5 78v210z" />
    <glyph glyph-name="ydieresis" unicode="&#xff;" horiz-adv-x="353" 
d="M117 601q-16 0 -27 11.5t-11 28.5t11 28.5t27 11.5t26 -11.5t10 -28.5t-10 -28.5t-26 -11.5zM239 601q-16 0 -27 11.5t-11 28.5t11 28.5t27 11.5t26 -11.5t10 -28.5t-10 -28.5t-26 -11.5zM45 -200q-6 0 -6 10v26q0 10 6 10h5q43 1 61 29t38 122v6l-128 490q-3 11 9 11h35
q9 0 11 -9l99 -416q2 -8 4 0l98 416q1 9 11 9l36 -1q12 0 8 -11l-141 -543q-24 -93 -51 -121t-89 -28h-6z" />
    <glyph glyph-name="Amacron" unicode="&#x100;" horiz-adv-x="443" 
d="M310 835q10 0 10 -10v-20q0 -10 -10 -10h-179q-10 0 -10 10v20q0 10 10 10h179zM362 0q-10 0 -11 9l-27 131q0 4 -5 4h-195q-5 0 -5 -4l-28 -131q-1 -9 -11 -9h-33q-11 0 -9 11l152 680q2 9 11 9h40q9 0 11 -9l153 -680q2 -11 -9 -11h-34zM130 192q-2 -4 3 -4h176
q3 0 3 4l-88 417q-2 8 -4 0z" />
    <glyph glyph-name="amacron" unicode="&#x101;" horiz-adv-x="403" 
d="M290 647q10 0 10 -10v-20q0 -10 -10 -10h-179q-10 0 -10 10v20q0 10 10 10h179zM203 512q68 0 106.5 -45.5t38.5 -121.5v-335q0 -10 -10 -10h-33q-10 0 -10 10v36q0 3 -1.5 3.5t-3.5 -1.5q-37 -56 -116 -56q-53 0 -91.5 31t-38.5 109q0 83 46 122t123 39h78q4 0 4 4v46
q0 56 -24.5 89t-68.5 33q-35 0 -60.5 -22t-29.5 -57q0 -10 -10 -10l-36 2q-11 0 -9 10q6 56 47 90t99 34zM185 39q45 0 77.5 29t32.5 82v95q0 4 -4 4h-78q-52 0 -83.5 -28.5t-31.5 -84.5q0 -49 24 -73t63 -24z" />
    <glyph glyph-name="Abreve" unicode="&#x102;" horiz-adv-x="443" 
d="M221 756q-40 0 -68.5 26t-32.5 66q0 10 10 10h15q10 0 11 -10q3 -26 21.5 -43t43.5 -17t43.5 17t21.5 43q1 10 11 10h15q10 0 10 -10q-4 -40 -32 -66t-69 -26zM362 0q-10 0 -11 9l-27 131q0 4 -5 4h-195q-5 0 -5 -4l-28 -131q-1 -9 -11 -9h-33q-11 0 -9 11l152 680
q2 9 11 9h40q9 0 11 -9l153 -680q2 -11 -9 -11h-34zM130 192q-2 -4 3 -4h176q3 0 3 4l-88 417q-2 8 -4 0z" />
    <glyph glyph-name="abreve" unicode="&#x103;" horiz-adv-x="403" 
d="M201 568q-40 0 -68.5 26t-32.5 66q0 10 10 10h15q10 0 11 -10q3 -26 21.5 -43t43.5 -17t43.5 17t21.5 43q1 10 11 10h15q10 0 10 -10q-4 -40 -32 -66t-69 -26zM203 512q68 0 106.5 -45.5t38.5 -121.5v-335q0 -10 -10 -10h-33q-10 0 -10 10v36q0 3 -1.5 3.5t-3.5 -1.5
q-37 -56 -116 -56q-53 0 -91.5 31t-38.5 109q0 83 46 122t123 39h78q4 0 4 4v46q0 56 -24.5 89t-68.5 33q-35 0 -60.5 -22t-29.5 -57q0 -10 -10 -10l-36 2q-11 0 -9 10q6 56 47 90t99 34zM185 39q45 0 77.5 29t32.5 82v95q0 4 -4 4h-78q-52 0 -83.5 -28.5t-31.5 -84.5
q0 -49 24 -73t63 -24z" />
    <glyph glyph-name="Aogonek" unicode="&#x104;" horiz-adv-x="463" 
d="M407 -149q10 3 12 -7l2 -14q1 -10 -7 -11q-34 -7 -64 4.5t-37 51.5q-12 67 45 120l5 5h-1q-10 0 -11 9l-27 131q0 4 -5 4h-195q-5 0 -5 -4l-28 -131q-1 -9 -11 -9h-33q-11 0 -9 11l152 680q2 9 11 9h40q9 0 11 -9l153 -680q2 -11 1 -11q-2 0 -4 -2q-58 -56 -50 -109
q6 -45 55 -38zM130 192q-2 -4 3 -4h176q3 0 3 4l-88 417q-2 8 -4 0z" />
    <glyph glyph-name="aogonek" unicode="&#x105;" horiz-adv-x="600" 
d="M351 -149q10 3 12 -7l2 -14q1 -10 -7 -11q-34 -7 -64 4.5t-37 51.5q-12 67 45 120l5 5h-2q-10 0 -10 10v36q0 3 -1.5 3.5t-3.5 -1.5q-37 -56 -116 -56q-53 0 -91.5 31t-38.5 109q0 83 46 122t123 39h78q4 0 4 4v46q0 56 -24.5 89t-68.5 33q-35 0 -60.5 -22t-29.5 -57
q0 -10 -10 -10l-36 2q-11 0 -9 10q6 56 47 90t99 34q68 0 106.5 -45.5t38.5 -121.5v-338q0 -5 -5 -12q-55 -53 -47 -106q6 -45 55 -38zM185 39q45 0 77.5 29t32.5 82v95q0 4 -4 4h-78q-52 0 -83.5 -28.5t-31.5 -84.5q0 -49 24 -73t63 -24z" />
    <glyph glyph-name="Cacute" unicode="&#x106;" horiz-adv-x="441" 
d="M192 782q-14 0 -7 12l62 110q5 7 12 7h31q14 0 7 -12l-69 -110q-5 -7 -12 -7h-24zM223 -8q-73 0 -117.5 45.5t-44.5 121.5v384q0 75 44.5 120t117.5 45q74 0 118.5 -45t44.5 -120v-19q0 -11 -10 -11l-33 -2q-10 0 -10 10v25q0 52 -30.5 83.5t-79.5 31.5t-79 -31.5
t-30 -83.5v-391q0 -52 30 -84t79 -32t79.5 32t30.5 84v23q0 10 10 10l33 -2q10 0 10 -10v-17q0 -76 -44.5 -121.5t-118.5 -45.5z" />
    <glyph glyph-name="cacute" unicode="&#x107;" horiz-adv-x="394" 
d="M172 586q-14 0 -7 12l62 110q5 7 12 7h31q14 0 7 -12l-69 -110q-5 -7 -12 -7h-24zM203 -8q-67 0 -107.5 41.5t-40.5 108.5v220q0 66 41 108t107 42t107.5 -39.5t41.5 -94.5v-6q0 -10 -10 -10l-33 -2q-10 0 -10 8v8q0 36 -27 62.5t-69 26.5t-68.5 -29.5t-26.5 -76.5v-215
q0 -46 26.5 -75.5t68.5 -29.5t69 26.5t27 62.5v5q0 10 10 10h33q10 0 10 -9v-9q0 -55 -41.5 -94t-107.5 -39z" />
    <glyph glyph-name="Cdotaccent" unicode="&#x10a;" horiz-adv-x="441" 
d="M223 788q-16 0 -26.5 11t-10.5 28t10.5 28t26.5 11q15 0 24.5 -11t9.5 -28t-9.5 -28t-24.5 -11zM223 -8q-73 0 -117.5 45.5t-44.5 121.5v384q0 75 44.5 120t117.5 45q74 0 118.5 -45t44.5 -120v-19q0 -11 -10 -11l-33 -2q-10 0 -10 10v25q0 52 -30.5 83.5t-79.5 31.5
t-79 -31.5t-30 -83.5v-391q0 -52 30 -84t79 -32t79.5 32t30.5 84v23q0 10 10 10l33 -2q10 0 10 -10v-17q0 -76 -44.5 -121.5t-118.5 -45.5z" />
    <glyph glyph-name="cdotaccent" unicode="&#x10b;" horiz-adv-x="394" 
d="M203 592q-16 0 -26.5 11t-10.5 28t10.5 28t26.5 11q15 0 24.5 -11t9.5 -28t-9.5 -28t-24.5 -11zM203 -8q-67 0 -107.5 41.5t-40.5 108.5v220q0 66 41 108t107 42t107.5 -39.5t41.5 -94.5v-6q0 -10 -10 -10l-33 -2q-10 0 -10 8v8q0 36 -27 62.5t-69 26.5t-68.5 -29.5
t-26.5 -76.5v-215q0 -46 26.5 -75.5t68.5 -29.5t69 26.5t27 62.5v5q0 10 10 10h33q10 0 10 -9v-9q0 -55 -41.5 -94t-107.5 -39z" />
    <glyph glyph-name="Ccaron" unicode="&#x10c;" horiz-adv-x="441" 
d="M203 771q-7 0 -12 7l-66 102q-7 12 6 12h30q7 0 12 -7l48 -77q1 -2 3 -2t3 2l47 77q5 7 12 7h28q13 0 6 -12l-67 -102q-5 -7 -12 -7h-38zM223 -8q-73 0 -117.5 45.5t-44.5 121.5v384q0 75 44.5 120t117.5 45q74 0 118.5 -45t44.5 -120v-19q0 -11 -10 -11l-33 -2
q-10 0 -10 10v25q0 52 -30.5 83.5t-79.5 31.5t-79 -31.5t-30 -83.5v-391q0 -52 30 -84t79 -32t79.5 32t30.5 84v23q0 10 10 10l33 -2q10 0 10 -10v-17q0 -76 -44.5 -121.5t-118.5 -45.5z" />
    <glyph glyph-name="ccaron" unicode="&#x10d;" horiz-adv-x="394" 
d="M183 575q-7 0 -12 7l-66 102q-7 12 6 12h30q7 0 12 -7l48 -77q1 -2 3 -2t3 2l47 77q5 7 12 7h28q13 0 6 -12l-67 -102q-5 -7 -12 -7h-38zM203 -8q-67 0 -107.5 41.5t-40.5 108.5v220q0 66 41 108t107 42t107.5 -39.5t41.5 -94.5v-6q0 -10 -10 -10l-33 -2q-10 0 -10 8v8
q0 36 -27 62.5t-69 26.5t-68.5 -29.5t-26.5 -76.5v-215q0 -46 26.5 -75.5t68.5 -29.5t69 26.5t27 62.5v5q0 10 10 10h33q10 0 10 -9v-9q0 -55 -41.5 -94t-107.5 -39z" />
    <glyph glyph-name="Dcaron" unicode="&#x10e;" horiz-adv-x="463" 
d="M209 760q-7 0 -12 7l-66 102q-7 12 6 12h30q7 0 12 -7l48 -77q1 -1 3 -1t3 1l47 77q5 7 12 7h28q13 0 6 -12l-67 -102q-5 -7 -12 -7h-38zM89 0q-10 0 -10 10v680q0 10 10 10h147q74 0 117 -49.5t43 -134.5v-332q0 -85 -43 -134.5t-117 -49.5h-147zM132 51q0 -4 4 -4h100
q49 1 77.5 37.5t28.5 100.5v329q0 65 -28.5 102t-78.5 37h-99q-4 0 -4 -4v-598z" />
    <glyph glyph-name="dcaron" unicode="&#x10f;" horiz-adv-x="535" 
d="M478 700q5 7 12 7h31q14 0 7 -12l-69 -110q-5 -7 -12 -7h-24q-14 0 -7 12zM292 460q2 -3 3.5 -2.5t1.5 3.5v229q0 10 10 10h33q10 0 10 -10v-680q0 -10 -10 -10h-33q-10 0 -10 10v33q0 3 -1.5 3.5t-3.5 -2.5q-34 -52 -101 -52q-60 0 -96.5 41.5t-38.5 107.5q0 19 -0.5 57
t-0.5 56t0.5 55t0.5 55q2 65 38.5 106.5t96.5 41.5q67 0 101 -52zM204 39q41 0 67 30t26 78v210q0 48 -26 78t-67 30q-42 0 -69 -30t-27 -78v-210q0 -48 26.5 -78t69.5 -30z" />
    <glyph glyph-name="Dcroat" unicode="&#x110;" horiz-adv-x="509" 
d="M282 700q74 0 117 -49.5t43 -134.5v-332q0 -85 -43 -134.5t-117 -49.5h-147q-10 0 -10 10v333q0 4 -4 4h-32q-10 0 -10 10v17q0 10 10 10h32q4 0 4 4v302q0 10 10 10h147zM388 185v329q0 65 -28.5 102t-78.5 37h-99q-4 0 -4 -4v-261q0 -4 4 -4h85q10 0 10 -10v-17
q0 -10 -10 -10h-85q-4 0 -4 -4v-292q0 -4 4 -4h100q49 1 77.5 37.5t28.5 100.5z" />
    <glyph glyph-name="dcroat" unicode="&#x111;" horiz-adv-x="600" 
d="M392 608q10 0 10 -10v-17q0 -10 -10 -10h-38q-4 0 -4 -4v-557q0 -10 -10 -10h-33q-10 0 -10 10v33q0 3 -1.5 3.5t-3.5 -2.5q-34 -52 -101 -52q-60 0 -96.5 41.5t-38.5 107.5q0 19 -0.5 57t-0.5 56t0.5 55t0.5 55q2 65 38.5 106.5t96.5 41.5q67 0 101 -52q2 -3 3.5 -2.5
t1.5 3.5v106q0 4 -4 4h-146q-10 0 -10 10v17q0 10 10 10h146q4 0 4 4v78q0 10 10 10h33q10 0 10 -10v-78q0 -4 4 -4h38zM204 39q41 0 67 30t26 78v210q0 48 -26 78t-67 30q-42 0 -69 -30t-27 -78v-210q0 -48 26.5 -78t69.5 -30z" />
    <glyph glyph-name="Emacron" unicode="&#x112;" horiz-adv-x="427" 
d="M320 846q10 0 10 -10v-20q0 -10 -10 -10h-179q-10 0 -10 10v20q0 10 10 10h179zM383 663q0 -10 -10 -10h-237q-4 0 -4 -4v-271q0 -4 4 -4h152q10 0 10 -10v-27q0 -10 -10 -10h-152q-4 0 -4 -4v-272q0 -4 4 -4h237q10 0 10 -10v-27q0 -10 -10 -10h-284q-10 0 -10 10v680
q0 10 10 10h284q10 0 10 -10v-27z" />
    <glyph glyph-name="emacron" unicode="&#x113;" horiz-adv-x="400" 
d="M292 647q10 0 10 -10v-20q0 -10 -10 -10h-179q-10 0 -10 10v20q0 10 10 10h179zM352 243q0 -10 -10 -10h-230q-4 0 -4 -4v-85q0 -46 26.5 -75.5t68.5 -29.5q35 0 60 21t33 55q3 9 11 9l32 -2q4 0 7 -2t2 -6v-4q-10 -55 -48 -86.5t-97 -31.5q-66 0 -107 41.5t-41 107.5
v221q0 66 41 108t107 42q67 0 108 -42t41 -108v-119zM203 465q-42 0 -68.5 -29.5t-26.5 -76.5v-76q0 -4 4 -4h183q4 0 4 4v76q0 47 -26.5 76.5t-69.5 29.5z" />
    <glyph glyph-name="Edotaccent" unicode="&#x116;" horiz-adv-x="427" 
d="M231 791q-16 0 -26.5 11t-10.5 28t10.5 28t26.5 11q15 0 24.5 -11t9.5 -28t-9.5 -28t-24.5 -11zM383 663q0 -10 -10 -10h-237q-4 0 -4 -4v-271q0 -4 4 -4h152q10 0 10 -10v-27q0 -10 -10 -10h-152q-4 0 -4 -4v-272q0 -4 4 -4h237q10 0 10 -10v-27q0 -10 -10 -10h-284
q-10 0 -10 10v680q0 10 10 10h284q10 0 10 -10v-27z" />
    <glyph glyph-name="edotaccent" unicode="&#x117;" horiz-adv-x="400" 
d="M203 592q-16 0 -26.5 11t-10.5 28t10.5 28t26.5 11q15 0 24.5 -11t9.5 -28t-9.5 -28t-24.5 -11zM352 243q0 -10 -10 -10h-230q-4 0 -4 -4v-85q0 -46 26.5 -75.5t68.5 -29.5q35 0 60 21t33 55q3 9 11 9l32 -2q4 0 7 -2t2 -6v-4q-10 -55 -48 -86.5t-97 -31.5
q-66 0 -107 41.5t-41 107.5v221q0 66 41 108t107 42q67 0 108 -42t41 -108v-119zM203 465q-42 0 -68.5 -29.5t-26.5 -76.5v-76q0 -4 4 -4h183q4 0 4 4v76q0 47 -26.5 76.5t-69.5 29.5z" />
    <glyph glyph-name="Eogonek" unicode="&#x118;" horiz-adv-x="427" 
d="M383 663q0 -10 -10 -10h-237q-4 0 -4 -4v-271q0 -4 4 -4h152q10 0 10 -10v-27q0 -10 -10 -10h-152q-4 0 -4 -4v-272q0 -4 4 -4h237q10 0 10 -10v-27q0 -10 -10 -10h-122q-3 0 -5 -2q-52 -54 -44 -103q6 -45 55 -38q10 3 12 -7l2 -14q1 -10 -7 -11q-34 -7 -64 4.5
t-37 51.5q-12 63 39 114q3 5 -2 5h-111q-10 0 -10 10v680q0 10 10 10h284q10 0 10 -10v-27z" />
    <glyph glyph-name="eogonek" unicode="&#x119;" horiz-adv-x="400" 
d="M352 243q0 -10 -10 -10h-230q-4 0 -4 -4v-85q0 -46 26.5 -75.5t68.5 -29.5q35 0 60 21t33 55q3 9 11 9l33 -2q11 0 9 -10q-9 -49 -41 -80.5t-81 -38.5q-3 0 -5 -2q-53 -53 -45 -104q6 -45 55 -38q10 3 12 -7l2 -14q1 -10 -7 -11q-34 -7 -64 4.5t-37 51.5q-12 64 41 116
q3 3 -2 5q-56 7 -89 47.5t-33 99.5v221q0 66 41 108t107 42q67 0 108 -42t41 -108v-119zM203 465q-42 0 -68.5 -29.5t-26.5 -76.5v-76q0 -4 4 -4h183q4 0 4 4v76q0 47 -26.5 76.5t-69.5 29.5z" />
    <glyph glyph-name="Ecaron" unicode="&#x11a;" horiz-adv-x="427" 
d="M261 781q-5 -7 -12 -7h-38q-7 0 -12 7l-66 102q-7 12 6 12h30q7 0 12 -7l48 -77q1 -1 3 -1t3 1l47 77q5 7 12 7h28q13 0 6 -12zM383 663q0 -10 -10 -10h-237q-4 0 -4 -4v-271q0 -4 4 -4h152q10 0 10 -10v-27q0 -10 -10 -10h-152q-4 0 -4 -4v-272q0 -4 4 -4h237
q10 0 10 -10v-27q0 -10 -10 -10h-284q-10 0 -10 10v680q0 10 10 10h284q10 0 10 -10v-27z" />
    <glyph glyph-name="ecaron" unicode="&#x11b;" horiz-adv-x="400" 
d="M233 574q-5 -7 -12 -7h-38q-7 0 -12 7l-66 102q-7 12 6 12h30q7 0 12 -7l48 -77q1 -2 3 -2t3 2l47 77q5 7 12 7h28q13 0 6 -12zM352 243q0 -10 -10 -10h-230q-4 0 -4 -4v-85q0 -46 26.5 -75.5t68.5 -29.5q35 0 60 21t33 55q3 9 11 9l32 -2q4 0 7 -2t2 -6v-4
q-10 -55 -48 -86.5t-97 -31.5q-66 0 -107 41.5t-41 107.5v221q0 66 41 108t107 42q67 0 108 -42t41 -108v-119zM203 465q-42 0 -68.5 -29.5t-26.5 -76.5v-76q0 -4 4 -4h183q4 0 4 4v76q0 47 -26.5 76.5t-69.5 29.5z" />
    <glyph glyph-name="Gbreve" unicode="&#x11e;" horiz-adv-x="440" 
d="M223 764q-40 0 -68.5 26t-32.5 66q0 10 10 10h15q10 0 11 -10q3 -26 21.5 -43t43.5 -17t43.5 17t21.5 43q1 10 11 10h15q10 0 10 -10q-4 -40 -32 -66t-69 -26zM223 -8q-73 0 -117.5 44.5t-44.5 117.5v392q0 73 44.5 117.5t117.5 44.5t118 -44.5t45 -117.5v-44
q0 -10 -10 -10h-33q-10 0 -10 10v45q0 52 -30 83t-80 31t-80 -31t-30 -83v-394q0 -52 30 -83t80 -31t80 31t30 83v141q0 4 -4 4h-94q-10 0 -10 10v27q0 10 10 10h141q10 0 10 -10v-181q0 -73 -45 -117.5t-118 -44.5z" />
    <glyph glyph-name="gbreve" unicode="&#x11f;" horiz-adv-x="406" 
d="M203 567q-40 0 -68.5 26t-32.5 66q0 10 10 10h15q10 0 11 -10q3 -26 21.5 -43t43.5 -17t43.5 17t21.5 43q1 10 11 10h15q10 0 10 -10q-4 -40 -32 -66t-69 -26zM297 494q0 10 10 10h34q10 0 10 -10v-488q0 -103 -47 -157t-151 -50q-10 0 -10 10v27q0 10 10 10
q77 -1 110.5 40.5t33.5 123.5v38q0 3 -1.5 3.5t-3.5 -2.5q-34 -54 -102 -54q-62 0 -98.5 41.5t-36.5 108.5v217q0 67 36.5 108.5t98.5 41.5q69 0 102 -54q3 -3 5 1v35zM204 42q41 0 67 29t26 76v212q0 47 -26 76.5t-67 29.5q-42 0 -69 -29.5t-27 -76.5v-212q0 -46 27 -75.5
t69 -29.5z" />
    <glyph glyph-name="Gdotaccent" unicode="&#x120;" horiz-adv-x="440" 
d="M223 788q-16 0 -26.5 11t-10.5 28t10.5 28t26.5 11q15 0 24.5 -11t9.5 -28t-9.5 -28t-24.5 -11zM223 -8q-73 0 -117.5 44.5t-44.5 117.5v392q0 73 44.5 117.5t117.5 44.5t118 -44.5t45 -117.5v-44q0 -10 -10 -10h-33q-10 0 -10 10v45q0 52 -30 83t-80 31t-80 -31t-30 -83
v-394q0 -52 30 -83t80 -31t80 31t30 83v141q0 4 -4 4h-94q-10 0 -10 10v27q0 10 10 10h141q10 0 10 -10v-181q0 -73 -45 -117.5t-118 -44.5z" />
    <glyph glyph-name="gdotaccent" unicode="&#x121;" horiz-adv-x="406" 
d="M203 591q-16 0 -26.5 11t-10.5 28t10.5 28t26.5 11q15 0 24.5 -11t9.5 -28t-9.5 -28t-24.5 -11zM297 494q0 10 10 10h34q10 0 10 -10v-488q0 -103 -47 -157t-151 -50q-10 0 -10 10v27q0 10 10 10q77 -1 110.5 40.5t33.5 123.5v38q0 3 -1.5 3.5t-3.5 -2.5
q-34 -54 -102 -54q-62 0 -98.5 41.5t-36.5 108.5v217q0 67 36.5 108.5t98.5 41.5q69 0 102 -54q3 -3 5 1v35zM204 42q41 0 67 29t26 76v212q0 47 -26 76.5t-67 29.5q-42 0 -69 -29.5t-27 -76.5v-212q0 -46 27 -75.5t69 -29.5z" />
    <glyph glyph-name="uni0122" unicode="&#x122;" horiz-adv-x="440" 
d="M223 -8q-73 0 -117.5 44.5t-44.5 117.5v392q0 73 44.5 117.5t117.5 44.5t118 -44.5t45 -117.5v-44q0 -10 -10 -10h-33q-10 0 -10 10v45q0 52 -30 83t-80 31t-80 -31t-30 -83v-394q0 -52 30 -83t80 -31t80 31t30 83v141q0 4 -4 4h-94q-10 0 -10 10v27q0 10 10 10h141
q10 0 10 -10v-181q0 -73 -45 -117.5t-118 -44.5zM190 -195q-14 0 -7 12l62 110q5 7 12 7h31q14 0 7 -12l-69 -110q-5 -7 -12 -7h-24z" />
    <glyph glyph-name="uni0123" unicode="&#x123;" horiz-adv-x="406" 
d="M233 698q14 0 7 -12l-62 -110q-5 -7 -12 -7h-31q-14 0 -7 12l69 110q5 7 12 7h24zM297 494q0 10 10 10h34q10 0 10 -10v-488q0 -103 -47 -157t-151 -50q-10 0 -10 10v27q0 10 10 10q77 -1 110.5 40.5t33.5 123.5v38q0 3 -1.5 3.5t-3.5 -2.5q-34 -54 -102 -54
q-62 0 -98.5 41.5t-36.5 108.5v217q0 67 36.5 108.5t98.5 41.5q69 0 102 -54q3 -3 5 1v35zM204 42q41 0 67 29t26 76v212q0 47 -26 76.5t-67 29.5q-42 0 -69 -29.5t-27 -76.5v-212q0 -46 27 -75.5t69 -29.5z" />
    <glyph glyph-name="Hbar" unicode="&#x126;" horiz-adv-x="470" 
d="M429 549q10 0 10 -10v-21q0 -10 -10 -10h-34q-4 0 -4 -4v-494q0 -10 -10 -10h-33q-10 0 -10 10v313q0 4 -4 4h-198q-4 0 -4 -4v-313q0 -10 -10 -10h-33q-10 0 -10 10v494q0 4 -4 4h-34q-10 0 -10 10v21q0 10 10 10h34q4 0 4 4v137q0 10 10 10h33q10 0 10 -10v-137
q0 -4 4 -4h198q4 0 4 4v137q0 10 10 10h33q10 0 10 -10v-137q0 -4 4 -4h34zM334 374q4 0 4 4v126q0 4 -4 4h-198q-4 0 -4 -4v-126q0 -4 4 -4h198z" />
    <glyph glyph-name="hbar" unicode="&#x127;" horiz-adv-x="418" 
d="M231 511q61 0 94 -41t33 -115v-345q0 -10 -10 -10h-33q-10 0 -10 10v340q0 54 -23.5 84t-66.5 30q-44 0 -69.5 -32t-25.5 -88v-334q0 -10 -10 -10h-33q-10 0 -10 10v541q0 4 -4 4h-43q-10 0 -10 10v17q0 10 10 10h43q4 0 4 4v94q0 10 10 10h33q10 0 10 -10v-94q0 -4 4 -4
h141q10 0 10 -10v-17q0 -10 -10 -10h-141q-4 0 -4 -4v-96q0 -3 2 -3t3 3q36 56 106 56z" />
    <glyph glyph-name="Imacron" unicode="&#x12a;" horiz-adv-x="211" 
d="M15 806q-10 0 -10 10v20q0 10 10 10h179q10 0 10 -10v-20q0 -10 -10 -10h-179zM89 0q-10 0 -10 10v680q0 10 10 10h33q10 0 10 -10v-680q0 -10 -10 -10h-33z" />
    <glyph glyph-name="imacron" unicode="&#x12b;" horiz-adv-x="180" 
d="M-1 608q-10 0 -10 10v20q0 10 10 10h179q10 0 10 -10v-20q0 -10 -10 -10h-179zM72 0q-10 0 -10 10v484q0 10 10 10h33q10 0 10 -10v-484q0 -10 -10 -10h-33z" />
    <glyph glyph-name="Iogonek" unicode="&#x12e;" horiz-adv-x="274" 
d="M178 -149q10 3 12 -7l2 -14q1 -10 -7 -11q-34 -7 -64 4.5t-37 51.5q-12 67 45 120q5 5 4 5h-2q-10 0 -10 10v680q0 10 10 10h33q10 0 10 -10v-690l-4 -5q-55 -53 -47 -106q6 -45 55 -38z" />
    <glyph glyph-name="iogonek" unicode="&#x12f;" horiz-adv-x="231" 
d="M128 594q-16 0 -26.5 11t-10.5 28t10.5 28t26.5 11q15 0 24.5 -11t9.5 -28t-9.5 -28t-24.5 -11zM156 -149q10 3 12 -7l2 -14q1 -10 -7 -11q-34 -7 -64 4.5t-37 51.5q-12 67 45 120l5 5h-1q-10 0 -10 10v484q0 10 10 10h33q10 0 10 -10v-487v-7q-2 -1 -3 -2
q-58 -56 -50 -109q6 -45 55 -38z" />
    <glyph glyph-name="Idotaccent" unicode="&#x130;" horiz-adv-x="211" 
d="M105 791q-16 0 -26.5 11t-10.5 28t10.5 28t26.5 11q15 0 24.5 -11t9.5 -28t-9.5 -28t-24.5 -11zM89 0q-10 0 -10 10v680q0 10 10 10h33q10 0 10 -10v-680q0 -10 -10 -10h-33z" />
    <glyph glyph-name="dotlessi" unicode="&#x131;" horiz-adv-x="180" 
d="M72 0q-10 0 -10 10v484q0 10 10 10h33q10 0 10 -10v-484q0 -10 -10 -10h-33z" />
    <glyph glyph-name="ij" unicode="&#x133;" horiz-adv-x="379" 
d="M286 605q-18 0 -29 12t-11 32t11.5 32t28.5 12q18 0 30 -12t12 -32t-11.5 -32t-30.5 -12zM98 605q-17 0 -29 12.5t-12 31.5t12 31t29 12q18 0 29 -12t11 -31q0 -20 -11 -32t-29 -12zM82 0q-10 0 -10 10v484q0 10 10 10h33q10 0 10 -10v-484q0 -10 -10 -10h-33zM180 -209
q-10 0 -10 10v27q0 10 10 10q40 2 60 30.5t20 76.5v549q0 10 10 10h33q10 0 10 -10v-549q0 -75 -30 -114t-103 -40z" />
    <glyph glyph-name="uni0136" unicode="&#x136;" horiz-adv-x="442" 
d="M89 0q-10 0 -10 10v680q0 10 10 10h33q10 0 10 -10v-343q0 -3 2 -3.5t3 2.5l209 347q5 7 12 7h38q14 0 7 -12l-158 -266q-3 -3 -1 -6l175 -404q5 -12 -8 -12h-38q-8 0 -11 8l-154 360q-1 4 -5 0l-70 -107q-1 -1 -1 -5v-246q0 -10 -10 -10h-33zM213 -187q-14 0 -7 12
l62 110q5 7 12 7h31q14 0 7 -12l-69 -110q-5 -7 -12 -7h-24z" />
    <glyph glyph-name="uni0137" unicode="&#x137;" horiz-adv-x="394" 
d="M77 0q-10 0 -10 10v680q0 10 10 10h33q10 0 10 -10v-420q0 -2 2 -2.5t3 1.5l165 229q4 6 12 6h35q6 0 8 -4t-2 -8l-97 -136q-2 -2 -1 -5l117 -340q3 -11 -8 -11h-35q-9 0 -12 8l-95 297q-1 6 -6 1l-84 -116q-2 -2 -2 -5v-175q0 -10 -10 -10h-33zM179 -187q-14 0 -7 12
l62 110q5 7 12 7h31q14 0 7 -12l-69 -110q-5 -7 -12 -7h-24z" />
    <glyph glyph-name="Lacute" unicode="&#x139;" horiz-adv-x="388" 
d="M73 774q-14 0 -7 12l62 110q5 7 12 7h31q14 0 7 -12l-69 -110q-5 -7 -12 -7h-24zM89 0q-10 0 -10 10v680q0 10 10 10h33q10 0 10 -10v-639q0 -4 4 -4h234q10 0 10 -10v-27q0 -10 -10 -10h-281z" />
    <glyph glyph-name="lacute" unicode="&#x13a;" horiz-adv-x="174" 
d="M57 774q-14 0 -7 12l62 110q5 7 12 7h31q14 0 7 -12l-69 -110q-5 -7 -12 -7h-24zM71 0q-10 0 -10 10v680q0 10 10 10h33q10 0 10 -10v-680q0 -10 -10 -10h-33z" />
    <glyph glyph-name="uni013B" unicode="&#x13b;" horiz-adv-x="388" 
d="M89 0q-10 0 -10 10v680q0 10 10 10h33q10 0 10 -10v-639q0 -4 4 -4h234q10 0 10 -10v-27q0 -10 -10 -10h-281zM167 -187q-14 0 -7 12l62 110q5 7 12 7h31q14 0 7 -12l-69 -110q-5 -7 -12 -7h-24z" />
    <glyph glyph-name="uni013C" unicode="&#x13c;" horiz-adv-x="174" 
d="M71 0q-10 0 -10 10v680q0 10 10 10h33q10 0 10 -10v-680q0 -10 -10 -10h-33zM0 -187q-14 0 -7 12l62 110q5 7 12 7h31q14 0 7 -12l-69 -110q-5 -7 -12 -7h-24z" />
    <glyph glyph-name="Lcaron" unicode="&#x13d;" horiz-adv-x="388" 
d="M84 755q-7 0 -12 7l-66 102q-7 12 6 12h30q7 0 12 -7l48 -77q1 -2 3 -2t3 2l47 77q5 7 12 7h28q13 0 6 -12l-67 -102q-5 -7 -12 -7h-38zM89 0q-10 0 -10 10v680q0 10 10 10h33q10 0 10 -10v-639q0 -4 4 -4h234q10 0 10 -10v-27q0 -10 -10 -10h-281z" />
    <glyph glyph-name="lcaron" unicode="&#x13e;" horiz-adv-x="174" 
d="M68 755q-7 0 -12 7l-66 102q-7 12 6 12h30q7 0 12 -7l48 -77q1 -2 3 -2t3 2l47 77q5 7 12 7h28q13 0 6 -12l-67 -102q-5 -7 -12 -7h-38zM71 0q-10 0 -10 10v680q0 10 10 10h33q10 0 10 -10v-680q0 -10 -10 -10h-33z" />
    <glyph glyph-name="Lslash" unicode="&#x141;" horiz-adv-x="388" 
d="M132 51q0 -4 4 -4h234q10 0 10 -10v-27q0 -10 -10 -10h-281q-10 0 -10 10v247q0 2 -1.5 3t-3.5 0l-74 -52q-8 -6 -14 2l-15 18q-6 8 2 14l103 73q3 3 3 5v370q0 10 10 10h33q10 0 10 -10v-330q0 -2 2 -3t3 0l169 120q8 6 14 -2l15 -20q5 -8 -2 -14l-198 -139q-3 -3 -3 -5
v-246z" />
    <glyph glyph-name="lslash" unicode="&#x142;" horiz-adv-x="174" 
d="M211 390q5 -8 -4 -14l-90 -54q-3 -2 -3 -5v-307q0 -10 -10 -10h-33q-10 0 -10 10v273q0 5 -5 3l-40 -24q-9 -6 -14 4l-12 19q-4 9 4 14l64 38q3 1 3 5v348q0 10 10 10h33q10 0 10 -10v-313q0 -5 5 -3l66 40q9 6 14 -4z" />
    <glyph glyph-name="Nacute" unicode="&#x143;" horiz-adv-x="488" 
d="M213 785q-14 0 -7 12l62 110q5 7 12 7h31q14 0 7 -12l-69 -110q-5 -7 -12 -7h-24zM89 0q-10 0 -10 10v680q0 10 10 10h35q8 0 11 -8l217 -549q1 -3 3 -2.5t2 3.5v546q0 10 10 10h32q10 0 10 -10v-680q0 -10 -10 -10h-35q-8 0 -11 8l-217 550q-1 3 -3 2.5t-2 -3.5l1 -547
q0 -10 -10 -10h-33z" />
    <glyph glyph-name="nacute" unicode="&#x144;" horiz-adv-x="418" 
d="M280 712q14 0 7 -12l-69 -110q-5 -7 -12 -7h-24q-14 0 -7 12l62 110q5 7 12 7h31zM231 511q61 0 94 -41t33 -115v-345q0 -10 -10 -10h-33q-10 0 -10 10v340q0 54 -23.5 84t-66.5 30q-44 0 -69.5 -32t-25.5 -88v-334q0 -10 -10 -10h-33q-10 0 -10 10v484q0 10 10 10h33
q10 0 10 -10v-39q0 -3 2 -3t3 3q36 56 106 56z" />
    <glyph glyph-name="uni0145" unicode="&#x145;" horiz-adv-x="488" 
d="M89 0q-10 0 -10 10v680q0 10 10 10h35q8 0 11 -8l217 -549q1 -3 3 -2.5t2 3.5v546q0 10 10 10h32q10 0 10 -10v-680q0 -10 -10 -10h-35q-8 0 -11 8l-217 550q-1 3 -3 2.5t-2 -3.5l1 -547q0 -10 -10 -10h-33zM214 -187q-14 0 -7 12l62 110q5 7 12 7h31q14 0 7 -12
l-69 -110q-5 -7 -12 -7h-24z" />
    <glyph glyph-name="uni0146" unicode="&#x146;" horiz-adv-x="418" 
d="M231 511q61 0 94 -41t33 -115v-345q0 -10 -10 -10h-33q-10 0 -10 10v340q0 54 -23.5 84t-66.5 30q-44 0 -69.5 -32t-25.5 -88v-334q0 -10 -10 -10h-33q-10 0 -10 10v484q0 10 10 10h33q10 0 10 -10v-39q0 -3 2 -3t3 3q36 56 106 56zM186 -187q-14 0 -7 12l62 110
q5 7 12 7h31q14 0 7 -12l-69 -110q-5 -7 -12 -7h-24z" />
    <glyph glyph-name="Ncaron" unicode="&#x147;" horiz-adv-x="488" 
d="M224 774q-7 0 -12 7l-66 102q-7 12 6 12h30q7 0 12 -7l48 -77q1 -1 3 -1t3 1l47 77q5 7 12 7h28q13 0 6 -12l-67 -102q-5 -7 -12 -7h-38zM89 0q-10 0 -10 10v680q0 10 10 10h35q8 0 11 -8l217 -549q1 -3 3 -2.5t2 3.5v546q0 10 10 10h32q10 0 10 -10v-680q0 -10 -10 -10
h-35q-8 0 -11 8l-217 550q-1 3 -3 2.5t-2 -3.5l1 -547q0 -10 -10 -10h-33z" />
    <glyph glyph-name="ncaron" unicode="&#x148;" horiz-adv-x="418" 
d="M243 579q-5 -7 -12 -7h-38q-7 0 -12 7l-66 102q-7 12 6 12h30q7 0 12 -7l48 -77q1 -1 3 -1t3 1l47 77q5 7 12 7h28q13 0 6 -12zM231 511q61 0 94 -41t33 -115v-345q0 -10 -10 -10h-33q-10 0 -10 10v340q0 54 -23.5 84t-66.5 30q-44 0 -69.5 -32t-25.5 -88v-334
q0 -10 -10 -10h-33q-10 0 -10 10v484q0 10 10 10h33q10 0 10 -10v-39q0 -3 2 -3t3 3q36 56 106 56z" />
    <glyph glyph-name="Eng" unicode="&#x14a;" horiz-adv-x="488" 
d="M357 690q0 10 10 10h32q10 0 10 -10v-690q0 -41 -2.5 -62t-13 -43.5t-34.5 -32t-64 -10.5q-10 0 -10 10v27q0 10 10 10q21 1 33.5 7t17.5 21t6 27t1 40v13q0 2 -1 3l-216 548q-1 3 -3 2.5t-2 -3.5l1 -547q0 -10 -10 -10h-33q-10 0 -10 10v680q0 10 10 10h35q8 0 11 -8
l213 -539q1 -3 3 -2.5t2 3.5v345q0 10 2 10t2 4v177z" />
    <glyph glyph-name="eng" unicode="&#x14b;" horiz-adv-x="418" 
d="M358 355v-349v-6q-1 -1 -1 -2v-12q0 -70 -25 -107.5t-95 -38.5q-10 0 -10 10v26q0 10 10 10q67 5 67 100v252v4q1 1 1 5v103q0 54 -23.5 84t-66.5 30q-44 0 -69.5 -32t-25.5 -88v-334q0 -10 -10 -10h-33q-10 0 -10 10v484q0 10 10 10h33q10 0 10 -10v-39q1 -4 5 -1
q35 57 106 57q61 0 94 -41t33 -115z" />
    <glyph glyph-name="Omacron" unicode="&#x14c;" horiz-adv-x="451" 
d="M135 796q-10 0 -10 10v20q0 10 10 10h179q10 0 10 -10v-20q0 -10 -10 -10h-179zM225 -8q-73 0 -118.5 46.5t-45.5 121.5v379q0 76 45 122.5t119 46.5t120 -46.5t46 -122.5v-379q0 -75 -46 -121.5t-120 -46.5zM225 39q50 0 81.5 33t31.5 86v383q0 53 -31.5 86.5
t-81.5 33.5q-49 0 -80 -33.5t-31 -86.5v-383q0 -53 31 -86t80 -33z" />
    <glyph glyph-name="omacron" unicode="&#x14d;" horiz-adv-x="407" 
d="M113 607q-10 0 -10 10v20q0 10 10 10h179q10 0 10 -10v-20q0 -10 -10 -10h-179zM203 -8q-66 0 -107 41.5t-41 107.5v221q0 66 41 108t107 42q68 0 109 -41.5t41 -108.5v-221q0 -66 -41 -107.5t-109 -41.5zM203 39q43 0 70 29.5t27 75.5v215q0 47 -27 76.5t-70 29.5
q-42 0 -68.5 -29.5t-26.5 -76.5v-215q0 -46 26.5 -75.5t68.5 -29.5z" />
    <glyph glyph-name="Ohungarumlaut" unicode="&#x150;" horiz-adv-x="451" 
d="M156 773q-6 0 -8.5 3.5t0.5 8.5l60 110q3 7 12 7h27q14 0 7 -12l-61 -110q-3 -7 -12 -7h-25zM273 773q-14 0 -7 12l60 110q3 7 12 7h25q14 0 7 -12l-61 -110q-3 -7 -12 -7h-24zM225 -8q-73 0 -118.5 46.5t-45.5 121.5v379q0 76 45 122.5t119 46.5t120 -46.5t46 -122.5
v-379q0 -75 -46 -121.5t-120 -46.5zM225 39q50 0 81.5 33t31.5 86v383q0 53 -31.5 86.5t-81.5 33.5q-49 0 -80 -33.5t-31 -86.5v-383q0 -53 31 -86t80 -33z" />
    <glyph glyph-name="ohungarumlaut" unicode="&#x151;" horiz-adv-x="407" 
d="M134 584q-6 0 -8.5 3.5t0.5 8.5l60 110q3 7 12 7h27q14 0 7 -12l-61 -110q-3 -7 -12 -7h-25zM251 584q-14 0 -7 12l60 110q3 7 12 7h25q14 0 7 -12l-61 -110q-3 -7 -12 -7h-24zM203 -8q-66 0 -107 41.5t-41 107.5v221q0 66 41 108t107 42q68 0 109 -41.5t41 -108.5v-221
q0 -66 -41 -107.5t-109 -41.5zM203 39q43 0 70 29.5t27 75.5v215q0 47 -27 76.5t-70 29.5q-42 0 -68.5 -29.5t-26.5 -76.5v-215q0 -46 26.5 -75.5t68.5 -29.5z" />
    <glyph glyph-name="OE" unicode="&#x152;" horiz-adv-x="686" 
d="M642 663q0 -10 -10 -10h-237q-4 0 -4 -4v-271q0 -4 4 -4h152q10 0 10 -10v-27q0 -10 -10 -10h-152q-4 0 -4 -4v-272q0 -4 4 -4h237q10 0 10 -10v-27q0 -10 -10 -10h-284q-10 0 -10 10v34q0 7 -5 2q-43 -54 -117 -54q-67 0 -111 47t-44 121v379q0 75 44 122t111 47
q74 0 117 -54q5 -5 5 2v34q0 10 10 10h284q10 0 10 -10v-27zM225 39q50 0 81.5 33t31.5 86v383q0 53 -31.5 86.5t-81.5 33.5q-49 0 -80 -33.5t-31 -86.5v-383q0 -53 31 -86t80 -33z" />
    <glyph glyph-name="oe" unicode="&#x153;" horiz-adv-x="649" 
d="M601 249q0 -10 -10 -10h-230q-4 0 -4 -4v-91q0 -46 26.5 -75.5t68.5 -29.5q35 0 60 21t33 55q3 9 11 9l33 -2q11 0 9 -10q-9 -55 -48 -87.5t-98 -32.5q-80 0 -121 70q-3 4 -6 0q-39 -70 -122 -70q-67 0 -107.5 41.5t-40.5 108.5v220q0 66 41 108t107 42q82 0 122 -71
q3 -5 6 0q41 71 121 71q67 0 108 -42t41 -108v-113zM300 359q0 47 -27 76.5t-70 29.5q-42 0 -68.5 -29.5t-26.5 -76.5v-215q0 -46 26.5 -75.5t68.5 -29.5q43 0 70 29t27 76v215zM452 465q-42 0 -68.5 -29.5t-26.5 -76.5v-78q0 -4 4 -4h183q4 0 4 4v78q0 47 -26.5 76.5
t-69.5 29.5z" />
    <glyph glyph-name="Racute" unicode="&#x154;" horiz-adv-x="436" 
d="M289 903q14 0 7 -12l-69 -110q-5 -7 -12 -7h-24q-14 0 -7 12l62 110q5 7 12 7h31zM361 0q-9 0 -12 8l-110 319q-1 3 -4 3h-99q-4 0 -4 -4v-316q0 -10 -10 -10h-33q-10 0 -10 10v682q0 10 10 10h155q70 0 113 -52t43 -136q0 -68 -29 -115t-80 -63q-5 -2 -3 -5l114 -320
q3 -11 -8 -11h-33zM136 654q-4 0 -4 -4v-272q0 -4 4 -4h102q49 0 79 38t30 101q0 64 -30 102.5t-79 38.5h-102z" />
    <glyph glyph-name="racute" unicode="&#x155;" horiz-adv-x="284" 
d="M238 715q14 0 7 -12l-69 -110q-5 -7 -12 -7h-24q-14 0 -7 12l62 110q5 7 12 7h31zM222 508q25 0 43 -10q7 -4 5 -13l-8 -34q-3 -9 -13 -5q-16 6 -39 5q-40 -1 -65 -40t-25 -96v-305q0 -10 -10 -10h-33q-10 0 -10 10v484q0 10 10 10h33q10 0 10 -10v-62q0 -3 2 -3t3 3
q30 76 97 76z" />
    <glyph glyph-name="uni0156" unicode="&#x156;" horiz-adv-x="436" 
d="M291 336q-5 -2 -3 -5l114 -320q3 -11 -8 -11h-33q-9 0 -12 8l-110 319q-1 3 -4 3h-99q-4 0 -4 -4v-316q0 -10 -10 -10h-33q-10 0 -10 10v682q0 10 10 10h155q70 0 113 -52t43 -136q0 -68 -29 -115t-80 -63zM136 654q-4 0 -4 -4v-272q0 -4 4 -4h102q49 0 79 38t30 101
q0 64 -30 102.5t-79 38.5h-102zM203 -187q-14 0 -7 12l62 110q5 7 12 7h31q14 0 7 -12l-69 -110q-5 -7 -12 -7h-24z" />
    <glyph glyph-name="uni0157" unicode="&#x157;" horiz-adv-x="284" 
d="M222 508q25 0 43 -10q7 -4 5 -13l-8 -34q-3 -9 -13 -5q-16 6 -39 5q-40 -1 -65 -40t-25 -96v-305q0 -10 -10 -10h-33q-10 0 -10 10v484q0 10 10 10h33q10 0 10 -10v-62q0 -3 2 -3t3 3q30 76 97 76zM6 -187q-14 0 -7 12l62 110q5 7 12 7h31q14 0 7 -12l-69 -110
q-5 -7 -12 -7h-24z" />
    <glyph glyph-name="Rcaron" unicode="&#x158;" horiz-adv-x="436" 
d="M252 770q-5 -7 -12 -7h-38q-7 0 -12 7l-66 102q-7 12 6 12h30q7 0 12 -7l48 -77q1 -2 3 -2t3 2l47 77q5 7 12 7h28q13 0 6 -12zM361 0q-9 0 -12 8l-110 319q-1 3 -4 3h-99q-4 0 -4 -4v-316q0 -10 -10 -10h-33q-10 0 -10 10v682q0 10 10 10h155q70 0 113 -52t43 -136
q0 -68 -29 -115t-80 -63q-5 -2 -3 -5l114 -320q3 -11 -8 -11h-33zM136 654q-4 0 -4 -4v-272q0 -4 4 -4h102q49 0 79 38t30 101q0 64 -30 102.5t-79 38.5h-102z" />
    <glyph glyph-name="rcaron" unicode="&#x159;" horiz-adv-x="284" 
d="M201 582q-5 -7 -12 -7h-38q-7 0 -12 7l-66 102q-7 12 6 12h30q7 0 12 -7l48 -77q1 -2 3 -2t3 2l47 77q5 7 12 7h28q13 0 6 -12zM120 432q0 -3 2 -4l2 3q30 77 98 77q25 0 43 -10q7 -4 5 -13l-8 -34q-3 -9 -13 -5q-16 6 -39 5q-40 -1 -65 -40t-25 -96v-305q0 -10 -10 -10
h-33q-10 0 -10 10v484q0 10 10 10h33q10 0 10 -10v-62z" />
    <glyph glyph-name="Sacute" unicode="&#x15a;" horiz-adv-x="420" 
d="M178 782q-14 0 -7 12l62 110q5 7 12 7h31q14 0 7 -12l-69 -110q-5 -7 -12 -7h-24zM215 -8q-71 0 -115.5 48.5t-44.5 126.5v22q0 10 10 10h32q10 0 10 -10v-20q0 -59 30 -95t77 -36t78 35t31 91q0 23 -7 43t-14 32.5t-29.5 32.5l-32 28t-43.5 33q-51 38 -75 59.5
t-45.5 61.5t-21.5 89q0 77 43 121t111 44q73 0 116.5 -49t43.5 -129v-25q0 -10 -10 -10h-32q-10 0 -10 10v25q0 59 -30 95.5t-78 36.5q-45 0 -73.5 -31.5t-28.5 -88.5q0 -49 25 -81t94 -83q86 -64 117.5 -103t31.5 -104q0 -81 -44.5 -130t-115.5 -49z" />
    <glyph glyph-name="sacute" unicode="&#x15b;" horiz-adv-x="364" 
d="M156 582q-14 0 -7 12l62 110q5 7 12 7h31q14 0 7 -12l-69 -110q-5 -7 -12 -7h-24zM190 -5q-65 0 -104.5 35.5t-39.5 91.5v6q0 10 10 10h31q10 0 10 -8v-8q0 -36 26 -60t67 -24q40 0 64.5 24.5t24.5 63.5q0 22 -8 38.5t-26 29.5t-31.5 19.5t-40.5 17.5q-29 12 -45 20.5
t-37.5 25.5t-31.5 41.5t-10 56.5q0 61 38 97t101 36q64 0 102 -37t38 -96v-3q0 -10 -10 -10h-30q-10 0 -10 8v7q0 37 -25 62t-65 25t-64 -24.5t-24 -63.5q0 -21 7 -36.5t24.5 -28t29.5 -18.5t39 -18q31 -13 47.5 -21.5t39.5 -26t34 -42t11 -57.5q0 -60 -39 -96.5t-103 -36.5
z" />
    <glyph glyph-name="Scedilla" unicode="&#x15e;" horiz-adv-x="420" 
d="M375 171q0 -74 -36.5 -121t-96.5 -56q-5 -2 -2 -5q52 -51 40 -115q-7 -40 -37 -51.5t-64 -4.5q-8 1 -7 11l2 14q2 8 10 8q1 -1 4 -1q46 -6 53 38q8 49 -44 103q-2 2 -5 2q-61 8 -99 55.5t-38 118.5v22q0 10 10 10h32q10 0 10 -10v-20q0 -59 30 -95t77 -36t78 35t31 91
q0 23 -7 43t-14 32.5t-29.5 32.5l-32 28t-43.5 33q-51 38 -75 59.5t-45.5 61.5t-21.5 89q0 77 43 121t111 44q73 0 116.5 -49t43.5 -129v-25q0 -10 -10 -10h-32q-10 0 -10 10v25q0 59 -30 95.5t-78 36.5q-45 0 -73.5 -31.5t-28.5 -88.5q0 -49 25 -81t94 -83
q86 -64 117.5 -103t31.5 -104z" />
    <glyph glyph-name="scedilla" unicode="&#x15f;" horiz-adv-x="364" 
d="M332 128q0 -53 -31 -88t-84 -43q-5 -2 -2 -5q52 -51 40 -115q-7 -40 -37 -51.5t-64 -4.5q-8 1 -7 11l2 14q2 8 10 8q1 -1 4 -1q46 -6 53 38q8 49 -44 103q-2 2 -5 2q-55 6 -88 40.5t-33 85.5v6q0 10 10 10h31q10 0 10 -8v-8q0 -36 26 -60t67 -24q40 0 64.5 24.5
t24.5 63.5q0 22 -8 38.5t-26 29.5t-31.5 19.5t-40.5 17.5q-29 12 -45 20.5t-37.5 25.5t-31.5 41.5t-10 56.5q0 61 38 97t101 36q64 0 102 -37t38 -96v-3q0 -10 -10 -10h-30q-10 0 -10 8v7q0 37 -25 62t-65 25t-64 -24.5t-24 -63.5q0 -21 7 -36.5t24.5 -28t29.5 -18.5t39 -18
q31 -13 47.5 -21.5t39.5 -26t34 -42t11 -57.5z" />
    <glyph glyph-name="Scaron" unicode="&#x160;" horiz-adv-x="420" 
d="M189 771q-7 0 -12 7l-66 102q-7 12 6 12h30q7 0 12 -7l48 -77q1 -2 3 -2t3 2l47 77q5 7 12 7h28q13 0 6 -12l-67 -102q-5 -7 -12 -7h-38zM215 -8q-71 0 -115.5 48.5t-44.5 126.5v22q0 10 10 10h32q10 0 10 -10v-20q0 -59 30 -95t77 -36t78 35t31 91q0 23 -7 43t-14 32.5
t-29.5 32.5l-32 28t-43.5 33q-51 38 -75 59.5t-45.5 61.5t-21.5 89q0 77 43 121t111 44q73 0 116.5 -49t43.5 -129v-25q0 -10 -10 -10h-32q-10 0 -10 10v25q0 59 -30 95.5t-78 36.5q-45 0 -73.5 -31.5t-28.5 -88.5q0 -49 25 -81t94 -83q86 -64 117.5 -103t31.5 -104
q0 -81 -44.5 -130t-115.5 -49z" />
    <glyph glyph-name="scaron" unicode="&#x161;" horiz-adv-x="364" 
d="M167 571q-7 0 -12 7l-66 102q-7 12 6 12h30q7 0 12 -7l48 -77q1 -2 3 -2t3 2l47 77q5 7 12 7h28q13 0 6 -12l-67 -102q-5 -7 -12 -7h-38zM190 -5q-65 0 -104.5 35.5t-39.5 91.5v6q0 10 10 10h31q10 0 10 -8v-8q0 -36 26 -60t67 -24q40 0 64.5 24.5t24.5 63.5
q0 22 -8 38.5t-26 29.5t-31.5 19.5t-40.5 17.5q-29 12 -45 20.5t-37.5 25.5t-31.5 41.5t-10 56.5q0 61 38 97t101 36q64 0 102 -37t38 -96v-3q0 -10 -10 -10h-30q-10 0 -10 8v7q0 37 -25 62t-65 25t-64 -24.5t-24 -63.5q0 -21 7 -36.5t24.5 -28t29.5 -18.5t39 -18
q31 -13 47.5 -21.5t39.5 -26t34 -42t11 -57.5q0 -60 -39 -96.5t-103 -36.5z" />
    <glyph glyph-name="uni0162" unicode="&#x162;" horiz-adv-x="411" 
d="M232 653q-4 0 -4 -4v-639q0 -10 -2 -10q-1 0 2 -5q53 -52 41 -116q-7 -40 -37 -51.5t-64 -4.5q-8 1 -7 11l2 14q2 8 10 8q1 -1 4 -1q46 -6 53 38q8 49 -46 105q-1 1 -5 3t-4 9v639q0 4 -4 4h-125q-10 0 -10 10v27q0 10 10 10h319q10 0 10 -10v-27q0 -10 -10 -10h-133z
" />
    <glyph glyph-name="uni0163" unicode="&#x163;" horiz-adv-x="261" 
d="M230 472q0 -10 -10 -10h-80q-4 0 -4 -4v-322q0 -50 17 -69.5t54 -19.5h10q10 0 10 -10v-27q0 -10 -10 -10h-18q-5 0 -2 -5q34 -46 24 -97q-7 -40 -37 -51.5t-64 -4.5q-8 1 -7 11l2 14q2 8 10 8q1 -1 4 -1q46 -6 53 38t-34 92q-2 1 -4 3q-60 21 -60 116v335q0 4 -4 4h-41
q-10 0 -10 10v22q0 10 10 10h41q4 0 4 4v112q0 10 10 10h32q10 0 10 -10v-112q0 -4 4 -4h80q10 0 10 -10v-22z" />
    <glyph glyph-name="Tcaron" unicode="&#x164;" horiz-adv-x="411" 
d="M233 762q-5 -7 -12 -7h-38q-7 0 -12 7l-66 102q-7 12 6 12h30q7 0 12 -7l48 -77q1 -2 3 -2t3 2l47 77q5 7 12 7h28q13 0 6 -12zM365 700q10 0 10 -10v-27q0 -10 -10 -10h-133q-4 0 -4 -4v-639q0 -10 -10 -10h-33q-10 0 -10 10v639q0 4 -4 4h-125q-10 0 -10 10v27
q0 10 10 10h319z" />
    <glyph glyph-name="tcaron" unicode="&#x165;" horiz-adv-x="261" 
d="M141 691q-5 -7 -12 -7h-38q-7 0 -12 7l-66 102q-7 12 6 12h30q7 0 12 -7l48 -77q1 -1 3 -1t3 1l47 77q5 7 12 7h28q13 0 6 -12zM230 472q0 -10 -10 -10h-80q-4 0 -4 -4v-322q0 -50 17 -69.5t54 -19.5h10q10 0 10 -10v-27q0 -10 -10 -10h-20q-56 0 -84.5 26t-28.5 97v335
q0 4 -4 4h-41q-10 0 -10 10v22q0 10 10 10h41q4 0 4 4v112q0 10 10 10h32q10 0 10 -10v-112q0 -4 4 -4h80q10 0 10 -10v-22z" />
    <glyph glyph-name="Tbar" unicode="&#x166;" horiz-adv-x="600" 
d="M375 663q0 -10 -10 -10h-133q-4 0 -4 -4v-225q0 -4 4 -4h87q10 0 10 -10v-17q0 -10 -10 -10h-87q-4 0 -4 -4v-369q0 -10 -10 -10h-33q-10 0 -10 10v369q0 4 -4 4h-97q-10 0 -10 10v17q0 10 10 10h97q4 0 4 4v225q0 4 -4 4h-125q-10 0 -10 10v27q0 10 10 10h319
q10 0 10 -10v-27z" />
    <glyph glyph-name="tbar" unicode="&#x167;" horiz-adv-x="600" 
d="M232 376q0 -10 -10 -10h-82q-4 0 -4 -4v-226q0 -50 17 -69.5t54 -19.5h10q10 0 10 -10v-27q0 -10 -10 -10h-20q-56 0 -84.5 26t-28.5 97v239q0 4 -4 4h-39q-10 0 -10 10v17q0 10 10 10h39q4 0 4 4v51q0 4 -4 4h-41q-10 0 -10 10v22q0 10 10 10h41q4 0 4 4v112q0 10 10 10
h32q10 0 10 -10v-112q0 -4 4 -4h80q10 0 10 -10v-22q0 -10 -10 -10h-80q-4 0 -4 -4v-51q0 -4 4 -4h82q10 0 10 -10v-17z" />
    <glyph glyph-name="Umacron" unicode="&#x16a;" horiz-adv-x="475" 
d="M147 806q-10 0 -10 10v20q0 10 10 10h179q10 0 10 -10v-20q0 -10 -10 -10h-179zM237 -8q-74 0 -119 51.5t-45 137.5v509q0 10 10 10h33q10 0 10 -10v-515q0 -61 30.5 -98.5t80.5 -37.5t81.5 37.5t31.5 98.5v515q0 10 10 10h33q10 0 10 -10v-509q0 -85 -46 -137t-120 -52z
" />
    <glyph glyph-name="umacron" unicode="&#x16b;" horiz-adv-x="418" 
d="M295 639q10 0 10 -10v-20q0 -10 -10 -10h-179q-10 0 -10 10v20q0 10 10 10h179zM298 494q0 10 10 10h33q10 0 10 -10v-484q0 -10 -10 -10h-33q-10 0 -10 10v36q0 3 -2 3.5t-3 -1.5q-32 -55 -102 -55q-60 0 -95 36.5t-35 109.5v355q0 10 10 10h33q10 0 10 -10v-343
q0 -111 90 -111q44 0 69 32t25 88v334z" />
    <glyph glyph-name="Uring" unicode="&#x16e;" horiz-adv-x="475" 
d="M237 782q-41 0 -69.5 29.5t-28.5 71.5t28.5 71t69.5 29q42 0 70.5 -29t28.5 -71t-28.5 -71.5t-70.5 -29.5zM237 814q28 0 47 20t19 49t-19 49t-47 20q-27 0 -46.5 -20t-19.5 -49t19.5 -49t46.5 -20zM237 -8q-74 0 -119 51.5t-45 137.5v509q0 10 10 10h33q10 0 10 -10
v-515q0 -61 30.5 -98.5t80.5 -37.5t81.5 37.5t31.5 98.5v515q0 10 10 10h33q10 0 10 -10v-509q0 -85 -46 -137t-120 -52z" />
    <glyph glyph-name="uring" unicode="&#x16f;" horiz-adv-x="418" 
d="M206 575q-41 0 -69.5 29.5t-28.5 71.5t28.5 71t69.5 29q42 0 70.5 -29t28.5 -71t-28.5 -71.5t-70.5 -29.5zM206 745q-27 0 -46.5 -20t-19.5 -49t19.5 -49t46.5 -20q28 0 47 20t19 49t-19 49t-47 20zM298 494q0 10 10 10h33q10 0 10 -10v-484q0 -10 -10 -10h-33
q-10 0 -10 10v36q0 3 -2 3.5t-3 -1.5q-32 -55 -102 -55q-60 0 -95 36.5t-35 109.5v355q0 10 10 10h33q10 0 10 -10v-343q0 -111 90 -111q44 0 69 32t25 88v334z" />
    <glyph glyph-name="Uhungarumlaut" unicode="&#x170;" horiz-adv-x="475" 
d="M168 783q-6 0 -8.5 3.5t0.5 8.5l60 110q3 7 12 7h27q14 0 7 -12l-61 -110q-3 -7 -12 -7h-25zM285 783q-14 0 -7 12l60 110q3 7 12 7h25q14 0 7 -12l-61 -110q-3 -7 -12 -7h-24zM237 -8q-74 0 -119 51.5t-45 137.5v509q0 10 10 10h33q10 0 10 -10v-515q0 -61 30.5 -98.5
t80.5 -37.5t81.5 37.5t31.5 98.5v515q0 10 10 10h33q10 0 10 -10v-509q0 -85 -46 -137t-120 -52z" />
    <glyph glyph-name="uhungarumlaut" unicode="&#x171;" horiz-adv-x="418" 
d="M228 705q14 0 7 -12l-61 -110q-4 -7 -12 -7h-25q-6 0 -8.5 3.5t0.5 8.5l60 110q3 7 12 7h27zM290 583q-5 -7 -12 -7h-24q-14 0 -7 12l60 110q3 7 12 7h25q14 0 7 -12zM298 160v334q0 10 10 10h33q10 0 10 -10v-484q0 -10 -10 -10h-33q-10 0 -10 10v36q0 3 -2 3.5t-3 -1.5
q-32 -55 -102 -55q-60 0 -95 36.5t-35 109.5v355q0 10 10 10h33q10 0 10 -10v-343q0 -111 90 -111q44 0 69 32t25 88z" />
    <glyph glyph-name="Uogonek" unicode="&#x172;" horiz-adv-x="475" 
d="M350 690q0 10 10 10h33q10 0 10 -10v-509q0 -80 -40.5 -130.5t-107.5 -57.5q-3 0 -5 -2q-44 -49 -37 -96q6 -45 55 -38q10 3 12 -7l2 -14q1 -10 -7 -11q-34 -7 -64 4.5t-37 51.5q-10 61 34 109q4 4 -2 5q-61 10 -97 60t-36 126v509q0 10 10 10h33q10 0 10 -10v-515
q0 -61 30.5 -98.5t80.5 -37.5t81.5 37.5t31.5 98.5v515z" />
    <glyph glyph-name="uogonek" unicode="&#x173;" horiz-adv-x="418" 
d="M354 -149q10 3 12 -7l2 -14q1 -10 -7 -11q-34 -7 -64 4.5t-37 51.5q-12 67 45 120l5 5h-2q-10 0 -10 10v36q0 3 -2 3.5t-3 -1.5q-32 -55 -102 -55q-60 0 -95 36.5t-35 109.5v355q0 10 10 10h33q10 0 10 -10v-343q0 -111 90 -111q44 0 69 32t25 88v334q0 10 10 10h33
q10 0 10 -10v-487q0 -5 -5 -12q-55 -53 -47 -106q6 -45 55 -38z" />
    <glyph glyph-name="Wcircumflex" unicode="&#x174;" horiz-adv-x="606" 
d="M211 766q-13 0 -6 12l66 102q5 7 12 7h40q7 0 12 -6l68 -103q3 -4 1 -8t-8 -4h-31q-7 0 -12 7l-46 76q-1 1 -3 1t-3 -1l-47 -76q-5 -7 -12 -7h-31zM173 0q-9 0 -11 9l-131 680q-2 11 9 11h35q9 0 11 -9l103 -567q2 -6 4 0l87 567q1 9 10 9h31q9 0 10 -9l92 -567q2 -6 4 0
l94 567q1 9 10 9h35q11 0 9 -11l-124 -680q-1 -9 -11 -9h-32q-8 0 -10 9l-90 566q-2 6 -4 0l-89 -566q-1 -9 -10 -9h-32z" />
    <glyph glyph-name="wcircumflex" unicode="&#x175;" horiz-adv-x="539" 
d="M175 570q-13 0 -6 12l66 102q5 7 12 7h40q7 0 12 -6l68 -103q3 -4 1 -8t-8 -4h-31q-7 0 -12 7l-46 76q-1 1 -3 1t-3 -1l-47 -76q-5 -7 -12 -7h-31zM142 0q-10 0 -11 9l-105 484q-2 11 9 11h32q9 0 11 -9l80 -413q2 -8 4 0l81 413q1 9 11 9h30q10 0 11 -9l81 -413
q2 -8 4 0l82 413q2 9 11 9l31 -1q11 0 9 -11l-106 -483q-1 -9 -11 -9h-34q-10 0 -11 9l-81 393q-2 8 -4 0l-79 -393q-1 -9 -11 -9h-34z" />
    <glyph glyph-name="Ycircumflex" unicode="&#x176;" horiz-adv-x="411" 
d="M113 766q-13 0 -6 12l66 102q5 7 12 7h40q7 0 12 -6l68 -103q3 -4 1 -8t-8 -4h-31q-7 0 -12 7l-46 76q-1 1 -3 1t-3 -1l-47 -76q-5 -7 -12 -7h-31zM189 0q-10 0 -10 10v310q0 4 -1 5l-138 363q-5 12 8 12h35q9 0 12 -8l108 -306q1 -2 3 -2t3 2l107 306q3 8 12 8h35
q13 0 8 -12l-138 -363q-1 -1 -1 -5v-310q0 -10 -10 -10h-33z" />
    <glyph glyph-name="ycircumflex" unicode="&#x177;" horiz-adv-x="353" 
d="M84 570q-13 0 -6 12l66 102q5 7 12 7h40q8 0 12 -6l68 -103q3 -4 1 -8t-8 -4h-31q-7 0 -12 7l-46 76q-1 1 -3 1t-3 -1l-47 -76q-5 -7 -12 -7h-31zM45 -200q-6 0 -6 10v26q0 10 6 10h5q43 1 61 29t38 122v6l-128 490q-3 11 9 11h35q9 0 11 -9l99 -416q2 -8 4 0l98 416
q1 9 11 9l36 -1q12 0 8 -11l-141 -543q-24 -93 -51 -121t-89 -28h-6z" />
    <glyph glyph-name="Ydieresis" unicode="&#x178;" horiz-adv-x="411" 
d="M146 797q-16 0 -27 11.5t-11 28.5t11 28.5t27 11.5t26 -11.5t10 -28.5t-10 -28.5t-26 -11.5zM268 797q-16 0 -27 11.5t-11 28.5t11 28.5t27 11.5t26 -11.5t10 -28.5t-10 -28.5t-26 -11.5zM189 0q-10 0 -10 10v310q0 4 -1 5l-138 363q-5 12 8 12h35q9 0 12 -8l108 -306
q1 -2 3 -2t3 2l107 306q3 8 12 8h35q13 0 8 -12l-138 -363q-1 -1 -1 -5v-310q0 -10 -10 -10h-33z" />
    <glyph glyph-name="Zacute" unicode="&#x179;" horiz-adv-x="391" 
d="M164 787q-14 0 -7 12l62 110q5 7 12 7h31q14 0 7 -12l-69 -110q-5 -7 -12 -7h-24zM46 0q-10 0 -10 10v31q0 7 2 12l252 595q2 5 -3 5h-241q-10 0 -10 10v27q0 10 10 10h292q10 0 10 -10v-31q0 -7 -2 -12l-251 -595q-3 -5 3 -5h240q10 0 10 -10v-27q0 -10 -10 -10h-292z
" />
    <glyph glyph-name="zacute" unicode="&#x17a;" horiz-adv-x="357" 
d="M151 587q-14 0 -7 12l62 110q5 7 12 7h31q14 0 7 -12l-69 -110q-5 -7 -12 -7h-24zM47 0q-10 0 -10 10v32q0 6 3 13l217 395q1 2 0.5 3.5t-2.5 1.5h-205q-10 0 -10 10v29q0 10 10 10h262q10 0 10 -10v-32q0 -7 -3 -13l-218 -395q-1 -2 -0.5 -3.5t2.5 -1.5h209q10 0 10 -10
v-29q0 -10 -10 -10h-265z" />
    <glyph glyph-name="Zdotaccent" unicode="&#x17b;" horiz-adv-x="391" 
d="M195 793q-16 0 -26.5 11t-10.5 28t10.5 28t26.5 11q15 0 24.5 -11t9.5 -28t-9.5 -28t-24.5 -11zM46 0q-10 0 -10 10v31q0 7 2 12l252 595q2 5 -3 5h-241q-10 0 -10 10v27q0 10 10 10h292q10 0 10 -10v-31q0 -7 -2 -12l-251 -595q-3 -5 3 -5h240q10 0 10 -10v-27
q0 -10 -10 -10h-292z" />
    <glyph glyph-name="zdotaccent" unicode="&#x17c;" horiz-adv-x="357" 
d="M182 593q-16 0 -26.5 11t-10.5 28t10.5 28t26.5 11q15 0 24.5 -11t9.5 -28t-9.5 -28t-24.5 -11zM47 0q-10 0 -10 10v32q0 6 3 13l217 395q1 2 0.5 3.5t-2.5 1.5h-205q-10 0 -10 10v29q0 10 10 10h262q10 0 10 -10v-32q0 -7 -3 -13l-218 -395q-1 -2 -0.5 -3.5t2.5 -1.5
h209q10 0 10 -10v-29q0 -10 -10 -10h-265z" />
    <glyph glyph-name="Zcaron" unicode="&#x17d;" horiz-adv-x="391" 
d="M175 776q-7 0 -12 7l-66 102q-7 12 6 12h30q7 0 12 -7l48 -77q1 -1 3 -1t3 1l47 77q5 7 12 7h28q13 0 6 -12l-67 -102q-5 -7 -12 -7h-38zM46 0q-10 0 -10 10v31q0 7 2 12l252 595q2 5 -3 5h-241q-10 0 -10 10v27q0 10 10 10h292q10 0 10 -10v-31q0 -7 -2 -12l-251 -595
q-3 -5 3 -5h240q10 0 10 -10v-27q0 -10 -10 -10h-292z" />
    <glyph glyph-name="zcaron" unicode="&#x17e;" horiz-adv-x="357" 
d="M162 576q-7 0 -12 7l-66 102q-7 12 6 12h30q7 0 12 -7l48 -77q1 -1 3 -1t3 1l47 77q5 7 12 7h28q13 0 6 -12l-67 -102q-5 -7 -12 -7h-38zM47 0q-10 0 -10 10v32q0 6 3 13l217 395q1 2 0.5 3.5t-2.5 1.5h-205q-10 0 -10 10v29q0 10 10 10h262q10 0 10 -10v-32q0 -7 -3 -13
l-218 -395q-1 -2 -0.5 -3.5t2.5 -1.5h209q10 0 10 -10v-29q0 -10 -10 -10h-265z" />
    <glyph glyph-name="florin" unicode="&#x192;" horiz-adv-x="462" 
d="M251 551q14 92 50.5 127t117.5 31q9 -1 9 -11l-1 -28q0 -10 -11 -10h-19q-44 0 -64 -29.5t-30 -90.5l-25 -155q0 -4 3 -4h76q10 0 10 -10v-21q0 -10 -10 -10h-82q-5 0 -5 -4l-62 -387q-14 -92 -50.5 -127t-117.5 -31q-9 1 -9 11l1 28q0 10 11 10h19q43 0 63.5 30t29.5 90
l61 376q0 4 -3 4h-58q-10 0 -10 10v21q0 10 10 10h64q5 0 5 4z" />
    <glyph glyph-name="uni01CD" unicode="&#x1cd;" horiz-adv-x="443" 
d="M251 762q-5 -7 -12 -7h-38q-7 0 -12 7l-66 102q-7 12 6 12h30q7 0 12 -7l48 -77q1 -2 3 -2t3 2l47 77q5 7 12 7h28q13 0 6 -12zM362 0q-10 0 -11 9l-27 131q0 4 -5 4h-195q-5 0 -5 -4l-28 -131q-1 -9 -11 -9h-33q-11 0 -9 11l152 680q2 9 11 9h40q9 0 11 -9l153 -680
q2 -11 -9 -11h-34zM130 192q-2 -4 3 -4h176q3 0 3 4l-88 417q-2 8 -4 0z" />
    <glyph glyph-name="uni01CE" unicode="&#x1ce;" horiz-adv-x="403" 
d="M231 574q-5 -7 -12 -7h-38q-7 0 -12 7l-66 102q-7 12 6 12h30q7 0 12 -7l48 -77q1 -2 3 -2t3 2l47 77q5 7 12 7h28q13 0 6 -12zM203 512q68 0 106.5 -45.5t38.5 -121.5v-335q0 -10 -10 -10h-33q-10 0 -10 10v36q0 3 -1.5 3.5t-3.5 -1.5q-37 -56 -116 -56q-53 0 -91.5 31
t-38.5 109q0 83 46 122t123 39h78q4 0 4 4v46q0 56 -24.5 89t-68.5 33q-35 0 -60.5 -22t-29.5 -57q0 -10 -10 -10l-36 2q-11 0 -9 10q6 56 47 90t99 34zM185 39q45 0 77.5 29t32.5 82v95q0 4 -4 4h-78q-52 0 -83.5 -28.5t-31.5 -84.5q0 -49 24 -73t63 -24z" />
    <glyph glyph-name="uni0218" unicode="&#x218;" horiz-adv-x="420" 
d="M215 -8q-71 0 -115.5 48.5t-44.5 126.5v22q0 10 10 10h32q10 0 10 -10v-20q0 -59 30 -95t77 -36t78 35t31 91q0 23 -7 43t-14 32.5t-29.5 32.5l-32 28t-43.5 33q-51 38 -75 59.5t-45.5 61.5t-21.5 89q0 77 43 121t111 44q73 0 116.5 -49t43.5 -129v-25q0 -10 -10 -10h-32
q-10 0 -10 10v25q0 59 -30 95.5t-78 36.5q-45 0 -73.5 -31.5t-28.5 -88.5q0 -49 25 -81t94 -83q86 -64 117.5 -103t31.5 -104q0 -81 -44.5 -130t-115.5 -49zM185 -195q-14 0 -7 12l62 110q5 7 12 7h31q14 0 7 -12l-69 -110q-5 -7 -12 -7h-24z" />
    <glyph glyph-name="uni0219" unicode="&#x219;" horiz-adv-x="364" 
d="M190 -5q-65 0 -104.5 35.5t-39.5 91.5v6q0 10 10 10h31q10 0 10 -8v-8q0 -36 26 -60t67 -24q40 0 64.5 24.5t24.5 63.5q0 22 -8 38.5t-26 29.5t-31.5 19.5t-40.5 17.5q-29 12 -45 20.5t-37.5 25.5t-31.5 41.5t-10 56.5q0 61 38 97t101 36q64 0 102 -37t38 -96v-3
q0 -10 -10 -10h-30q-10 0 -10 8v7q0 37 -25 62t-65 25t-64 -24.5t-24 -63.5q0 -21 7 -36.5t24.5 -28t29.5 -18.5t39 -18q31 -13 47.5 -21.5t39.5 -26t34 -42t11 -57.5q0 -60 -39 -96.5t-103 -36.5zM160 -192q-14 0 -7 12l62 110q5 7 12 7h31q14 0 7 -12l-69 -110
q-5 -7 -12 -7h-24z" />
    <glyph glyph-name="uni021A" unicode="&#x21a;" horiz-adv-x="398" 
d="M365 700q10 0 10 -10v-27q0 -10 -10 -10h-133q-4 0 -4 -4v-639q0 -10 -10 -10h-33q-10 0 -10 10v639q0 4 -4 4h-125q-10 0 -10 10v27q0 10 10 10h319zM109 -190q-14 0 -7 12l62 110q5 7 12 7h31q14 0 7 -12l-69 -110q-5 -7 -12 -7h-24z" />
    <glyph glyph-name="uni021B" unicode="&#x21b;" horiz-adv-x="261" 
d="M197 0q-56 0 -84.5 26t-28.5 97v335q0 4 -4 4h-41q-10 0 -10 10v22q0 10 10 10h41q4 0 4 4v112q0 10 10 10h32q10 0 10 -10v-112q0 -4 4 -4h80q10 0 10 -10v-22q0 -10 -10 -10h-80q-4 0 -4 -4v-322q0 -50 17 -69.5t54 -19.5h10q10 0 10 -10v-27q0 -10 -10 -10h-20z
M181 -49q5 7 12 7h31q14 0 7 -12l-69 -110q-5 -7 -12 -7h-24q-14 0 -7 12z" />
    <glyph glyph-name="uni0228" unicode="&#x228;" horiz-adv-x="427" 
d="M383 663q0 -10 -10 -10h-237q-4 0 -4 -4v-271q0 -4 4 -4h152q10 0 10 -10v-27q0 -10 -10 -10h-152q-4 0 -4 -4v-272q0 -4 4 -4h237q10 0 10 -10v-27q0 -10 -10 -10h-116q-7 0 -2 -5q50 -51 38 -113q-7 -40 -37 -51.5t-64 -4.5q-8 1 -7 11l2 14q2 8 10 8q1 -1 4 -1
q46 -6 53 38q8 49 -43 102q-2 2 -5 2h-117q-10 0 -10 10v680q0 10 10 10h284q10 0 10 -10v-27z" />
    <glyph glyph-name="uni0229" unicode="&#x229;" horiz-adv-x="400" 
d="M352 243q0 -10 -10 -10h-230q-4 0 -4 -4v-85q0 -46 26.5 -75.5t68.5 -29.5q35 0 60 21t33 55q3 9 11 9l33 -2q11 0 9 -10q-9 -49 -40 -80t-79 -38q-5 -2 -2 -5q52 -51 40 -115q-7 -40 -37 -51.5t-64 -4.5q-8 1 -7 11l2 14q2 8 10 8q1 -1 4 -1q46 -6 53 38q8 49 -44 103
q-2 2 -5 2q-57 7 -91 47.5t-34 100.5v221q0 66 41 108t107 42q67 0 108 -42t41 -108v-119zM203 465q-42 0 -68.5 -29.5t-26.5 -76.5v-76q0 -4 4 -4h183q4 0 4 4v76q0 47 -26.5 76.5t-69.5 29.5z" />
    <glyph glyph-name="circumflex" unicode="&#x2c6;" horiz-adv-x="213" 
d="M14 570q-13 0 -6 12l66 102q5 7 12 7h40q8 0 12 -6l68 -103q3 -4 1 -8t-8 -4h-31q-7 0 -12 7l-46 76q-1 1 -3 1t-3 -1l-47 -76q-5 -7 -12 -7h-31z" />
    <glyph glyph-name="caron" unicode="&#x2c7;" horiz-adv-x="260" 
d="M110 569q-7 0 -12 7l-66 102q-7 12 6 12h30q7 0 12 -7l48 -77q1 -2 3 -2t3 2l47 77q5 7 12 7h28q13 0 6 -12l-67 -102q-5 -7 -12 -7h-38z" />
    <glyph glyph-name="uni02C9" unicode="&#x2c9;" horiz-adv-x="531" 
d="M175 599q-10 0 -10 10v20q0 10 10 10h179q10 0 10 -10v-20q0 -10 -10 -10h-179z" />
    <glyph glyph-name="breve" unicode="&#x2d8;" horiz-adv-x="250" 
d="M125 560q-40 0 -68.5 26t-32.5 66q0 10 10 10h15q10 0 11 -10q3 -26 21.5 -43t43.5 -17t43.5 17t21.5 43q1 10 11 10h15q10 0 10 -10q-4 -40 -32 -66t-69 -26z" />
    <glyph glyph-name="dotaccent" unicode="&#x2d9;" horiz-adv-x="120" 
d="M61 584q-16 0 -26.5 11t-10.5 28t10.5 28t26.5 11q15 0 24.5 -11t9.5 -28t-9.5 -28t-24.5 -11z" />
    <glyph glyph-name="ring" unicode="&#x2da;" horiz-adv-x="245" 
d="M122 575q-41 0 -69.5 29.5t-28.5 71.5t28.5 71t69.5 29q42 0 70.5 -29t28.5 -71t-28.5 -71.5t-70.5 -29.5zM122 607q28 0 47 20t19 49t-19 49t-47 20q-27 0 -46.5 -20t-19.5 -49t19.5 -49t46.5 -20z" />
    <glyph glyph-name="ogonek" unicode="&#x2db;" horiz-adv-x="113" 
d="M109 -170q1 -10 -7 -11q-34 -7 -64 4.5t-37 51.5q-12 66 44 118l4 4q3 3 10 3h16q6 0 7.5 -4t-2.5 -8q-47 -50 -40 -99q7 -44 53 -38q3 0 4 1q8 0 10 -8z" />
    <glyph glyph-name="tilde" unicode="&#x2dc;" horiz-adv-x="307" 
d="M202 598q-21 0 -53 22q-30 21 -45 21q-28 0 -46 -27q-6 -9 -14 -3l-12 9q-9 5 -4 13q27 48 73 48q23 0 56 -23l11 -7.5t12 -7.5t11 -4.5t13 -2.5q26 0 44 30q5 10 14 4l12 -8q9 -6 0 -20q-27 -44 -72 -44z" />
    <glyph glyph-name="hungarumlaut" unicode="&#x2dd;" horiz-adv-x="290" 
d="M38 586q-14 0 -7 12l62 110q5 7 12 7h31q14 0 7 -12l-69 -110q-5 -7 -12 -7h-24zM155 586q-14 0 -7 12l62 110q5 7 12 7h31q14 0 7 -12l-69 -110q-5 -7 -12 -7h-24z" />
    <glyph glyph-name="gravecomb" unicode="&#x300;" 
d="M-7 590q7 -12 -7 -12h-24q-7 0 -12 7l-68 110q-7 12 6 12h31q7 0 12 -7z" />
    <glyph glyph-name="acutecomb" unicode="&#x301;" 
d="M-112 578q-14 0 -7 12l62 110q5 7 12 7h31q14 0 7 -12l-69 -110q-5 -7 -12 -7h-24z" />
    <glyph glyph-name="uni0302" unicode="&#x302;" 
d="M-200 570q-13 0 -6 12l66 102q5 7 12 7h40q8 0 12 -6l68 -103q3 -4 1 -8t-8 -4h-31q-7 0 -12 7l-46 76q-1 1 -3 1t-3 -1l-47 -76q-5 -7 -12 -7h-31z" />
    <glyph glyph-name="tildecomb" unicode="&#x303;" 
d="M-80 598q-21 0 -53 22q-30 21 -45 21q-28 0 -46 -27q-6 -9 -14 -3l-12 9q-9 5 -4 13q27 48 73 48q23 0 56 -23l11 -7.5t12 -7.5t11 -4.5t13 -2.5q26 0 44 30q5 10 14 4l12 -8q9 -6 0 -20q-27 -44 -72 -44z" />
    <glyph glyph-name="uni0304" unicode="&#x304;" 
d="M-356 599q-10 0 -10 10v20q0 10 10 10h179q10 0 10 -10v-20q0 -10 -10 -10h-179z" />
    <glyph glyph-name="uni0306" unicode="&#x306;" 
d="M-125 544q-40 0 -68.5 26t-32.5 66q0 10 10 10h15q10 0 11 -10q3 -26 21.5 -43.5t43.5 -17.5t43.5 17.5t21.5 43.5q1 10 11 10h15q10 0 10 -10q-4 -40 -32 -66t-69 -26z" />
    <glyph glyph-name="uni0307" unicode="&#x307;" 
d="M-34 584q-16 0 -26.5 11t-10.5 28t10.5 28t26.5 11q15 0 24.5 -11t9.5 -28t-9.5 -28t-24.5 -11z" />
    <glyph glyph-name="uni0308" unicode="&#x308;" 
d="M-158 601q-16 0 -27 11.5t-11 28.5t11 28.5t27 11.5t26 -11.5t10 -28.5t-10 -28.5t-26 -11.5zM-36 601q-16 0 -27 11.5t-11 28.5t11 28.5t27 11.5t26 -11.5t10 -28.5t-10 -28.5t-26 -11.5z" />
    <glyph glyph-name="uni030A" unicode="&#x30a;" 
d="M-99 575q-41 0 -69.5 29.5t-28.5 71.5t28.5 71t69.5 29q42 0 70.5 -29t28.5 -71t-28.5 -71.5t-70.5 -29.5zM-99 607q28 0 47 20t19 49t-19 49t-47 20q-27 0 -46.5 -20t-19.5 -49t19.5 -49t46.5 -20z" />
    <glyph glyph-name="uni030B" unicode="&#x30b;" 
d="M-246 576q-6 0 -8.5 3.5t0.5 8.5l60 110q3 7 12 7h27q14 0 7 -12l-61 -110q-3 -7 -12 -7h-25zM-129 576q-14 0 -7 12l60 110q3 7 12 7h25q14 0 7 -12l-61 -110q-3 -7 -12 -7h-24z" />
    <glyph glyph-name="uni030C" unicode="&#x30c;" 
d="M-150 561q-7 0 -12 7l-66 102q-7 12 6 12h30q7 0 12 -7l48 -77q1 -2 3 -2t3 2l47 77q5 7 12 7h28q13 0 6 -12l-67 -102q-5 -7 -12 -7h-38z" />
    <glyph glyph-name="uni0312" unicode="&#x312;" 
d="M-38 692q14 0 7 -12l-62 -110q-5 -7 -12 -7h-31q-14 0 -7 12l69 110q5 7 12 7h24z" />
    <glyph glyph-name="uni0313" unicode="&#x313;" 
d="M-112 578q-14 0 -7 12l62 110q5 7 12 7h31q14 0 7 -12l-69 -110q-5 -7 -12 -7h-24z" />
    <glyph glyph-name="uni0326" unicode="&#x326;" 
d="M-136 -187q-14 0 -7 12l62 110q5 7 12 7h31q14 0 7 -12l-69 -110q-5 -7 -12 -7h-24z" />
    <glyph glyph-name="uni0327" unicode="&#x327;" 
d="M-102 -181q-8 1 -7 11l2 14q2 8 10 8q1 -1 4 -1q46 -6 53 38q7 49 -40 99q-4 4 -2.5 8t7.5 4h16q7 0 10 -3l4 -4q56 -52 44 -118q-7 -40 -37 -51.5t-64 -4.5z" />
    <glyph glyph-name="uni0328" unicode="&#x328;" 
d="M-4 -170q1 -10 -7 -11q-34 -7 -64 4.5t-37 51.5q-12 66 44 118l4 4q3 3 10 3h16q6 0 7.5 -4t-2.5 -8q-47 -50 -40 -99q7 -44 53 -38q3 0 4 1q8 0 10 -8z" />
    <glyph glyph-name="uni0335" unicode="&#x335;" 
d="M-265 598q0 10 10 10h245q10 0 10 -10v-17q0 -10 -10 -10h-245q-10 0 -10 10v17z" />
    <glyph glyph-name="uni0336" unicode="&#x336;" 
d="M-398 517q-10 0 -10 10v21q0 10 10 10h388q10 0 10 -10v-21q0 -10 -10 -10h-388z" />
    <glyph glyph-name="uni0337" unicode="&#x337;" 
d="M-268 143q-8 -6 -14 2l-15 18q-6 8 2 14l333 235q8 6 14 -2l15 -20q5 -8 -2 -14z" />
    <glyph glyph-name="uni0338" unicode="&#x338;" 
d="M-348 -36q-13 0 -8 12l311 759q3 8 11 8h21q13 0 8 -12l-311 -759q-3 -8 -11 -8h-21z" />
    <glyph glyph-name="uni0394" unicode="&#x394;" horiz-adv-x="540" 
d="M46 0q-10 0 -10 10v31q0 4 2 12l208 639q3 8 12 8h24q9 0 12 -8l208 -640q2 -8 2 -12v-30q0 -10 -10 -10h-448zM89 52q-3 -5 4 -5h354q7 0 4 5l-178 573q-1 2 -3 2t-3 -2z" />
    <glyph glyph-name="uni03A9" unicode="&#x3a9;" horiz-adv-x="478" 
d="M71 0q-10 0 -10 10v27q0 10 10 10h59q7 0 2 5q-57 43 -57 128v359q0 76 45.5 122.5t118.5 46.5q74 0 120 -46.5t46 -122.5v-359q0 -85 -57 -128q-5 -5 1 -5h58q10 0 10 -10v-27q0 -10 -10 -10h-132q-10 0 -10 10v28q0 8 9 11q32 7 55 39.5t23 77.5v375q0 53 -31.5 86.5
t-81.5 33.5q-49 0 -80 -33.5t-31 -86.5v-375q0 -46 22.5 -78t54.5 -39q9 -3 9 -11v-28q0 -10 -10 -10h-133z" />
    <glyph glyph-name="uni03BC" unicode="&#x3bc;" horiz-adv-x="424" 
d="M304 494q0 10 10 10h33q10 0 10 -10v-484q0 -10 -10 -10h-33q-10 0 -10 10v36q0 3 -2 3.5t-3 -1.5q-32 -55 -102 -55q-42 0 -72 18q-5 3 -5 -3v-198q0 -10 -10 -10h-33q-10 0 -10 10v684q0 10 10 10h33q10 0 10 -10v-343q0 -111 90 -111q44 0 69 32t25 88v334z" />
    <glyph glyph-name="pi" unicode="&#x3c0;" horiz-adv-x="500" 
d="M466 468q0 -10 -10 -10h-50q-4 0 -4 -4v-365q0 -24 10.5 -31.5t36.5 -8.5q10 0 10 -10v-29q0 -10 -10 -10q-24 0 -39.5 2.5t-31 9.5t-23 21t-7.5 36v385q0 4 -4 4h-183q-4 0 -4 -4v-444q0 -10 -10 -10h-33q-10 0 -10 10v444q0 4 -4 4h-56q-10 0 -10 10v26q0 10 10 10h412
q10 0 10 -10v-26z" />
    <glyph glyph-name="Wgrave" unicode="&#x1e80;" horiz-adv-x="606" 
d="M322 786q7 -12 -7 -12h-24q-7 0 -12 7l-68 110q-7 12 6 12h31q7 0 12 -7zM173 0q-9 0 -11 9l-131 680q-2 11 9 11h35q9 0 11 -9l103 -567q2 -6 4 0l87 567q1 9 10 9h31q9 0 10 -9l92 -567q2 -6 4 0l94 567q1 9 10 9h35q11 0 9 -11l-124 -680q-1 -9 -11 -9h-32q-8 0 -10 9
l-90 566q-2 6 -4 0l-89 -566q-1 -9 -10 -9h-32z" />
    <glyph glyph-name="wgrave" unicode="&#x1e81;" horiz-adv-x="539" 
d="M286 590q7 -12 -7 -12h-24q-7 0 -12 7l-68 110q-7 12 6 12h31q7 0 12 -7zM142 0q-10 0 -11 9l-105 484q-2 11 9 11h32q9 0 11 -9l80 -413q2 -8 4 0l81 413q1 9 11 9h30q10 0 11 -9l81 -413q2 -8 4 0l82 413q2 9 11 9l31 -1q11 0 9 -11l-106 -483q-1 -9 -11 -9h-34
q-10 0 -11 9l-81 393q-2 8 -4 0l-79 -393q-1 -9 -11 -9h-34z" />
    <glyph glyph-name="Wacute" unicode="&#x1e82;" horiz-adv-x="606" 
d="M273 774q-14 0 -7 12l62 110q5 7 12 7h31q14 0 7 -12l-69 -110q-5 -7 -12 -7h-24zM173 0q-9 0 -11 9l-131 680q-2 11 9 11h35q9 0 11 -9l103 -567q2 -6 4 0l87 567q1 9 10 9h31q9 0 10 -9l92 -567q2 -6 4 0l94 567q1 9 10 9h35q11 0 9 -11l-124 -680q-1 -9 -11 -9h-32
q-8 0 -10 9l-90 566q-2 6 -4 0l-89 -566q-1 -9 -10 -9h-32z" />
    <glyph glyph-name="wacute" unicode="&#x1e83;" horiz-adv-x="539" 
d="M237 578q-14 0 -7 12l62 110q5 7 12 7h31q14 0 7 -12l-69 -110q-5 -7 -12 -7h-24zM142 0q-10 0 -11 9l-105 484q-2 11 9 11h32q9 0 11 -9l80 -413q2 -8 4 0l81 413q1 9 11 9h30q10 0 11 -9l81 -413q2 -8 4 0l82 413q2 9 11 9l31 -1q11 0 9 -11l-106 -483q-1 -9 -11 -9
h-34q-10 0 -11 9l-81 393q-2 8 -4 0l-79 -393q-1 -9 -11 -9h-34z" />
    <glyph glyph-name="Wdieresis" unicode="&#x1e84;" horiz-adv-x="606" 
d="M244 797q-16 0 -27 11.5t-11 28.5t11 28.5t27 11.5t26 -11.5t10 -28.5t-10 -28.5t-26 -11.5zM366 797q-16 0 -27 11.5t-11 28.5t11 28.5t27 11.5t26 -11.5t10 -28.5t-10 -28.5t-26 -11.5zM173 0q-9 0 -11 9l-131 680q-2 11 9 11h35q9 0 11 -9l103 -567q2 -6 4 0l87 567
q1 9 10 9h31q9 0 10 -9l92 -567q2 -6 4 0l94 567q1 9 10 9h35q11 0 9 -11l-124 -680q-1 -9 -11 -9h-32q-8 0 -10 9l-90 566q-2 6 -4 0l-89 -566q-1 -9 -10 -9h-32z" />
    <glyph glyph-name="wdieresis" unicode="&#x1e85;" horiz-adv-x="539" 
d="M208 601q-16 0 -27 11.5t-11 28.5t11 28.5t27 11.5t26 -11.5t10 -28.5t-10 -28.5t-26 -11.5zM330 601q-16 0 -27 11.5t-11 28.5t11 28.5t27 11.5t26 -11.5t10 -28.5t-10 -28.5t-26 -11.5zM142 0q-10 0 -11 9l-105 484q-2 11 9 11h32q9 0 11 -9l80 -413q2 -8 4 0l81 413
q1 9 11 9h30q10 0 11 -9l81 -413q2 -8 4 0l82 413q2 9 11 9l31 -1q11 0 9 -11l-106 -483q-1 -9 -11 -9h-34q-10 0 -11 9l-81 393q-2 8 -4 0l-79 -393q-1 -9 -11 -9h-34z" />
    <glyph glyph-name="Ygrave" unicode="&#x1ef2;" horiz-adv-x="411" 
d="M224 786q7 -12 -7 -12h-24q-7 0 -12 7l-68 110q-7 12 6 12h31q7 0 12 -7zM189 0q-10 0 -10 10v310q0 4 -1 5l-138 363q-5 12 8 12h35q9 0 12 -8l108 -306q1 -2 3 -2t3 2l107 306q3 8 12 8h35q13 0 8 -12l-138 -363q-1 -1 -1 -5v-310q0 -10 -10 -10h-33z" />
    <glyph glyph-name="ygrave" unicode="&#x1ef3;" horiz-adv-x="353" 
d="M195 590q7 -12 -7 -12h-24q-7 0 -12 7l-68 110q-7 12 6 12h31q7 0 12 -7zM45 -200q-6 0 -6 10v26q0 10 6 10h5q43 1 61 29t38 122v6l-128 490q-3 11 9 11h35q9 0 11 -9l99 -416q2 -8 4 0l98 416q1 9 11 9l36 -1q12 0 8 -11l-141 -543q-24 -93 -51 -121t-89 -28h-6z" />
    <glyph glyph-name="endash" unicode="&#x2013;" horiz-adv-x="370" 
d="M44 259q-10 0 -10 10v27q0 10 10 10h281q10 0 10 -10v-27q0 -10 -10 -10h-281z" />
    <glyph glyph-name="emdash" unicode="&#x2014;" horiz-adv-x="592" 
d="M44 259q-10 0 -10 10v27q0 10 10 10h504q10 0 10 -10v-27q0 -10 -10 -10h-504z" />
    <glyph glyph-name="quoteleft" unicode="&#x2018;" horiz-adv-x="107" 
d="M12 501q-11 0 -8 11l56 180q3 8 12 8h23q12 0 9 -11l-47 -179q-2 -9 -11 -9h-34z" />
    <glyph glyph-name="quoteright" unicode="&#x2019;" horiz-adv-x="107" 
d="M95 700q11 0 8 -11l-56 -180q-3 -8 -12 -8h-23q-12 0 -9 11l47 179q2 9 11 9h34z" />
    <glyph glyph-name="quotesinglbase" unicode="&#x201a;" horiz-adv-x="600" 
d="M50 -74q-11 0 -9 11l34 208q1 9 10 9h28q11 0 9 -11l-42 -208q-2 -9 -11 -9h-19z" />
    <glyph glyph-name="quotedblleft" unicode="&#x201c;" horiz-adv-x="224" 
d="M12 501q-11 0 -8 11l63 180q3 8 12 8h22q12 0 9 -11l-54 -180q-3 -8 -11 -8h-33zM124 501q-11 0 -8 11l62 180q3 8 12 8h22q12 0 9 -11l-52 -180q-3 -8 -11 -8h-34z" />
    <glyph glyph-name="quotedblright" unicode="&#x201d;" horiz-adv-x="224" 
d="M100 700q11 0 8 -11l-62 -180q-3 -8 -12 -8h-22q-12 0 -9 11l52 180q3 8 11 8h34zM212 700q11 0 8 -11l-63 -180q-3 -8 -12 -8h-22q-12 0 -9 11l54 180q3 8 11 8h33z" />
    <glyph glyph-name="quotedblbase" unicode="&#x201e;" horiz-adv-x="209" 
d="M100 127q11 0 8 -11l-62 -180q-3 -8 -12 -8h-22q-12 0 -9 11l52 180q3 8 11 8h34zM212 127q11 0 8 -11l-63 -180q-3 -8 -12 -8h-22q-12 0 -9 11l54 180q3 8 11 8h33z" />
    <glyph glyph-name="dagger" unicode="&#x2020;" horiz-adv-x="329" 
d="M285 460q10 0 10 -10v-23q0 -10 -10 -10h-90q-4 0 -4 -4v-603q0 -10 -10 -10h-33q-10 0 -10 10v603q0 4 -4 4h-90q-10 0 -10 10v23q0 10 10 10h90q4 0 4 4v226q0 10 10 10h33q10 0 10 -10v-226q0 -4 4 -4h90z" />
    <glyph glyph-name="daggerdbl" unicode="&#x2021;" horiz-adv-x="329" 
d="M295 427q0 -10 -10 -10h-90q-4 0 -4 -4v-326q0 -4 4 -4h90q10 0 10 -10v-23q0 -10 -10 -10h-90q-4 0 -4 -4v-226q0 -10 -10 -10h-33q-10 0 -10 10v226q0 4 -4 4h-90q-10 0 -10 10v23q0 10 10 10h90q4 0 4 4v326q0 4 -4 4h-90q-10 0 -10 10v23q0 10 10 10h90q4 0 4 4v226
q0 10 10 10h33q10 0 10 -10v-226q0 -4 4 -4h90q10 0 10 -10v-23z" />
    <glyph glyph-name="bullet" unicode="&#x2022;" horiz-adv-x="292" 
d="M147 153q-46 0 -79.5 33t-33.5 79t33 78.5t80 32.5q45 0 78 -32.5t33 -78.5t-33 -79t-78 -33z" />
    <glyph glyph-name="ellipsis" unicode="&#x2026;" horiz-adv-x="615" 
d="M95 4q-20 0 -33.5 15.5t-13.5 37.5q0 21 14.5 36.5t32.5 15.5q19 0 33.5 -15.5t14.5 -36.5q0 -22 -14 -37.5t-34 -15.5zM306 4q-20 0 -33.5 15.5t-13.5 37.5q0 21 14.5 36.5t32.5 15.5q19 0 33.5 -15.5t14.5 -36.5q0 -22 -14 -37.5t-34 -15.5zM517 4q-20 0 -33.5 15.5
t-13.5 37.5q0 21 14.5 36.5t32.5 15.5q19 0 33.5 -15.5t14.5 -36.5q0 -22 -14 -37.5t-34 -15.5z" />
    <glyph glyph-name="perthousand" unicode="&#x2030;" horiz-adv-x="1004" 
d="M132 275q-46 0 -73 29.5t-27 77.5v219q0 48 27.5 77.5t72.5 29.5q46 0 74 -30t28 -77v-219q0 -48 -28 -77.5t-74 -29.5zM141 0q-13 0 -6 12l436 681q5 7 12 7h21q13 0 6 -12l-436 -681q-5 -7 -12 -7h-21zM132 311q28 0 45 19t17 50v223q0 31 -17 50t-45 19
q-27 0 -43.5 -19t-16.5 -50v-223q0 -31 16.5 -50t43.5 -19zM606 -8q-46 0 -73 29.5t-27 77.5v219q0 48 27.5 77.5t72.5 29.5q46 0 74 -30t28 -77v-219q0 -48 -28 -77.5t-74 -29.5zM871 -8q-46 0 -73 29.5t-27 77.5v219q0 48 27.5 77.5t72.5 29.5q46 0 74 -30t28 -77v-219
q0 -48 -28 -77.5t-74 -29.5zM606 28q28 0 45 19t17 50v223q0 31 -17 50t-45 19q-27 0 -43.5 -19t-16.5 -50v-223q0 -31 16.5 -50t43.5 -19zM871 28q28 0 45 19t17 50v223q0 31 -17 50t-45 19q-27 0 -43.5 -19t-16.5 -50v-223q0 -31 16.5 -50t43.5 -19z" />
    <glyph glyph-name="guilsinglleft" unicode="&#x2039;" horiz-adv-x="313" 
d="M225 119q4 -5 2 -8.5t-8 -3.5h-29q-8 0 -12 6l-113 161q-4 7 0 14l113 161q4 6 12 6h29q6 0 8 -3.5t-2 -8.5l-112 -159q-1 -3 0 -6z" />
    <glyph glyph-name="guilsinglright" unicode="&#x203a;" horiz-adv-x="332" 
d="M94 107q-6 0 -8 3.5t2 8.5l112 159q2 3 0 6l-112 159q-4 5 -2 8.5t8 3.5h29q8 0 12 -6l113 -161q4 -7 0 -14l-113 -161q-4 -6 -12 -6h-29z" />
    <glyph glyph-name="fraction" unicode="&#x2044;" horiz-adv-x="227" 
d="M-114 0q-13 0 -6 12l436 681q5 7 12 7h21q13 0 6 -12l-436 -681q-5 -7 -12 -7h-21z" />
    <glyph glyph-name="uni2074" unicode="&#x2074;" horiz-adv-x="238" 
d="M215 601q10 0 10 -10v-17q0 -10 -10 -10h-13q-4 0 -4 -4v-101q0 -10 -10 -10h-20q-10 0 -10 10v101q0 4 -4 4h-130q-10 0 -10 10v16q0 4 2 12l88 259q3 8 12 8h22q11 0 8 -11l-84 -252q-2 -5 3 -5h89q4 0 4 4v88q0 10 10 10h20q10 0 10 -10v-88q0 -4 4 -4h13z" />
    <glyph glyph-name="uni2075" unicode="&#x2075;" horiz-adv-x="232" 
d="M203 637q7 -22 7 -62q0 -37 -5 -56q-15 -77 -90 -77q-79 0 -91 83q-1 3 -3 28q0 10 10 10h20q10 0 10 -10q0 -4 0.5 -12t1.5 -11q10 -52 52 -52q40 0 50 45q6 21 6 52t-6 51q-11 44 -50 44q-42 0 -51 -39q-3 -9 -11 -9h-22q-10 0 -10 10v225q0 10 10 10h160q10 0 10 -10
v-16q0 -10 -10 -10h-125q-4 0 -4 -4l-1 -140q0 -5 5 -2q21 21 60 21q62 0 77 -69z" />
    <glyph glyph-name="uni2076" unicode="&#x2076;" horiz-adv-x="245" 
d="M214 640q9 -27 9 -65q0 -41 -8 -65q-17 -68 -87 -68t-88 70q-7 24 -7 61v196q-1 46 25.5 74.5t68.5 28.5q39 0 64 -28.5t25 -74.5v-5q0 -10 -10 -10h-20q-10 0 -10 7v7q0 29 -14 48t-35 19q-24 0 -39 -18.5t-15 -48.5v-86q0 -6 5 -1q21 27 57 27q63 0 79 -68zM175 519
q7 28 7 57q0 31 -7 61q-14 38 -48 38q-36 0 -48 -41q-6 -26 -6 -58q0 -33 5 -53q12 -45 49 -45q36 0 48 41z" />
    <glyph glyph-name="uni2077" unicode="&#x2077;" horiz-adv-x="214" 
d="M69 449q-12 0 -9 11l100 370q2 4 -4 4h-108q-4 0 -4 -4v-33q0 -10 -10 -10h-14q-10 0 -10 10l1 62q0 10 10 10h173q10 0 10 -10v-19q0 -2 -2 -12l-101 -370q-2 -9 -11 -9h-21z" />
    <glyph glyph-name="uni2078" unicode="&#x2078;" horiz-adv-x="253" 
d="M175 672q-5 -3 0 -6q32 -19 42 -59q4 -24 4 -44q0 -26 -4 -44q-8 -34 -32.5 -55.5t-58.5 -21.5q-66 0 -88 77q-6 19 -6 44q0 26 5 45q8 38 40 58q5 3 0 6q-32 18 -40 56q-5 19 -5 37q0 21 5 37q20 70 89 70q34 0 58 -18.5t33 -51.5q5 -23 5 -38q0 -14 -5 -36
q-10 -39 -42 -56zM71 761q0 -13 2 -21q10 -54 53 -54q40 0 54 54q1 7 1 22q0 13 -1 21q-13 54 -54 54q-22 0 -36 -14.5t-17 -39.5q-2 -12 -2 -22zM180 536q1 12 1 30t-1 28q-5 27 -19 43.5t-35 16.5q-22 0 -36.5 -17t-16.5 -43q-1 -10 -1 -28q0 -19 1 -30q1 -26 16 -42
t37 -16q21 0 35.5 15.5t18.5 42.5z" />
    <glyph glyph-name="uni2079" unicode="&#x2079;" horiz-adv-x="245" 
d="M212 544q1 -46 -25.5 -74.5t-68.5 -28.5q-39 0 -64 28.5t-25 74.5v5q0 10 10 10h20q10 0 10 -7v-7q0 -29 14 -48t35 -19q24 0 39 18.5t15 48.5v86q0 6 -5 1q-21 -27 -57 -27q-63 0 -79 68q-9 27 -9 65q0 41 8 65q17 68 87 68t88 -70q7 -24 7 -61v-196zM118 638
q36 0 48 41q6 25 6 58t-5 53q-12 45 -49 45q-36 0 -48 -41q-7 -28 -7 -57q0 -31 7 -61q14 -38 48 -38z" />
    <glyph glyph-name="franc" unicode="&#x20a3;" horiz-adv-x="474" 
d="M455 663q0 -10 -10 -10h-235q-4 0 -4 -4v-271q0 -4 4 -4h151q10 0 10 -10v-27q0 -10 -10 -10h-151q-4 0 -4 -4v-135q0 -4 4 -4h124q10 0 10 -10v-17q0 -10 -10 -10h-124q-4 0 -4 -4v-133q0 -10 -10 -10h-33q-10 0 -10 10v133q0 4 -4 4h-60q-10 0 -10 10v17q0 10 10 10h60
q4 0 4 4v502q0 10 10 10h282q10 0 10 -10v-27z" />
    <glyph glyph-name="Euro" unicode="&#x20ac;" horiz-adv-x="482" 
d="M278 39q41 0 66.5 27.5t29.5 73.5q0 5 3 8t7 2l33 -5q10 -2 9 -11q-6 -65 -46 -103.5t-102 -38.5q-67 0 -107.5 45.5t-40.5 121.5v111q0 4 -4 4h-55q-10 0 -10 10v14q0 10 10 10h55q4 0 4 4v72q0 4 -4 4h-55q-10 0 -10 10v15q0 10 10 10h55q4 0 4 4v116q0 75 40.5 120
t107.5 45q63 0 103 -38.5t46 -103.5q1 -9 -9 -11l-33 -5q-11 -2 -11 9q-3 47 -29 74.5t-67 27.5q-43 0 -69 -31.5t-26 -83.5v-119q0 -4 4 -4h178q12 0 7 -12l-6 -15q-3 -8 -11 -8h-168q-4 0 -4 -4v-72q0 -4 4 -4h146q13 0 8 -12l-7 -14q-3 -8 -11 -8h-136q-4 0 -4 -4v-115
q0 -52 26 -84t69 -32z" />
    <glyph glyph-name="uni20BA" unicode="&#x20ba;" horiz-adv-x="556" 
d="M492 265q10 0 10 -10q-2 -96 -63.5 -165t-167.5 -84q-42 -6 -86 -6q-10 0 -10 10v312q0 6 -5 4l-89 -28q-10 -3 -13 7l-4 15q-3 10 6 13l102 31q3 2 3 4v64q0 6 -5 4l-89 -28q-10 -3 -13 7l-4 15q-3 10 6 13l102 31q3 2 3 4v212q0 10 10 10h33q10 0 10 -10v-194
q0 -6 5 -4l121 38q10 3 13 -7l4 -15q3 -10 -6 -13l-134 -41q-3 -2 -3 -4v-63q0 -7 5 -4l121 38q10 3 13 -7l4 -15q3 -10 -6 -13l-134 -41q-3 -1 -3 -4v-291q0 -4 4 -4q97 6 155.5 64t61.5 145q0 10 10 10h33z" />
    <glyph glyph-name="uni20BD" unicode="&#x20bd;" horiz-adv-x="506" 
d="M315 325h-110q-4 0 -4 -4v-92q0 -4 4 -4h165q10 0 10 -10v-16q0 -10 -10 -10h-165q-4 0 -4 -4v-175q0 -10 -10 -10h-33q-10 0 -10 10v175q0 4 -4 4h-55q-10 0 -10 10v16q0 10 10 10h55q4 0 4 4v92q0 4 -4 4h-55q-10 0 -10 10v24q0 10 10 10h55q4 0 4 4v319q0 10 10 10
h155q70 0 113.5 -52.5t43.5 -137.5t-42.5 -136t-112.5 -51zM205 654q-4 0 -4 -4v-277q0 -4 4 -4h102q50 0 80 39t30 103q0 65 -30 104t-80 39h-102z" />
    <glyph glyph-name="uni2113" unicode="&#x2113;" horiz-adv-x="420" 
d="M253 34q45 0 76 29q9 9 14 -1l10 -20q3 -8 -2 -13q-37 -37 -106 -37q-56 0 -86.5 39.5t-30.5 110.5l-1 116q0 7 -5 2l-34 -30q-8 -8 -13 2l-10 17q-4 8 2 14q38 34 58 50q2 2 2 5l-1 185q-1 78 33.5 139t90.5 66q47 4 77.5 -32.5t30.5 -93.5q0 -74 -47.5 -137
t-135.5 -140q-2 -2 -2 -5v-152q0 -114 80 -114zM172 497v-135q0 -6 5 -3q65 59 101 111t36 108q0 41 -17.5 67t-45.5 22q-34 -5 -57 -52.5t-22 -117.5z" />
    <glyph glyph-name="trademark" unicode="&#x2122;" horiz-adv-x="508" 
d="M28 668q-10 0 -10 10v12q0 10 10 10h174q10 0 10 -10v-12q0 -10 -10 -10h-67q-4 0 -4 -4v-305q0 -10 -10 -10h-16q-10 0 -10 10v305q0 4 -4 4h-63zM429 693q3 7 12 7h17q10 0 10 -10v-331q0 -10 -10 -10h-16q-10 0 -10 10v266q-1 4 -5 1l-50 -105q-3 -7 -8 -7q-6 0 -9 7
l-51 106q-3 3 -5 -1v-267q0 -10 -10 -10h-17q-10 0 -10 10v331q0 10 10 10h18q9 0 12 -7l57 -119q1 -2 3 -2t3 2z" />
    <glyph glyph-name="uni2126" unicode="&#x2126;" horiz-adv-x="478" 
d="M71 0q-10 0 -10 10v27q0 10 10 10h59q7 0 2 5q-57 43 -57 128v359q0 76 45.5 122.5t118.5 46.5q74 0 120 -46.5t46 -122.5v-359q0 -85 -57 -128q-5 -5 1 -5h58q10 0 10 -10v-27q0 -10 -10 -10h-132q-10 0 -10 10v28q0 8 9 11q32 7 55 39.5t23 77.5v375q0 53 -31.5 86.5
t-81.5 33.5q-49 0 -80 -33.5t-31 -86.5v-375q0 -46 22.5 -78t54.5 -39q9 -3 9 -11v-28q0 -10 -10 -10h-133z" />
    <glyph glyph-name="estimated" unicode="&#x212e;" horiz-adv-x="850" 
d="M425 708q158 0 261 -102.5t103 -258.5q0 -4 -10 -4h-631q-4 0 -4 -4v-180q0 -3 2 -5q45 -64 117.5 -100.5t161.5 -36.5q97 0 175.5 45.5t120.5 123.5q4 7 12 7h10q5 0 7.5 -3.5t-0.5 -8.5q-45 -87 -131.5 -138t-193.5 -51q-158 0 -261 101.5t-103 253.5q0 156 103 258.5
t261 102.5zM147 546q-2 -1 -2 -5v-169q0 -4 4 -4h551q4 0 4 4v169q0 3 -2 5q-45 64 -117 100.5t-160 36.5t-160.5 -36.5t-117.5 -100.5z" />
    <glyph glyph-name="oneeighth" unicode="&#x215b;" horiz-adv-x="679" 
d="M78 280q-10 0 -10 10v365q0 5 -5 3l-21 -8q-12 -3 -12 8v11q0 7 7 12l25 15q8 4 13 4h24q10 0 10 -10v-400q0 -10 -10 -10h-21zM507 693q5 7 12 7h21q13 0 6 -12l-436 -681q-5 -7 -12 -7h-21q-13 0 -6 12zM601 223q-5 -3 0 -6q32 -19 42 -59q4 -24 4 -44q0 -26 -4 -44
q-8 -34 -32.5 -55.5t-58.5 -21.5q-66 0 -88 77q-6 19 -6 44q0 26 5 45q8 38 40 58q5 3 0 6q-32 18 -40 56q-5 19 -5 37q0 21 5 37q20 70 89 70q34 0 58 -18.5t33 -51.5q5 -23 5 -38q0 -14 -5 -36q-10 -39 -42 -56zM497 312q0 -13 2 -21q10 -54 53 -54q40 0 54 54q1 7 1 22
q0 13 -1 21q-13 54 -54 54q-22 0 -36 -14.5t-17 -39.5q-2 -12 -2 -22zM606 87q1 12 1 30t-1 28q-5 27 -19 43.5t-35 16.5q-22 0 -36.5 -17t-16.5 -43q-1 -10 -1 -28q0 -19 1 -30q1 -26 16 -42t37 -16q21 0 35.5 15.5t18.5 42.5z" />
    <glyph glyph-name="threeeighths" unicode="&#x215c;" horiz-adv-x="746" 
d="M574 693q5 7 12 7h21q13 0 6 -12l-436 -681q-5 -7 -12 -7h-21q-13 0 -6 12zM208 338q-17 -65 -87 -65q-38 0 -64 24t-31 63q-2 22 -2 34q0 10 10 10h20q10 0 10 -10q0 -11 2 -25q8 -60 55 -60q36 0 50 39q9 31 9 60q0 30 -6 53q-12 49 -53 49q-5 0 -11 -2q-10 -2 -14 3
l-9 10q-5 7 -1 14l80 123q1 3 -3 5h-127q-10 0 -10 10v15q0 10 10 10h169q10 0 10 -10v-18q0 -5 -4 -13l-72 -113q-1 -2 -0.5 -3.5t2.5 -1.5q26 -3 44.5 -23t25.5 -52t7 -60q0 -40 -10 -66zM668 223q-4 -3 0 -6q32 -19 42 -59q4 -24 4 -44q0 -26 -4 -44q-8 -34 -32.5 -55.5
t-58.5 -21.5q-66 0 -88 77q-6 19 -6 44q0 26 5 45q8 38 40 58q4 3 0 6q-32 18 -40 56q-5 19 -5 37q0 21 5 37q20 70 89 70q34 0 58 -18.5t33 -51.5q5 -23 5 -38q0 -14 -5 -36q-10 -39 -42 -56zM564 312q0 -13 2 -21q10 -54 53 -54q41 0 54 54q1 7 1 22q0 13 -1 21
q-13 54 -54 54q-22 0 -36 -14.5t-17 -39.5q-2 -12 -2 -22zM673 87q1 12 1 30t-1 28q-5 27 -19 43.5t-35 16.5q-22 0 -36.5 -17t-16.5 -43q-1 -10 -1 -28q0 -19 1 -30q1 -26 16 -42t37 -16q21 0 35.5 15.5t18.5 42.5z" />
    <glyph glyph-name="fiveeighths" unicode="&#x215d;" horiz-adv-x="696" 
d="M524 693q5 7 12 7h21q13 0 6 -12l-436 -681q-5 -7 -12 -7h-21q-13 0 -6 12zM205 350q-15 -77 -90 -77q-79 0 -91 83q-1 3 -3 28q0 10 10 10h20q10 0 10 -10q0 -4 0.5 -12t1.5 -11q10 -52 52 -52q40 0 50 45q6 21 6 52q0 32 -6 51q-11 44 -50 44q-42 0 -51 -39
q-3 -9 -11 -9h-22q-10 0 -10 10v225q0 10 10 10h160q10 0 10 -10v-16q0 -10 -10 -10h-125q-4 0 -4 -4l-1 -140q0 -5 5 -2q21 21 60 21q62 0 77 -69q7 -22 7 -62q0 -37 -5 -56zM618 223q-4 -3 0 -6q32 -19 42 -59q4 -24 4 -44q0 -26 -4 -44q-8 -34 -32.5 -55.5t-58.5 -21.5
q-66 0 -88 77q-6 19 -6 44q0 26 5 45q8 38 40 58q4 3 0 6q-32 18 -40 56q-5 19 -5 37q0 21 5 37q20 70 89 70q34 0 58 -18.5t33 -51.5q5 -23 5 -38q0 -14 -5 -36q-10 -39 -42 -56zM514 312q0 -13 2 -21q10 -54 53 -54q41 0 54 54q1 7 1 22q0 13 -1 21q-13 54 -54 54
q-22 0 -36 -14.5t-17 -39.5q-2 -12 -2 -22zM623 87q1 12 1 30t-1 28q-5 27 -19 43.5t-35 16.5q-22 0 -36.5 -17t-16.5 -43q-1 -10 -1 -28q0 -19 1 -30q1 -26 16 -42t37 -16q21 0 35.5 15.5t18.5 42.5z" />
    <glyph glyph-name="seveneighths" unicode="&#x215e;" horiz-adv-x="660" 
d="M48 665q-4 0 -4 -4v-33q0 -10 -10 -10h-14q-10 0 -10 10l1 62q0 10 10 10h173q10 0 10 -10v-19q0 -2 -2 -12l-101 -370q-2 -9 -11 -9h-21q-12 0 -9 11l100 370q2 4 -4 4h-108zM488 693q5 7 12 7h21q13 0 6 -12l-436 -681q-5 -7 -12 -7h-21q-13 0 -6 12zM582 223
q-4 -3 0 -6q32 -19 42 -59q4 -24 4 -44q0 -26 -4 -44q-8 -34 -32.5 -55.5t-58.5 -21.5q-66 0 -88 77q-6 19 -6 44q0 26 5 45q8 38 40 58q4 3 0 6q-32 18 -40 56q-5 19 -5 37q0 21 5 37q20 70 89 70q34 0 58 -18.5t33 -51.5q5 -23 5 -38q0 -14 -5 -36q-10 -39 -42 -56z
M478 312q0 -13 2 -21q10 -54 53 -54q41 0 54 54q1 7 1 22q0 13 -1 21q-13 54 -54 54q-22 0 -36 -14.5t-17 -39.5q-2 -12 -2 -22zM587 87q1 12 1 30t-1 28q-5 27 -19 43.5t-35 16.5q-22 0 -36.5 -17t-16.5 -43q-1 -10 -1 -28q0 -19 1 -30q1 -26 16 -42t37 -16q21 0 35.5 15.5
t18.5 42.5z" />
    <glyph glyph-name="partialdiff" unicode="&#x2202;" horiz-adv-x="536" 
d="M396 625q41 -56 57.5 -141t13.5 -172q-1 -60 -11.5 -112t-32.5 -101t-65 -78t-103 -29q-89 0 -144.5 58t-55.5 157q0 101 59 161.5t143 60.5q92 -1 156 -72q5 -3 5 2q-10 161 -61 233q-38 56 -104 65q-56 6 -111 -27q-11 -6 -14 4l-10 27q-4 9 5 14q71 37 132 31
q89 -7 141 -81zM259 39q72 0 111.5 62t46.5 174q0 4 -1 5q-20 44 -61 73t-92 29q-66 0 -110.5 -48.5t-44.5 -126.5q0 -76 42.5 -122t108.5 -46z" />
    <glyph glyph-name="uni2206" unicode="&#x2206;" horiz-adv-x="540" 
d="M46 0q-10 0 -10 10v31q0 4 2 12l208 639q3 8 12 8h24q9 0 12 -8l208 -640q2 -8 2 -12v-30q0 -10 -10 -10h-448zM89 51q-3 -5 4 -5h354q7 0 4 5l-178 574q-1 2 -3 2t-3 -2z" />
    <glyph glyph-name="product" unicode="&#x220f;" horiz-adv-x="471" 
d="M382 800q10 0 10 -10v-980q0 -10 -10 -10h-33q-10 0 -10 10v939q0 4 -4 4h-199q-4 0 -4 -4v-939q0 -10 -10 -10h-33q-10 0 -10 10v980q0 10 10 10h293z" />
    <glyph glyph-name="summation" unicode="&#x2211;" horiz-adv-x="512" 
d="M89 -199q-10 0 -10 10v29q0 6 3 13l218 441q1 2 -1 6l-216 366q-3 6 -3 13v29q0 10 10 10h368q10 0 10 -10v-26q0 -10 -10 -10h-320q-6 0 -3 -5l218 -363q4 -6 1 -14l-220 -438q-2 -5 3 -5h321q10 0 10 -10v-26q0 -10 -10 -10h-369z" />
    <glyph glyph-name="minus" unicode="&#x2212;" horiz-adv-x="443" 
d="M44 297q-10 0 -10 10v23q0 10 10 10h354q10 0 10 -10v-23q0 -10 -10 -10h-354z" />
    <glyph glyph-name="uni2215" unicode="&#x2215;" horiz-adv-x="399" 
d="M37 0q-13 0 -8 12l292 680q3 8 11 8h29q13 0 8 -12l-291 -680q-3 -8 -11 -8h-30z" />
    <glyph glyph-name="uni2219" unicode="&#x2219;" horiz-adv-x="292" 
d="M147 202q-47 0 -80 33t-33 80q0 46 33 78t80 32q45 0 78 -32t33 -78t-33 -79.5t-78 -33.5z" />
    <glyph glyph-name="radical" unicode="&#x221a;" horiz-adv-x="629" 
d="M152 -200q-9 0 -12 8l-113 344q-3 10 7 13l29 10q10 3 13 -7l86 -275q1 -2 2.5 -2t2.5 2l208 887q2 9 11 9h166q10 0 10 -10v-26q0 -10 -10 -10h-129q-5 0 -5 -3l-221 -931q-2 -9 -11 -9h-34z" />
    <glyph glyph-name="infinity" unicode="&#x221e;" horiz-adv-x="634" 
d="M469 472q55 0 92.5 -43t37.5 -110t-38 -109.5t-93 -42.5q-78 0 -153 110q-3 3 -6 0q-75 -110 -149 -110q-52 0 -89 43.5t-37 109.5q0 68 38 110t90 42q74 0 147 -109q3 -3 6 0q75 109 154 109zM161 211q30 0 58 25.5t66 81.5q1 3 0 6q-35 53 -62.5 78.5t-58.5 25.5
q-35 0 -60.5 -29t-25.5 -79q0 -48 24 -78.5t59 -30.5zM467 211q37 0 63 29.5t26 78.5q0 48 -25 78.5t-62 30.5q-59 0 -130 -105q-1 -3 0 -6q20 -31 35.5 -51t41 -37.5t51.5 -17.5z" />
    <glyph glyph-name="integral" unicode="&#x222b;" horiz-adv-x="318" 
d="M40 -208q-10 0 -10 10v28q0 10 10 10h15q43 0 58.5 29.5t15.5 90.5l1 591q0 90 31 122.5t113 34.5q10 0 10 -10v-28q0 -10 -10 -10h-15q-43 0 -58.5 -29.5t-16.5 -90.5l-1 -591q0 -90 -31 -122.5t-112 -34.5z" />
    <glyph glyph-name="approxequal" unicode="&#x2248;" horiz-adv-x="454" 
d="M318 372q-20 0 -40.5 6.5t-29.5 11t-31 17.5q-40 25 -71 25q-46 0 -73 -42q-5 -10 -14 -4l-17 11q-8 6 -4 13q32 70 105 70q38 0 82 -27q54 -33 92 -33q20 0 33 10t30 30q7 9 14 3l17 -12q7 -6 3 -13q-39 -66 -96 -66zM318 162q-20 0 -40.5 6.5t-29.5 11t-31 17.5
q-40 25 -71 25q-46 0 -73 -42q-5 -10 -14 -4l-17 11q-8 6 -4 13q32 70 105 70q38 0 82 -27q54 -33 92 -33q20 0 33 10t30 30q7 9 14 3l17 -12q7 -6 3 -13q-39 -66 -96 -66z" />
    <glyph glyph-name="notequal" unicode="&#x2260;" horiz-adv-x="443" 
d="M408 427q0 -10 -10 -10h-123q-3 0 -4 -3l-78 -160q-2 -5 3 -5h202q10 0 10 -10v-23q0 -10 -10 -10h-225q-3 0 -4 -3l-42 -88q-3 -7 -12 -7h-17q-12 0 -7 12l39 81q2 5 -3 5h-83q-10 0 -10 10v23q0 10 10 10h106q2 0 4 3l77 160q2 5 -3 5h-184q-10 0 -10 10v23q0 10 10 10
h207q3 0 4 3l42 89q3 7 12 7h18q12 0 7 -12l-40 -82q-2 -5 3 -5h101q10 0 10 -10v-23z" />
    <glyph glyph-name="lessequal" unicode="&#x2264;" horiz-adv-x="443" 
d="M409 117q0 -5 -3.5 -7.5t-8.5 0.5l-355 178q-7 3 -7 12v33q0 9 7 12l355 178q5 3 8.5 0.5t3.5 -7.5v-32q0 -8 -7 -12l-312 -152q-4 -3 0 -6l312 -153q7 -4 7 -12v-32zM409 42q0 -10 -10 -10h-354q-10 0 -10 10v23q0 10 10 10h354q10 0 10 -10v-23z" />
    <glyph glyph-name="greaterequal" unicode="&#x2265;" horiz-adv-x="443" 
d="M46 110q-5 -3 -8.5 -0.5t-3.5 7.5v32q0 8 7 12l312 153q5 3 0 6l-312 152q-7 4 -7 12v32q0 5 3.5 7.5t8.5 -0.5l355 -178q7 -3 7 -12v-33q0 -9 -7 -12zM44 32q-10 0 -10 10v23q0 10 10 10h354q10 0 10 -10v-23q0 -10 -10 -10h-354z" />
    <glyph glyph-name="lozenge" unicode="&#x25ca;" horiz-adv-x="393" 
d="M184 -44q-9 0 -12 8l-136 379q-4 7 0 14l137 379q3 8 12 8h24q9 0 12 -8l136 -379q3 -7 0 -14l-135 -379q-3 -8 -12 -8h-26zM194 17q1 -2 3 -2t3 2l112 330q2 3 0 6l-112 328q-1 2 -3 2t-3 -2l-112 -328q-2 -3 0 -6z" />
    <glyph glyph-name="i.loclTRK" horiz-adv-x="180" 
d="M89 593q-16 0 -26.5 11t-10.5 28t10.5 28t26.5 11q15 0 24.5 -11t9.5 -28t-9.5 -28t-24.5 -11zM72 0q-10 0 -10 10v484q0 10 10 10h33q10 0 10 -10v-484q0 -10 -10 -10h-33z" />
    <glyph glyph-name="a.alt" horiz-adv-x="417" 
d="M297 494q0 10 10 10h33q10 0 10 -10v-484q0 -10 -10 -10h-33q-10 0 -10 10v33q0 3 -1.5 3.5t-3.5 -2.5q-34 -52 -101 -52q-60 0 -96.5 41.5t-38.5 107.5q0 19 -0.5 57t-0.5 56t0.5 55t0.5 55q2 65 38.5 106.5t96.5 41.5q67 0 101 -52q2 -3 3.5 -2.5t1.5 3.5v33zM204 39
q41 0 67 30t26 78v210q0 48 -26 78t-67 30q-42 0 -69 -30t-27 -78v-210q0 -48 26.5 -78t69.5 -30z" />
    <glyph glyph-name="a.sc" horiz-adv-x="393" 
d="M316 0q-10 0 -11 9l-22 102q0 4 -5 4h-164q-5 0 -5 -4l-23 -102q-2 -9 -11 -9h-33q-12 0 -8 11l130 556q2 9 11 9h40q9 0 11 -9l133 -556q3 -11 -8 -11h-35zM121 163q-2 -4 4 -4h143q5 0 3 4l-72 329q-2 8 -4 0z" />
    <glyph glyph-name="aacute.sc" horiz-adv-x="393" 
d="M263 779q14 0 7 -12l-69 -110q-5 -7 -12 -7h-24q-14 0 -7 12l62 110q5 7 12 7h31zM316 0q-10 0 -11 9l-22 102q0 4 -5 4h-164q-5 0 -5 -4l-23 -102q-2 -9 -11 -9h-33q-12 0 -8 11l130 556q2 9 11 9h40q9 0 11 -9l133 -556q3 -11 -8 -11h-35zM121 163q-2 -4 4 -4h143
q5 0 3 4l-72 329q-2 8 -4 0z" />
    <glyph glyph-name="abreve.sc" horiz-adv-x="393" 
d="M196 616q-40 0 -68.5 26t-32.5 66q0 10 10 10h15q10 0 11 -10q3 -26 21.5 -43.5t43.5 -17.5t43.5 17.5t21.5 43.5q1 10 11 10h15q10 0 10 -10q-4 -40 -32 -66t-69 -26zM316 0q-10 0 -11 9l-22 102q0 4 -5 4h-164q-5 0 -5 -4l-23 -102q-2 -9 -11 -9h-33q-12 0 -8 11
l130 556q2 9 11 9h40q9 0 11 -9l133 -556q3 -11 -8 -11h-35zM121 163q-2 -4 4 -4h143q5 0 3 4l-72 329q-2 8 -4 0z" />
    <glyph glyph-name="uni01CE.sc" horiz-adv-x="393" 
d="M226 638q-5 -7 -12 -7h-38q-7 0 -12 7l-66 102q-7 12 6 12h30q7 0 12 -7l48 -77q1 -2 3 -2t3 2l47 77q5 7 12 7h28q13 0 6 -12zM316 0q-10 0 -11 9l-22 102q0 4 -5 4h-164q-5 0 -5 -4l-23 -102q-2 -9 -11 -9h-33q-12 0 -8 11l130 556q2 9 11 9h40q9 0 11 -9l133 -556
q3 -11 -8 -11h-35zM121 163q-2 -4 4 -4h143q5 0 3 4l-72 329q-2 8 -4 0z" />
    <glyph glyph-name="acircumflex.sc" horiz-adv-x="393" 
d="M199 725q-1 1 -3 1t-3 -1l-47 -76q-5 -7 -12 -7h-31q-13 0 -6 12l66 102q5 7 12 7h40q7 0 12 -6l68 -103q3 -4 1 -8t-8 -4h-31q-7 0 -12 7zM316 0q-10 0 -11 9l-22 102q0 4 -5 4h-164q-5 0 -5 -4l-23 -102q-2 -9 -11 -9h-33q-12 0 -8 11l130 556q2 9 11 9h40q9 0 11 -9
l133 -556q3 -11 -8 -11h-35zM121 163q-2 -4 4 -4h143q5 0 3 4l-72 329q-2 8 -4 0z" />
    <glyph glyph-name="adieresis.sc" horiz-adv-x="393" 
d="M136 673q-16 0 -27 11.5t-11 28.5t11 28.5t27 11.5t26 -11.5t10 -28.5t-10 -28.5t-26 -11.5zM258 673q-16 0 -27 11.5t-11 28.5t11 28.5t27 11.5t26 -11.5t10 -28.5t-10 -28.5t-26 -11.5zM316 0q-10 0 -11 9l-22 102q0 4 -5 4h-164q-5 0 -5 -4l-23 -102q-2 -9 -11 -9h-33
q-12 0 -8 11l130 556q2 9 11 9h40q9 0 11 -9l133 -556q3 -11 -8 -11h-35zM121 163q-2 -4 4 -4h143q5 0 3 4l-72 329q-2 8 -4 0z" />
    <glyph glyph-name="agrave.sc" horiz-adv-x="393" 
d="M214 662q7 -12 -7 -12h-24q-7 0 -12 7l-68 110q-7 12 6 12h31q7 0 12 -7zM316 0q-10 0 -11 9l-22 102q0 4 -5 4h-164q-5 0 -5 -4l-23 -102q-2 -9 -11 -9h-33q-12 0 -8 11l130 556q2 9 11 9h40q9 0 11 -9l133 -556q3 -11 -8 -11h-35zM121 163q-2 -4 4 -4h143q5 0 3 4
l-72 329q-2 8 -4 0z" />
    <glyph glyph-name="amacron.sc" horiz-adv-x="393" 
d="M285 711q10 0 10 -10v-20q0 -10 -10 -10h-179q-10 0 -10 10v20q0 10 10 10h179zM316 0q-10 0 -11 9l-22 102q0 4 -5 4h-164q-5 0 -5 -4l-23 -102q-2 -9 -11 -9h-33q-12 0 -8 11l130 556q2 9 11 9h40q9 0 11 -9l133 -556q3 -11 -8 -11h-35zM121 163q-2 -4 4 -4h143
q5 0 3 4l-72 329q-2 8 -4 0z" />
    <glyph glyph-name="aogonek.sc" horiz-adv-x="413" 
d="M364 -149q10 3 12 -7l2 -14q1 -10 -7 -11q-34 -7 -64 4.5t-37 51.5q-12 67 45 120q5 5 4 5h-3q-10 0 -11 9l-22 102q0 4 -5 4h-164q-5 0 -5 -4l-23 -102q-2 -9 -11 -9h-33q-12 0 -8 11l130 556q2 9 11 9h40q9 0 11 -9l134 -559l2 -8h-1q-60 -56 -52 -111q6 -45 55 -38z
M121 163q-2 -4 4 -4h143q5 0 3 4l-72 329q-2 8 -4 0z" />
    <glyph glyph-name="aring.sc" horiz-adv-x="393" 
d="M196 647q-41 0 -69.5 29.5t-28.5 71.5t28.5 71t69.5 29q42 0 70.5 -29t28.5 -71t-28.5 -71.5t-70.5 -29.5zM196 817q-27 0 -46.5 -20t-19.5 -49t19.5 -49t46.5 -20q28 0 47 20t19 49t-19 49t-47 20zM316 0q-10 0 -11 9l-22 102q0 4 -5 4h-164q-5 0 -5 -4l-23 -102
q-2 -9 -11 -9h-33q-12 0 -8 11l130 556q2 9 11 9h40q9 0 11 -9l133 -556q3 -11 -8 -11h-35zM121 163q-2 -4 4 -4h143q5 0 3 4l-72 329q-2 8 -4 0z" />
    <glyph glyph-name="atilde.sc" horiz-adv-x="393" 
d="M158 713q-28 0 -46 -27q-6 -9 -14 -3l-12 9q-9 5 -4 13q27 48 73 48q23 0 56 -23l11 -7.5t12 -7.5t11 -4.5t13 -2.5q26 0 44 30q5 10 14 4l12 -8q8 -6 4 -14q-26 -50 -76 -50q-21 0 -53 22q-30 21 -45 21zM316 0q-10 0 -11 9l-22 102q0 4 -5 4h-164q-5 0 -5 -4l-23 -102
q-2 -9 -11 -9h-33q-12 0 -8 11l130 556q2 9 11 9h40q9 0 11 -9l133 -556q3 -11 -8 -11h-35zM121 163q-2 -4 4 -4h143q5 0 3 4l-72 329q-2 8 -4 0z" />
    <glyph glyph-name="ae.sc" horiz-adv-x="626" 
d="M589 539q0 -10 -10 -10h-204q-4 0 -4 -4v-209q0 -4 4 -4h129q10 0 10 -10v-27q0 -10 -10 -10h-129q-4 0 -4 -4v-210q0 -4 4 -4h204q10 0 10 -10v-27q0 -10 -10 -10h-252q-10 0 -10 10v101q0 4 -4 4h-171q-2 0 -4 -3l-49 -105q-3 -7 -11 -7h-34q-13 0 -8 12l261 557
q3 7 11 7h271q10 0 10 -10v-27zM161 164q-3 -5 3 -5h149q4 0 4 4l1 329q-1 4 -5 1z" />
    <glyph glyph-name="b.sc" horiz-adv-x="389" 
d="M280 300q-5 -2 0 -5q78 -40 79 -139q0 -73 -42 -114.5t-113 -41.5h-128q-10 0 -10 10v556q0 10 10 10h121q74 0 116 -39t42 -111q0 -92 -75 -126zM123 529q-4 0 -4 -4v-204q0 -4 4 -4h75q50 0 77.5 27.5t27.5 76.5q0 52 -27.5 80t-77.5 28h-75zM200 48q50 0 77.5 29.5
t27.5 83.5q0 55 -27.5 86t-77.5 31h-77q-4 0 -4 -4v-222q0 -4 4 -4h77z" />
    <glyph glyph-name="c.sc" horiz-adv-x="389" 
d="M196 -7q-65 0 -104.5 40.5t-39.5 110.5v289q0 71 39 110.5t105 39.5q67 0 107 -39.5t40 -110.5v-12q0 -10 -10 -10l-34 -2q-10 0 -10 10v18q0 47 -25 73t-68 26q-41 0 -66 -26.5t-25 -72.5v-297q0 -47 25 -73.5t66 -26.5q42 0 67.5 26.5t25.5 73.5v17q0 10 10 10l34 -2
q10 0 10 -10v-11q0 -70 -40 -110.5t-107 -40.5z" />
    <glyph glyph-name="cacute.sc" horiz-adv-x="389" 
d="M165 657q-14 0 -7 12l62 110q5 7 12 7h31q14 0 7 -12l-69 -110q-5 -7 -12 -7h-24zM196 -7q-65 0 -104.5 40.5t-39.5 110.5v289q0 71 39 110.5t105 39.5q67 0 107 -39.5t40 -110.5v-12q0 -10 -10 -10l-34 -2q-10 0 -10 10v18q0 47 -25 73t-68 26q-41 0 -66 -26.5
t-25 -72.5v-297q0 -47 25 -73.5t66 -26.5q42 0 67.5 26.5t25.5 73.5v17q0 10 10 10l34 -2q10 0 10 -10v-11q0 -70 -40 -110.5t-107 -40.5z" />
    <glyph glyph-name="ccaron.sc" horiz-adv-x="389" 
d="M176 638q-7 0 -12 7l-66 102q-7 12 6 12h30q7 0 12 -7l48 -77q1 -1 3 -1t3 1l47 77q5 7 12 7h28q13 0 6 -12l-67 -102q-5 -7 -12 -7h-38zM196 -7q-65 0 -104.5 40.5t-39.5 110.5v289q0 71 39 110.5t105 39.5q67 0 107 -39.5t40 -110.5v-12q0 -10 -10 -10l-34 -2
q-10 0 -10 10v18q0 47 -25 73t-68 26q-41 0 -66 -26.5t-25 -72.5v-297q0 -47 25 -73.5t66 -26.5q42 0 67.5 26.5t25.5 73.5v17q0 10 10 10l34 -2q10 0 10 -10v-11q0 -70 -40 -110.5t-107 -40.5z" />
    <glyph glyph-name="ccedilla.sc" horiz-adv-x="389" 
d="M343 421q0 -10 -10 -10l-34 -2q-10 0 -10 10v18q0 47 -25 73t-68 26q-41 0 -66 -26.5t-25 -72.5v-297q0 -47 25 -73.5t66 -26.5q42 0 67.5 26.5t25.5 73.5v17q0 10 10 10l34 -2q10 0 10 -10v-11q0 -63 -32.5 -102t-87.5 -47q-5 -2 -2 -5q52 -51 40 -115q-7 -40 -37 -51.5
t-64 -4.5q-8 1 -7 11l2 14q2 8 10 8q1 -1 4 -1q46 -6 53 38q8 49 -44 103q-2 2 -5 2q-55 7 -88 46.5t-33 103.5v289q0 71 39 110.5t105 39.5q67 0 107 -39.5t40 -110.5v-12z" />
    <glyph glyph-name="cdotaccent.sc" horiz-adv-x="389" 
d="M196 663q-16 0 -26.5 11t-10.5 28t10.5 28t26.5 11q15 0 24.5 -11t9.5 -28t-9.5 -28t-24.5 -11zM196 -7q-65 0 -104.5 40.5t-39.5 110.5v289q0 71 39 110.5t105 39.5q67 0 107 -39.5t40 -110.5v-12q0 -10 -10 -10l-34 -2q-10 0 -10 10v18q0 47 -25 73t-68 26
q-41 0 -66 -26.5t-25 -72.5v-297q0 -47 25 -73.5t66 -26.5q42 0 67.5 26.5t25.5 73.5v17q0 10 10 10l34 -2q10 0 10 -10v-11q0 -70 -40 -110.5t-107 -40.5z" />
    <glyph glyph-name="d.sc" horiz-adv-x="404" 
d="M76 0q-10 0 -10 10v556q0 10 10 10h129q66 0 105 -41t39 -111v-272q0 -70 -39 -111t-105 -41h-129zM119 51q0 -4 4 -4h82q41 1 65 29.5t25 78.5v267q0 50 -24 78.5t-66 28.5h-82q-4 0 -4 -4v-474z" />
    <glyph glyph-name="eth.sc" horiz-adv-x="442" 
d="M244 576q66 0 105 -41t39 -111v-272q0 -70 -39 -111t-105 -41h-129q-10 0 -10 10v268q0 4 -4 4h-25q-10 0 -10 10v15q0 10 10 10h25q4 0 4 4v245q0 10 10 10h129zM334 155v267q0 50 -24 78.5t-66 28.5h-82q-4 0 -4 -4v-204q0 -4 4 -4h69q10 0 10 -10v-15q0 -10 -10 -10
h-69q-4 0 -4 -4v-227q0 -4 4 -4h82q41 1 65 29.5t25 78.5z" />
    <glyph glyph-name="dcaron.sc" horiz-adv-x="404" 
d="M176 635q-7 0 -12 7l-66 102q-7 12 6 12h30q7 0 12 -7l48 -77q1 -2 3 -2t3 2l47 77q5 7 12 7h28q13 0 6 -12l-67 -102q-5 -7 -12 -7h-38zM76 0q-10 0 -10 10v556q0 10 10 10h129q66 0 105 -41t39 -111v-272q0 -70 -39 -111t-105 -41h-129zM119 51q0 -4 4 -4h82
q41 1 65 29.5t25 78.5v267q0 50 -24 78.5t-66 28.5h-82q-4 0 -4 -4v-474z" />
    <glyph glyph-name="dcroat.sc" horiz-adv-x="442" 
d="M244 576q66 0 105 -41t39 -111v-272q0 -70 -39 -111t-105 -41h-129q-10 0 -10 10v268q0 4 -4 4h-25q-10 0 -10 10v15q0 10 10 10h25q4 0 4 4v245q0 10 10 10h129zM334 155v267q0 50 -24 78.5t-66 28.5h-82q-4 0 -4 -4v-204q0 -4 4 -4h69q10 0 10 -10v-15q0 -10 -10 -10
h-69q-4 0 -4 -4v-227q0 -4 4 -4h82q41 1 65 29.5t25 78.5z" />
    <glyph glyph-name="e.sc" horiz-adv-x="373" 
d="M336 538q0 -10 -10 -10h-203q-4 0 -4 -4v-208q0 -4 4 -4h128q10 0 10 -10v-27q0 -10 -10 -10h-128q-4 0 -4 -4v-210q0 -4 4 -4h203q10 0 10 -10v-27q0 -10 -10 -10h-250q-10 0 -10 10v556q0 10 10 10h250q10 0 10 -10v-28z" />
    <glyph glyph-name="eacute.sc" horiz-adv-x="373" 
d="M267 788q14 0 7 -12l-69 -110q-5 -7 -12 -7h-24q-14 0 -7 12l62 110q5 7 12 7h31zM336 538q0 -10 -10 -10h-203q-4 0 -4 -4v-208q0 -4 4 -4h128q10 0 10 -10v-27q0 -10 -10 -10h-128q-4 0 -4 -4v-210q0 -4 4 -4h203q10 0 10 -10v-27q0 -10 -10 -10h-250q-10 0 -10 10v556
q0 10 10 10h250q10 0 10 -10v-28z" />
    <glyph glyph-name="ecaron.sc" horiz-adv-x="373" 
d="M230 647q-5 -7 -12 -7h-38q-7 0 -12 7l-66 102q-7 12 6 12h30q7 0 12 -7l48 -77q1 -1 3 -1t3 1l47 77q5 7 12 7h28q13 0 6 -12zM336 538q0 -10 -10 -10h-203q-4 0 -4 -4v-208q0 -4 4 -4h128q10 0 10 -10v-27q0 -10 -10 -10h-128q-4 0 -4 -4v-210q0 -4 4 -4h203
q10 0 10 -10v-27q0 -10 -10 -10h-250q-10 0 -10 10v556q0 10 10 10h250q10 0 10 -10v-28z" />
    <glyph glyph-name="uni0229.sc" horiz-adv-x="373" 
d="M336 538q0 -10 -10 -10h-203q-4 0 -4 -4v-208q0 -4 4 -4h128q10 0 10 -10v-27q0 -10 -10 -10h-128q-4 0 -4 -4v-210q0 -4 4 -4h203q10 0 10 -10v-27q0 -10 -10 -10h-99q-7 0 -2 -5q50 -51 38 -113q-7 -40 -37 -51.5t-64 -4.5q-8 1 -7 11l2 14q2 8 10 8q1 -1 4 -1
q46 -6 53 38q8 49 -43 102q-2 2 -5 2h-100q-10 0 -10 10v556q0 10 10 10h250q10 0 10 -10v-28z" />
    <glyph glyph-name="ecircumflex.sc" horiz-adv-x="373" 
d="M203 734q-1 2 -3 2t-3 -2l-47 -76q-5 -7 -12 -7h-31q-13 0 -6 12l66 102q5 7 12 7h40q7 0 12 -6l68 -103q3 -5 1 -8.5t-8 -3.5h-31q-7 0 -12 7zM336 538q0 -10 -10 -10h-203q-4 0 -4 -4v-208q0 -4 4 -4h128q10 0 10 -10v-27q0 -10 -10 -10h-128q-4 0 -4 -4v-210
q0 -4 4 -4h203q10 0 10 -10v-27q0 -10 -10 -10h-250q-10 0 -10 10v556q0 10 10 10h250q10 0 10 -10v-28z" />
    <glyph glyph-name="edieresis.sc" horiz-adv-x="373" 
d="M140 682q-16 0 -27 11.5t-11 28.5t11 28.5t27 11.5t26 -11.5t10 -28.5t-10 -28.5t-26 -11.5zM262 682q-16 0 -27 11.5t-11 28.5t11 28.5t27 11.5t26 -11.5t10 -28.5t-10 -28.5t-26 -11.5zM336 538q0 -10 -10 -10h-203q-4 0 -4 -4v-208q0 -4 4 -4h128q10 0 10 -10v-27
q0 -10 -10 -10h-128q-4 0 -4 -4v-210q0 -4 4 -4h203q10 0 10 -10v-27q0 -10 -10 -10h-250q-10 0 -10 10v556q0 10 10 10h250q10 0 10 -10v-28z" />
    <glyph glyph-name="edotaccent.sc" horiz-adv-x="373" 
d="M200 665q-16 0 -26.5 11t-10.5 28t10.5 28t26.5 11q15 0 24.5 -11t9.5 -28t-9.5 -28t-24.5 -11zM336 538q0 -10 -10 -10h-203q-4 0 -4 -4v-208q0 -4 4 -4h128q10 0 10 -10v-27q0 -10 -10 -10h-128q-4 0 -4 -4v-210q0 -4 4 -4h203q10 0 10 -10v-27q0 -10 -10 -10h-250
q-10 0 -10 10v556q0 10 10 10h250q10 0 10 -10v-28z" />
    <glyph glyph-name="egrave.sc" horiz-adv-x="373" 
d="M218 671q7 -12 -7 -12h-24q-7 0 -12 7l-68 110q-7 12 6 12h31q7 0 12 -7zM336 538q0 -10 -10 -10h-203q-4 0 -4 -4v-208q0 -4 4 -4h128q10 0 10 -10v-27q0 -10 -10 -10h-128q-4 0 -4 -4v-210q0 -4 4 -4h203q10 0 10 -10v-27q0 -10 -10 -10h-250q-10 0 -10 10v556
q0 10 10 10h250q10 0 10 -10v-28z" />
    <glyph glyph-name="emacron.sc" horiz-adv-x="373" 
d="M289 720q10 0 10 -10v-20q0 -10 -10 -10h-179q-10 0 -10 10v20q0 10 10 10h179zM336 538q0 -10 -10 -10h-203q-4 0 -4 -4v-208q0 -4 4 -4h128q10 0 10 -10v-27q0 -10 -10 -10h-128q-4 0 -4 -4v-210q0 -4 4 -4h203q10 0 10 -10v-27q0 -10 -10 -10h-250q-10 0 -10 10v556
q0 10 10 10h250q10 0 10 -10v-28z" />
    <glyph glyph-name="eogonek.sc" horiz-adv-x="373" 
d="M336 538q0 -10 -10 -10h-203q-4 0 -4 -4v-208q0 -4 4 -4h128q10 0 10 -10v-27q0 -10 -10 -10h-128q-4 0 -4 -4v-210q0 -4 4 -4h203q10 0 10 -10v-27q0 -10 -10 -10h-105q-3 0 -5 -2q-52 -54 -44 -103q6 -45 55 -38q10 3 12 -7l2 -14q1 -10 -7 -11q-34 -7 -64 4.5
t-37 51.5q-12 63 39 114q3 5 -2 5h-94q-10 0 -10 10v556q0 10 10 10h250q10 0 10 -10v-28z" />
    <glyph glyph-name="f.sc" horiz-adv-x="350" 
d="M335 539q0 -10 -10 -10h-202q-4 0 -4 -4v-209q0 -4 4 -4h128q10 0 10 -10v-27q0 -10 -10 -10h-128q-4 0 -4 -4v-251q0 -10 -10 -10h-33q-10 0 -10 10v556q0 10 10 10h249q10 0 10 -10v-27z" />
    <glyph glyph-name="g.sc" horiz-adv-x="388" 
d="M197 -7q-66 0 -105.5 39t-39.5 107v299q0 68 39.5 106.5t105.5 38.5t105.5 -39t39.5 -107v-24q0 -10 -10 -10h-33q-10 0 -10 10v26q0 46 -25 71.5t-67 25.5t-67 -25.5t-25 -71.5v-301q0 -46 25 -72t67 -26t67 26t25 72v102q0 4 -4 4h-73q-10 0 -10 10v21q0 10 10 10h120
q10 0 10 -10v-136q0 -68 -39.5 -107t-105.5 -39z" />
    <glyph glyph-name="gbreve.sc" horiz-adv-x="388" 
d="M197 623q-40 0 -68.5 26t-32.5 66q0 10 10 10h15q10 0 11 -10q3 -26 21.5 -43.5t43.5 -17.5t43.5 17.5t21.5 43.5q1 10 11 10h15q10 0 10 -10q-4 -40 -32 -66t-69 -26zM197 -7q-66 0 -105.5 39t-39.5 107v299q0 68 39.5 106.5t105.5 38.5t105.5 -39t39.5 -107v-24
q0 -10 -10 -10h-33q-10 0 -10 10v26q0 46 -25 71.5t-67 25.5t-67 -25.5t-25 -71.5v-301q0 -46 25 -72t67 -26t67 26t25 72v102q0 4 -4 4h-73q-10 0 -10 10v21q0 10 10 10h120q10 0 10 -10v-136q0 -68 -39.5 -107t-105.5 -39z" />
    <glyph glyph-name="uni0123.sc" horiz-adv-x="388" 
d="M197 -7q-66 0 -105.5 39t-39.5 107v299q0 68 39.5 106.5t105.5 38.5t105.5 -39t39.5 -107v-24q0 -10 -10 -10h-33q-10 0 -10 10v26q0 46 -25 71.5t-67 25.5t-67 -25.5t-25 -71.5v-301q0 -46 25 -72t67 -26t67 26t25 72v102q0 4 -4 4h-73q-10 0 -10 10v21q0 10 10 10h120
q10 0 10 -10v-136q0 -68 -39.5 -107t-105.5 -39zM165 -194q-14 0 -7 12l62 110q5 7 12 7h31q14 0 7 -12l-69 -110q-5 -7 -12 -7h-24z" />
    <glyph glyph-name="gdotaccent.sc" horiz-adv-x="388" 
d="M197 663q-16 0 -26.5 11t-10.5 28t10.5 28t26.5 11q15 0 24.5 -11t9.5 -28t-9.5 -28t-24.5 -11zM197 -7q-66 0 -105.5 39t-39.5 107v299q0 68 39.5 106.5t105.5 38.5t105.5 -39t39.5 -107v-24q0 -10 -10 -10h-33q-10 0 -10 10v26q0 46 -25 71.5t-67 25.5t-67 -25.5
t-25 -71.5v-301q0 -46 25 -72t67 -26t67 26t25 72v102q0 4 -4 4h-73q-10 0 -10 10v21q0 10 10 10h120q10 0 10 -10v-136q0 -68 -39.5 -107t-105.5 -39z" />
    <glyph glyph-name="h.sc" horiz-adv-x="410" 
d="M291 566q0 10 10 10h33q10 0 10 -10v-556q0 -10 -10 -10h-33q-10 0 -10 10v251q0 4 -4 4h-164q-4 0 -4 -4v-251q0 -10 -10 -10h-33q-10 0 -10 10v556q0 10 10 10h33q10 0 10 -10v-250q0 -4 4 -4h164q4 0 4 4v250z" />
    <glyph glyph-name="hbar.sc" horiz-adv-x="410" 
d="M399 460q10 0 10 -10v-21q0 -10 -10 -10h-51q-4 0 -4 -4v-405q0 -10 -10 -10h-33q-10 0 -10 10v251q0 4 -4 4h-164q-4 0 -4 -4v-251q0 -10 -10 -10h-33q-10 0 -10 10v405q0 4 -4 4h-51q-10 0 -10 10v21q0 10 10 10h51q4 0 4 4v102q0 10 10 10h33q10 0 10 -10v-102
q0 -4 4 -4h164q4 0 4 4v102q0 10 10 10h33q10 0 10 -10v-102q0 -4 4 -4h51zM287 312q4 0 4 4v99q0 4 -4 4h-164q-4 0 -4 -4v-99q0 -4 4 -4h164z" />
    <glyph glyph-name="i.sc" horiz-adv-x="184" 
d="M76 0q-10 0 -10 10v556q0 10 10 10h33q10 0 10 -10v-556q0 -10 -10 -10h-33z" />
    <glyph glyph-name="iacute.sc" horiz-adv-x="184" 
d="M61 659q-14 0 -7 12l62 110q5 7 12 7h31q14 0 7 -12l-69 -110q-5 -7 -12 -7h-24zM76 0q-10 0 -10 10v556q0 10 10 10h33q10 0 10 -10v-556q0 -10 -10 -10h-33z" />
    <glyph glyph-name="icircumflex.sc" horiz-adv-x="184" 
d="M-1 651q-13 0 -6 12l66 102q5 7 12 7h40q7 0 12 -6l68 -103q3 -5 1 -8.5t-8 -3.5h-31q-7 0 -12 7l-46 76q-1 2 -3 2t-3 -2l-47 -76q-5 -7 -12 -7h-31zM76 0q-10 0 -10 10v556q0 10 10 10h33q10 0 10 -10v-556q0 -10 -10 -10h-33z" />
    <glyph glyph-name="idieresis.sc" horiz-adv-x="184" 
d="M32 682q-16 0 -27 11.5t-11 28.5t11 28.5t27 11.5t26 -11.5t10 -28.5t-10 -28.5t-26 -11.5zM154 682q-16 0 -27 11.5t-11 28.5t11 28.5t27 11.5t26 -11.5t10 -28.5t-10 -28.5t-26 -11.5zM76 0q-10 0 -10 10v556q0 10 10 10h33q10 0 10 -10v-556q0 -10 -10 -10h-33z" />
    <glyph glyph-name="i.sc.loclTRK" horiz-adv-x="184" 
d="M92 665q-16 0 -26.5 11t-10.5 28t10.5 28t26.5 11q15 0 24.5 -11t9.5 -28t-9.5 -28t-24.5 -11zM76 0q-10 0 -10 10v556q0 10 10 10h33q10 0 10 -10v-556q0 -10 -10 -10h-33z" />
    <glyph glyph-name="igrave.sc" horiz-adv-x="184" 
d="M110 671q7 -12 -7 -12h-24q-7 0 -12 7l-68 110q-7 12 6 12h31q7 0 12 -7zM76 0q-10 0 -10 10v556q0 10 10 10h33q10 0 10 -10v-556q0 -10 -10 -10h-33z" />
    <glyph glyph-name="ij.sc" horiz-adv-x="552" 
d="M76 0q-10 0 -10 10v556q0 10 10 10h33q10 0 10 -10v-556q0 -10 -10 -10h-33zM344 -7q-64 0 -102 39t-38 107v60q0 10 10 10h33q10 0 10 -10v-61q0 -45 24 -71.5t63 -26.5q41 0 64.5 26t23.5 72v428q0 10 10 10h34q10 0 10 -10v-427q0 -68 -38.5 -107t-103.5 -39z" />
    <glyph glyph-name="imacron.sc" horiz-adv-x="184" 
d="M2 680q-10 0 -10 10v20q0 10 10 10h179q10 0 10 -10v-20q0 -10 -10 -10h-179zM76 0q-10 0 -10 10v556q0 10 10 10h33q10 0 10 -10v-556q0 -10 -10 -10h-33z" />
    <glyph glyph-name="iogonek.sc" horiz-adv-x="196" 
d="M122 -149q10 3 12 -7l2 -14q1 -10 -7 -11q-34 -7 -64 4.5t-37 51.5q-12 67 45 120l5 5h-2q-10 0 -10 10v556q0 10 10 10h33q10 0 10 -10v-559q0 -5 -5 -12q-55 -53 -47 -106q6 -45 55 -38z" />
    <glyph glyph-name="j.sc" horiz-adv-x="368" 
d="M160 -7q-64 0 -102 39t-38 107v60q0 10 10 10h33q10 0 10 -10v-61q0 -45 24 -71.5t63 -26.5q41 0 64.5 26t23.5 72v428q0 10 10 10h34q10 0 10 -10v-427q0 -68 -38.5 -107t-103.5 -39z" />
    <glyph glyph-name="k.sc" horiz-adv-x="389" 
d="M76 0q-10 0 -10 10v556q0 10 10 10h33q10 0 10 -10v-271q0 -3 1.5 -3.5t3.5 2.5l175 275q5 7 12 7h37q14 0 7 -12l-133 -214q-3 -3 -1 -6l148 -332q5 -12 -8 -12h-38q-8 0 -11 8l-128 287q-1 4 -5 0l-58 -87q-2 -2 -2 -5v-193q0 -10 -10 -10h-33z" />
    <glyph glyph-name="uni0137.sc" horiz-adv-x="389" 
d="M76 0q-10 0 -10 10v556q0 10 10 10h33q10 0 10 -10v-271q0 -3 1.5 -3.5t3.5 2.5l175 275q5 7 12 7h37q14 0 7 -12l-133 -214q-3 -3 -1 -6l148 -332q5 -12 -8 -12h-38q-8 0 -11 8l-128 287q-1 4 -5 0l-58 -87q-2 -2 -2 -5v-193q0 -10 -10 -10h-33zM168 -187q-14 0 -7 12
l62 110q5 7 12 7h31q14 0 7 -12l-69 -110q-5 -7 -12 -7h-24z" />
    <glyph glyph-name="l.sc" horiz-adv-x="341" 
d="M76 0q-10 0 -10 10v556q0 10 10 10h33q10 0 10 -10v-515q0 -4 4 -4h200q10 0 10 -10v-27q0 -10 -10 -10h-247z" />
    <glyph glyph-name="lacute.sc" horiz-adv-x="341" 
d="M60 650q-14 0 -7 12l62 110q5 7 12 7h31q14 0 7 -12l-69 -110q-5 -7 -12 -7h-24zM76 0q-10 0 -10 10v556q0 10 10 10h33q10 0 10 -10v-515q0 -4 4 -4h200q10 0 10 -10v-27q0 -10 -10 -10h-247z" />
    <glyph glyph-name="lcaron.sc" horiz-adv-x="341" 
d="M71 631q-7 0 -12 7l-66 102q-7 12 6 12h30q7 0 12 -7l48 -77q1 -2 3 -2t3 2l47 77q5 7 12 7h28q13 0 6 -12l-67 -102q-5 -7 -12 -7h-38zM76 0q-10 0 -10 10v556q0 10 10 10h33q10 0 10 -10v-515q0 -4 4 -4h200q10 0 10 -10v-27q0 -10 -10 -10h-247z" />
    <glyph glyph-name="uni013C.sc" horiz-adv-x="341" 
d="M76 0q-10 0 -10 10v556q0 10 10 10h33q10 0 10 -10v-515q0 -4 4 -4h200q10 0 10 -10v-27q0 -10 -10 -10h-247zM142 -187q-14 0 -7 12l62 110q5 7 12 7h31q14 0 7 -12l-69 -110q-5 -7 -12 -7h-24z" />
    <glyph glyph-name="lslash.sc" horiz-adv-x="540" 
d="M122 225q-3 -3 -3 -5v-169q0 -4 4 -4h200q10 0 10 -10v-27q0 -10 -10 -10h-247q-10 0 -10 10v170q0 2 -2 3t-3 0l-37 -26q-8 -6 -14 2l-14 17q-6 8 2 14l65 46q3 3 3 5v325q0 10 10 10h33q10 0 10 -10v-285q0 -2 1.5 -3t3.5 0l194 137q8 6 14 -2l14 -18q5 -8 -2 -14z" />
    <glyph glyph-name="m.sc" horiz-adv-x="447" 
d="M76 0q-10 0 -10 10v556q0 10 10 10h34q8 0 11 -8l99 -224q1 -2 3 -2t3 2l100 224q3 8 11 8h34q10 0 10 -10v-556q0 -10 -10 -10h-33q-10 0 -10 10v472q0 2 -1 3q-3 1 -4 -2l-90 -208q-3 -8 -9 -8t-9 8l-91 209q-1 3 -4 2q-1 -1 -1 -3v-473q0 -10 -10 -10h-33z" />
    <glyph glyph-name="n.sc" horiz-adv-x="428" 
d="M76 0q-10 0 -10 10v556q0 10 10 10h34q8 0 11 -8l184 -451q1 -3 4 -2q1 1 1 3l-1 448q0 10 10 10h33q10 0 10 -10v-556q0 -10 -10 -10h-35q-8 0 -11 8l-183 451q-1 3 -3 2.5t-2 -3.5v-448q0 -10 -10 -10h-32z" />
    <glyph glyph-name="nacute.sc" horiz-adv-x="428" 
d="M182 659q-14 0 -7 12l62 110q5 7 12 7h31q14 0 7 -12l-69 -110q-5 -7 -12 -7h-24zM76 0q-10 0 -10 10v556q0 10 10 10h34q8 0 11 -8l184 -451q1 -3 4 -2q1 1 1 3l-1 448q0 10 10 10h33q10 0 10 -10v-556q0 -10 -10 -10h-35q-8 0 -11 8l-183 451q-1 3 -3 2.5t-2 -3.5v-448
q0 -10 -10 -10h-32z" />
    <glyph glyph-name="ncaron.sc" horiz-adv-x="428" 
d="M193 640q-7 0 -12 7l-66 102q-7 12 6 12h30q7 0 12 -7l48 -77q1 -1 3 -1t3 1l47 77q5 7 12 7h28q13 0 6 -12l-67 -102q-5 -7 -12 -7h-38zM76 0q-10 0 -10 10v556q0 10 10 10h34q8 0 11 -8l184 -451q1 -3 4 -2q1 1 1 3l-1 448q0 10 10 10h33q10 0 10 -10v-556
q0 -10 -10 -10h-35q-8 0 -11 8l-183 451q-1 3 -3 2.5t-2 -3.5v-448q0 -10 -10 -10h-32z" />
    <glyph glyph-name="uni0146.sc" horiz-adv-x="428" 
d="M76 0q-10 0 -10 10v556q0 10 10 10h34q8 0 11 -8l184 -451q1 -3 4 -2q1 1 1 3l-1 448q0 10 10 10h33q10 0 10 -10v-556q0 -10 -10 -10h-35q-8 0 -11 8l-183 451q-1 3 -3 2.5t-2 -3.5v-448q0 -10 -10 -10h-32zM183 -187q-14 0 -7 12l62 110q5 7 12 7h31q14 0 7 -12
l-69 -110q-5 -7 -12 -7h-24z" />
    <glyph glyph-name="eng.sc" horiz-adv-x="429" 
d="M362 400l1 -2v-391q0 -31 -1 -46t-6 -35t-16 -29t-31.5 -16t-51.5 -8q-10 0 -10 10v27q0 10 10 10q23 1 34.5 12t13 23.5t1.5 40.5v8q0 4 -1 5l-182 450q-1 3 -3 2.5t-2 -3.5v-448q0 -10 -10 -10h-32q-10 0 -10 10v556q0 10 10 10h34q8 0 11 -8l180 -441q1 -3 4 -2
q1 1 1 3v260q0 10 2 10q1 1 1 3v165q0 10 10 10h33q10 0 10 -10v-166z" />
    <glyph glyph-name="ntilde.sc" horiz-adv-x="428" 
d="M273 679q-21 0 -53 22q-30 21 -45 21q-28 0 -46 -27q-6 -9 -14 -3l-12 9q-9 5 -4 13q27 48 73 48q23 0 56 -23l11 -7.5t12 -7.5t11 -4.5t13 -2.5q27 0 44 30q5 10 14 4l12 -8q9 -6 0 -20q-27 -44 -72 -44zM76 0q-10 0 -10 10v556q0 10 10 10h34q8 0 11 -8l184 -451
q1 -3 4 -2q1 1 1 3l-1 448q0 10 10 10h33q10 0 10 -10v-556q0 -10 -10 -10h-35q-8 0 -11 8l-183 451q-1 3 -3 2.5t-2 -3.5v-448q0 -10 -10 -10h-32z" />
    <glyph glyph-name="o.sc" horiz-adv-x="397" 
d="M199 -7q-67 0 -107 41t-40 111v285q0 71 40 112t107 41q66 0 106 -41t40 -112v-285q0 -70 -40 -111t-106 -41zM199 40q42 0 67.5 27.5t25.5 75.5v289q0 49 -25 76.5t-68 27.5t-68.5 -27.5t-25.5 -76.5v-289q0 -48 25.5 -75.5t68.5 -27.5z" />
    <glyph glyph-name="oacute.sc" horiz-adv-x="397" 
d="M168 651q-14 0 -7 12l62 110q5 7 12 7h31q14 0 7 -12l-69 -110q-5 -7 -12 -7h-24zM199 -7q-67 0 -107 41t-40 111v285q0 71 40 112t107 41q66 0 106 -41t40 -112v-285q0 -70 -40 -111t-106 -41zM199 40q42 0 67.5 27.5t25.5 75.5v289q0 49 -25 76.5t-68 27.5t-68.5 -27.5
t-25.5 -76.5v-289q0 -48 25.5 -75.5t68.5 -27.5z" />
    <glyph glyph-name="ocircumflex.sc" horiz-adv-x="397" 
d="M106 643q-13 0 -6 12l66 102q5 7 12 7h40q8 0 12 -6l68 -103q3 -5 1 -8.5t-8 -3.5h-31q-7 0 -12 7l-46 76q-1 2 -3 2t-3 -2l-47 -76q-5 -7 -12 -7h-31zM199 -7q-67 0 -107 41t-40 111v285q0 71 40 112t107 41q66 0 106 -41t40 -112v-285q0 -70 -40 -111t-106 -41zM199 40
q42 0 67.5 27.5t25.5 75.5v289q0 49 -25 76.5t-68 27.5t-68.5 -27.5t-25.5 -76.5v-289q0 -48 25.5 -75.5t68.5 -27.5z" />
    <glyph glyph-name="odieresis.sc" horiz-adv-x="397" 
d="M139 674q-16 0 -27 11.5t-11 28.5t11 28.5t27 11.5t26 -11.5t10 -28.5t-10 -28.5t-26 -11.5zM261 674q-16 0 -27 11.5t-11 28.5t11 28.5t27 11.5t26 -11.5t10 -28.5t-10 -28.5t-26 -11.5zM199 -7q-67 0 -107 41t-40 111v285q0 71 40 112t107 41q66 0 106 -41t40 -112
v-285q0 -70 -40 -111t-106 -41zM199 40q42 0 67.5 27.5t25.5 75.5v289q0 49 -25 76.5t-68 27.5t-68.5 -27.5t-25.5 -76.5v-289q0 -48 25.5 -75.5t68.5 -27.5z" />
    <glyph glyph-name="ograve.sc" horiz-adv-x="397" 
d="M217 663q7 -12 -7 -12h-24q-7 0 -12 7l-68 110q-7 12 6 12h31q7 0 12 -7zM199 -7q-67 0 -107 41t-40 111v285q0 71 40 112t107 41q66 0 106 -41t40 -112v-285q0 -70 -40 -111t-106 -41zM199 40q42 0 67.5 27.5t25.5 75.5v289q0 49 -25 76.5t-68 27.5t-68.5 -27.5
t-25.5 -76.5v-289q0 -48 25.5 -75.5t68.5 -27.5z" />
    <glyph glyph-name="ohungarumlaut.sc" horiz-adv-x="397" 
d="M130 649q-6 0 -8.5 3.5t0.5 8.5l60 110q3 7 12 7h27q14 0 7 -12l-61 -110q-3 -7 -12 -7h-25zM247 649q-14 0 -7 12l60 110q3 7 12 7h25q14 0 7 -12l-61 -110q-3 -7 -12 -7h-24zM199 -7q-67 0 -107 41t-40 111v285q0 71 40 112t107 41q66 0 106 -41t40 -112v-285
q0 -70 -40 -111t-106 -41zM199 40q42 0 67.5 27.5t25.5 75.5v289q0 49 -25 76.5t-68 27.5t-68.5 -27.5t-25.5 -76.5v-289q0 -48 25.5 -75.5t68.5 -27.5z" />
    <glyph glyph-name="omacron.sc" horiz-adv-x="397" 
d="M109 672q-10 0 -10 10v20q0 10 10 10h179q10 0 10 -10v-20q0 -10 -10 -10h-179zM199 -7q-67 0 -107 41t-40 111v285q0 71 40 112t107 41q66 0 106 -41t40 -112v-285q0 -70 -40 -111t-106 -41zM199 40q42 0 67.5 27.5t25.5 75.5v289q0 49 -25 76.5t-68 27.5t-68.5 -27.5
t-25.5 -76.5v-289q0 -48 25.5 -75.5t68.5 -27.5z" />
    <glyph glyph-name="oslash.sc" horiz-adv-x="452" 
d="M402 678q13 0 8 -12l-72 -176q-2 -2 0 -6q7 -28 7 -54v-285q0 -70 -40 -111t-106 -41q-32 0 -56 10q-5 0 -6 -3l-38 -93q-3 -8 -11 -8h-21q-13 0 -8 12l45 109q1 3 -2 5q-50 41 -50 120v285q0 71 40 112t107 41q72 0 111 -47q4 -4 5 1l55 133q3 8 11 8h21zM105 143
q0 -40 18 -65q1 -2 2.5 -1.5t2.5 2.5l158 387q2 2 0 6q-8 30 -31 47t-56 17q-43 0 -68.5 -27.5t-25.5 -76.5v-289zM292 143v223q0 2 -1 3q-3 1 -4 -2l-128 -315q-2 -5 2 -5q15 -7 38 -7q42 0 67.5 27.5t25.5 75.5z" />
    <glyph glyph-name="otilde.sc" horiz-adv-x="397" 
d="M259 671q-21 0 -53 22q-30 21 -45 21q-28 0 -46 -27q-6 -9 -14 -3l-12 9q-9 5 -4 13q27 48 73 48q23 0 56 -23l11 -7.5t12 -7.5t11 -4.5t13 -2.5q27 0 44 30q5 10 14 4l12 -8q9 -6 0 -20q-27 -44 -72 -44zM199 -7q-67 0 -107 41t-40 111v285q0 71 40 112t107 41
q66 0 106 -41t40 -112v-285q0 -70 -40 -111t-106 -41zM199 40q42 0 67.5 27.5t25.5 75.5v289q0 49 -25 76.5t-68 27.5t-68.5 -27.5t-25.5 -76.5v-289q0 -48 25.5 -75.5t68.5 -27.5z" />
    <glyph glyph-name="oe.sc" horiz-adv-x="600" 
d="M563 539q0 -10 -10 -10h-204q-4 0 -4 -4v-209q0 -4 4 -4h130q10 0 10 -10v-27q0 -10 -10 -10h-130q-4 0 -4 -4v-210q0 -4 4 -4h204q10 0 10 -10v-27q0 -10 -10 -10h-251q-10 0 -10 10v23q0 7 -5 2q-36 -42 -98 -42q-60 0 -98.5 41.5t-38.5 110.5v285q0 70 38.5 111.5
t98.5 41.5q62 0 98 -42q5 -5 5 2v23q0 10 10 10h251q10 0 10 -10v-27zM199 40q42 0 67.5 27.5t25.5 75.5v289q0 49 -25 76.5t-68 27.5t-68.5 -27.5t-25.5 -76.5v-289q0 -48 25.5 -75.5t68.5 -27.5z" />
    <glyph glyph-name="p.sc" horiz-adv-x="379" 
d="M208 578q62 0 101 -44t39 -115q0 -70 -38 -113t-100 -43h-93q-4 0 -4 -4v-249q0 -10 -10 -10h-33q-10 0 -10 10v558q0 10 10 10h138zM202 306q42 0 67.5 30.5t25.5 81.5t-25.5 82t-67.5 31h-85q-4 0 -4 -4v-217q0 -4 4 -4h85z" />
    <glyph glyph-name="thorn.sc" horiz-adv-x="379" 
d="M208 446q62 0 101 -43.5t39 -114.5q0 -70 -38 -113.5t-100 -43.5h-93q-4 0 -4 -4v-117q0 -10 -10 -10h-33q-10 0 -10 10v556q0 10 10 10h33q10 0 10 -10v-116q0 -4 4 -4h91zM202 176q42 0 67.5 30.5t25.5 81.5t-25.5 81t-67.5 30h-85q-4 0 -4 -4v-215q0 -4 4 -4h85z" />
    <glyph glyph-name="q.sc" horiz-adv-x="387" 
d="M193 583q64 0 103 -41.5t39 -113.5v-280q0 -63 -29.5 -103t-81.5 -49q-4 -1 -4 -5v-77q0 -10 -10 -10h-34q-10 0 -10 10v77q0 4 -4 5q-50 10 -80 50t-30 102v280q0 72 39 113.5t102 41.5zM282 143v290q0 49 -24.5 76t-64.5 27t-64 -27t-24 -76v-290q0 -48 24 -75.5
t64 -27.5t64.5 27.5t24.5 75.5z" />
    <glyph glyph-name="r.sc" horiz-adv-x="384" 
d="M313 0q-9 0 -12 8l-92 256q-1 3 -4 3h-82q-4 0 -4 -4v-253q0 -10 -10 -10h-33q-10 0 -10 10v558q0 10 10 10h137q62 0 101 -44t39 -114q0 -54 -25 -93t-68 -53q-4 -1 -3 -5l98 -257q3 -12 -8 -12h-34zM123 531q-4 0 -4 -4v-212q0 -4 4 -4h84q42 0 67.5 29.5t25.5 79.5
t-26 80.5t-67 30.5h-84z" />
    <glyph glyph-name="racute.sc" horiz-adv-x="384" 
d="M261 779q14 0 7 -12l-69 -110q-5 -7 -12 -7h-24q-14 0 -7 12l62 110q5 7 12 7h31zM313 0q-9 0 -12 8l-92 256q-1 3 -4 3h-82q-4 0 -4 -4v-253q0 -10 -10 -10h-33q-10 0 -10 10v558q0 10 10 10h137q62 0 101 -44t39 -114q0 -54 -25 -93t-68 -53q-4 -1 -3 -5l98 -257
q3 -12 -8 -12h-34zM123 531q-4 0 -4 -4v-212q0 -4 4 -4h84q42 0 67.5 29.5t25.5 79.5t-26 80.5t-67 30.5h-84z" />
    <glyph glyph-name="rcaron.sc" horiz-adv-x="384" 
d="M224 638q-5 -7 -12 -7h-38q-7 0 -12 7l-66 102q-7 12 6 12h30q7 0 12 -7l48 -77q1 -2 3 -2t3 2l47 77q5 7 12 7h28q13 0 6 -12zM313 0q-9 0 -12 8l-92 256q-1 3 -4 3h-82q-4 0 -4 -4v-253q0 -10 -10 -10h-33q-10 0 -10 10v558q0 10 10 10h137q62 0 101 -44t39 -114
q0 -54 -25 -93t-68 -53q-4 -1 -3 -5l98 -257q3 -12 -8 -12h-34zM123 531q-4 0 -4 -4v-212q0 -4 4 -4h84q42 0 67.5 29.5t25.5 79.5t-26 80.5t-67 30.5h-84z" />
    <glyph glyph-name="uni0157.sc" horiz-adv-x="384" 
d="M260 274q-4 -1 -3 -5l98 -257q3 -12 -8 -12h-34q-9 0 -12 8l-92 256q-1 3 -4 3h-82q-4 0 -4 -4v-253q0 -10 -10 -10h-33q-10 0 -10 10v558q0 10 10 10h137q62 0 101 -44t39 -114q0 -54 -25 -93t-68 -53zM123 531q-4 0 -4 -4v-212q0 -4 4 -4h84q42 0 67.5 29.5t25.5 79.5
t-26 80.5t-67 30.5h-84zM174 -187q-14 0 -7 12l62 110q5 7 12 7h31q14 0 7 -12l-69 -110q-5 -7 -12 -7h-24z" />
    <glyph glyph-name="s.sc" horiz-adv-x="372" 
d="M188 -7q-62 0 -101.5 40.5t-39.5 104.5v16q0 10 10 10h31q10 0 10 -10v-11q0 -47 25.5 -75.5t64.5 -28.5q40 0 65.5 27.5t25.5 71.5q0 22 -6 39t-25.5 35t-30 26.5t-45.5 32.5q-44 30 -66 48.5t-41 51.5t-19 74q0 64 38.5 101t99.5 37q64 0 103.5 -40.5t39.5 -106.5v-18
q0 -10 -10 -10h-33q-10 0 -10 10v16q0 46 -24.5 74.5t-65.5 28.5q-38 0 -62 -25t-24 -69q0 -37 21 -61t82 -67q75 -53 103 -86.5t28 -86.5q0 -68 -40 -108.5t-104 -40.5z" />
    <glyph glyph-name="sacute.sc" horiz-adv-x="372" 
d="M153 657q-14 0 -7 12l62 110q5 7 12 7h31q14 0 7 -12l-69 -110q-5 -7 -12 -7h-24zM188 -7q-62 0 -101.5 40.5t-39.5 104.5v16q0 10 10 10h31q10 0 10 -10v-11q0 -47 25.5 -75.5t64.5 -28.5q40 0 65.5 27.5t25.5 71.5q0 22 -6 39t-25.5 35t-30 26.5t-45.5 32.5
q-44 30 -66 48.5t-41 51.5t-19 74q0 64 38.5 101t99.5 37q64 0 103.5 -40.5t39.5 -106.5v-18q0 -10 -10 -10h-33q-10 0 -10 10v16q0 46 -24.5 74.5t-65.5 28.5q-38 0 -62 -25t-24 -69q0 -37 21 -61t82 -67q75 -53 103 -86.5t28 -86.5q0 -68 -40 -108.5t-104 -40.5z" />
    <glyph glyph-name="scaron.sc" horiz-adv-x="372" 
d="M164 638q-7 0 -12 7l-66 102q-7 12 6 12h30q7 0 12 -7l48 -77q1 -1 3 -1t3 1l47 77q5 7 12 7h28q13 0 6 -12l-67 -102q-5 -7 -12 -7h-38zM188 -7q-62 0 -101.5 40.5t-39.5 104.5v16q0 10 10 10h31q10 0 10 -10v-11q0 -47 25.5 -75.5t64.5 -28.5q40 0 65.5 27.5t25.5 71.5
q0 22 -6 39t-25.5 35t-30 26.5t-45.5 32.5q-44 30 -66 48.5t-41 51.5t-19 74q0 64 38.5 101t99.5 37q64 0 103.5 -40.5t39.5 -106.5v-18q0 -10 -10 -10h-33q-10 0 -10 10v16q0 46 -24.5 74.5t-65.5 28.5q-38 0 -62 -25t-24 -69q0 -37 21 -61t82 -67q75 -53 103 -86.5
t28 -86.5q0 -68 -40 -108.5t-104 -40.5z" />
    <glyph glyph-name="scedilla.sc" horiz-adv-x="372" 
d="M332 142q0 -60 -32 -99.5t-85 -47.5q-5 -2 -2 -5q52 -51 40 -115q-7 -40 -37 -51.5t-64 -4.5q-8 1 -7 11l2 14q2 8 10 8q1 -1 4 -1q46 -6 53 38q8 49 -44 103q-2 2 -5 2q-53 8 -85.5 47t-32.5 97v16q0 10 10 10h31q10 0 10 -10v-11q0 -47 25.5 -75.5t64.5 -28.5
q40 0 65.5 27.5t25.5 71.5q0 22 -6 39t-25.5 35t-30 26.5t-45.5 32.5q-44 30 -66 48.5t-41 51.5t-19 74q0 64 38.5 101t99.5 37q64 0 103.5 -40.5t39.5 -106.5v-18q0 -10 -10 -10h-33q-10 0 -10 10v16q0 46 -24.5 74.5t-65.5 28.5q-38 0 -62 -25t-24 -69q0 -37 21 -61
t82 -67q75 -53 103 -86.5t28 -86.5z" />
    <glyph glyph-name="uni0219.sc" horiz-adv-x="372" 
d="M188 -7q-62 0 -101.5 40.5t-39.5 104.5v16q0 10 10 10h31q10 0 10 -10v-11q0 -47 25.5 -75.5t64.5 -28.5q40 0 65.5 27.5t25.5 71.5q0 22 -6 39t-25.5 35t-30 26.5t-45.5 32.5q-44 30 -66 48.5t-41 51.5t-19 74q0 64 38.5 101t99.5 37q64 0 103.5 -40.5t39.5 -106.5v-18
q0 -10 -10 -10h-33q-10 0 -10 10v16q0 46 -24.5 74.5t-65.5 28.5q-38 0 -62 -25t-24 -69q0 -37 21 -61t82 -67q75 -53 103 -86.5t28 -86.5q0 -68 -40 -108.5t-104 -40.5zM158 -194q-14 0 -7 12l62 110q5 7 12 7h31q14 0 7 -12l-69 -110q-5 -7 -12 -7h-24z" />
    <glyph glyph-name="t.sc" horiz-adv-x="352" 
d="M317 576q10 0 10 -10v-27q0 -10 -10 -10h-114q-4 0 -4 -4v-515q0 -10 -10 -10h-33q-10 0 -10 10v515q0 4 -4 4h-107q-10 0 -10 10v27q0 10 10 10h282z" />
    <glyph glyph-name="tbar.sc" horiz-adv-x="352" 
d="M327 539q0 -10 -10 -10h-114q-4 0 -4 -4v-153q0 -4 4 -4h94q10 0 10 -10v-17q0 -10 -10 -10h-94q-4 0 -4 -4v-317q0 -10 -10 -10h-33q-10 0 -10 10v317q0 4 -4 4h-90q-10 0 -10 10v17q0 10 10 10h90q4 0 4 4v153q0 4 -4 4h-107q-10 0 -10 10v27q0 10 10 10h282
q10 0 10 -10v-27z" />
    <glyph glyph-name="tcaron.sc" horiz-adv-x="352" 
d="M204 638q-5 -7 -12 -7h-38q-7 0 -12 7l-66 102q-7 12 6 12h30q7 0 12 -7l48 -77q1 -2 3 -2t3 2l47 77q5 7 12 7h28q13 0 6 -12zM317 576q10 0 10 -10v-27q0 -10 -10 -10h-114q-4 0 -4 -4v-515q0 -10 -10 -10h-33q-10 0 -10 10v515q0 4 -4 4h-107q-10 0 -10 10v27
q0 10 10 10h282z" />
    <glyph glyph-name="uni0163.sc" horiz-adv-x="352" 
d="M203 529q-4 0 -4 -4v-515q0 -10 -2 -10q-1 0 2 -5q52 -52 40 -115q-7 -40 -37 -51.5t-64 -4.5q-8 1 -7 11l2 14q2 8 10 8q1 -1 4 -1q46 -6 53 38q8 51 -45 104q-1 1 -5 3t-4 9v515q0 4 -4 4h-107q-10 0 -10 10v27q0 10 10 10h282q10 0 10 -10v-27q0 -10 -10 -10h-114z
" />
    <glyph glyph-name="uni021B.sc" horiz-adv-x="352" 
d="M25 566q0 10 10 10h282q10 0 10 -10v-27q0 -10 -10 -10h-114q-4 0 -4 -4v-515q0 -10 -10 -10h-33q-10 0 -10 10v515q0 4 -4 4h-107q-10 0 -10 10v27zM132 -189q-14 0 -7 12l62 110q5 7 12 7h31q14 0 7 -12l-69 -110q-5 -7 -12 -7h-24z" />
    <glyph glyph-name="u.sc" horiz-adv-x="414" 
d="M206 -7q-66 0 -106 45t-40 122v406q0 10 10 10h33q10 0 10 -10v-411q0 -53 25.5 -84t67.5 -31q43 0 68.5 31t25.5 84v411q0 10 10 10h33q10 0 10 -10v-406q0 -77 -40 -122t-107 -45z" />
    <glyph glyph-name="uacute.sc" horiz-adv-x="414" 
d="M175 659q-14 0 -7 12l62 110q5 7 12 7h31q14 0 7 -12l-69 -110q-5 -7 -12 -7h-24zM206 -7q-66 0 -106 45t-40 122v406q0 10 10 10h33q10 0 10 -10v-411q0 -53 25.5 -84t67.5 -31q43 0 68.5 31t25.5 84v411q0 10 10 10h33q10 0 10 -10v-406q0 -77 -40 -122t-107 -45z" />
    <glyph glyph-name="ucircumflex.sc" horiz-adv-x="414" 
d="M113 651q-13 0 -6 12l66 102q5 7 12 7h40q7 0 12 -6l68 -103q3 -5 1 -8.5t-8 -3.5h-31q-7 0 -12 7l-46 76q-1 2 -3 2t-3 -2l-47 -76q-5 -7 -12 -7h-31zM206 -7q-66 0 -106 45t-40 122v406q0 10 10 10h33q10 0 10 -10v-411q0 -53 25.5 -84t67.5 -31q43 0 68.5 31t25.5 84
v411q0 10 10 10h33q10 0 10 -10v-406q0 -77 -40 -122t-107 -45z" />
    <glyph glyph-name="udieresis.sc" horiz-adv-x="414" 
d="M146 682q-16 0 -27 11.5t-11 28.5t11 28.5t27 11.5t26 -11.5t10 -28.5t-10 -28.5t-26 -11.5zM268 682q-16 0 -27 11.5t-11 28.5t11 28.5t27 11.5t26 -11.5t10 -28.5t-10 -28.5t-26 -11.5zM206 -7q-66 0 -106 45t-40 122v406q0 10 10 10h33q10 0 10 -10v-411
q0 -53 25.5 -84t67.5 -31q43 0 68.5 31t25.5 84v411q0 10 10 10h33q10 0 10 -10v-406q0 -77 -40 -122t-107 -45z" />
    <glyph glyph-name="ugrave.sc" horiz-adv-x="414" 
d="M224 671q7 -12 -7 -12h-24q-7 0 -12 7l-68 110q-7 12 6 12h31q7 0 12 -7zM206 -7q-66 0 -106 45t-40 122v406q0 10 10 10h33q10 0 10 -10v-411q0 -53 25.5 -84t67.5 -31q43 0 68.5 31t25.5 84v411q0 10 10 10h33q10 0 10 -10v-406q0 -77 -40 -122t-107 -45z" />
    <glyph glyph-name="uhungarumlaut.sc" horiz-adv-x="414" 
d="M137 657q-6 0 -8.5 3.5t0.5 8.5l60 110q3 7 12 7h27q14 0 7 -12l-61 -110q-4 -7 -12 -7h-25zM254 657q-14 0 -7 12l60 110q3 7 12 7h25q14 0 7 -12l-61 -110q-4 -7 -12 -7h-24zM206 -7q-66 0 -106 45t-40 122v406q0 10 10 10h33q10 0 10 -10v-411q0 -53 25.5 -84
t67.5 -31q43 0 68.5 31t25.5 84v411q0 10 10 10h33q10 0 10 -10v-406q0 -77 -40 -122t-107 -45z" />
    <glyph glyph-name="umacron.sc" horiz-adv-x="414" 
d="M116 680q-10 0 -10 10v20q0 10 10 10h179q10 0 10 -10v-20q0 -10 -10 -10h-179zM206 -7q-66 0 -106 45t-40 122v406q0 10 10 10h33q10 0 10 -10v-411q0 -53 25.5 -84t67.5 -31q43 0 68.5 31t25.5 84v411q0 10 10 10h33q10 0 10 -10v-406q0 -77 -40 -122t-107 -45z" />
    <glyph glyph-name="uogonek.sc" horiz-adv-x="414" 
d="M300 566q0 10 10 10h33q10 0 10 -10v-406q0 -72 -34.5 -116t-93.5 -50q-3 0 -5 -2q-44 -52 -38 -97t55 -38q10 3 12 -7l2 -14q1 -10 -7 -11q-34 -7 -64 4.5t-37 51.5q-11 62 35 110q4 4 -2 5q-53 9 -84.5 52.5t-31.5 111.5v406q0 10 10 10h33q10 0 10 -10v-411
q0 -53 25.5 -84t67.5 -31q43 0 68.5 31t25.5 84v411z" />
    <glyph glyph-name="uring.sc" horiz-adv-x="414" 
d="M206 656q-41 0 -69.5 29.5t-28.5 71.5t28.5 71t69.5 29q42 0 70.5 -29t28.5 -71t-28.5 -71.5t-70.5 -29.5zM206 688q28 0 47 20t19 49t-19 49t-47 20q-27 0 -46.5 -20t-19.5 -49t19.5 -49t46.5 -20zM206 -7q-66 0 -106 45t-40 122v406q0 10 10 10h33q10 0 10 -10v-411
q0 -53 25.5 -84t67.5 -31q43 0 68.5 31t25.5 84v411q0 10 10 10h33q10 0 10 -10v-406q0 -77 -40 -122t-107 -45z" />
    <glyph glyph-name="v.sc" horiz-adv-x="378" 
d="M172 0q-9 0 -11 9l-127 556q-2 11 8 11h37q9 0 11 -9l99 -470q2 -8 4 0l97 470q2 9 11 9h35q10 0 8 -11l-126 -556q-2 -9 -11 -9h-35z" />
    <glyph glyph-name="w.sc" horiz-adv-x="546" 
d="M158 0q-10 0 -11 9l-114 556q-2 11 9 11h35q9 0 11 -9l85 -458q2 -6 4 0l75 458q2 9 10 9h28q10 0 11 -9l76 -457q2 -6 4 0l77 457q2 9 11 9h35q11 0 9 -11l-107 -556q-2 -9 -11 -9h-32q-9 0 -10 9l-75 454q-2 6 -4 0l-75 -454q-1 -9 -11 -9h-30z" />
    <glyph glyph-name="wacute.sc" horiz-adv-x="546" 
d="M243 650q-14 0 -7 12l62 110q5 7 12 7h31q14 0 7 -12l-69 -110q-5 -7 -12 -7h-24zM158 0q-10 0 -11 9l-114 556q-2 11 9 11h35q9 0 11 -9l85 -458q2 -6 4 0l75 458q2 9 10 9h28q10 0 11 -9l76 -457q2 -6 4 0l77 457q2 9 11 9h35q11 0 9 -11l-107 -556q-2 -9 -11 -9h-32
q-9 0 -10 9l-75 454q-2 6 -4 0l-75 -454q-1 -9 -11 -9h-30z" />
    <glyph glyph-name="wcircumflex.sc" horiz-adv-x="546" 
d="M181 642q-13 0 -6 12l66 102q5 7 12 7h40q7 0 12 -6l68 -103q3 -4 1 -8t-8 -4h-31q-7 0 -12 7l-46 76q-1 1 -3 1t-3 -1l-47 -76q-5 -7 -12 -7h-31zM158 0q-10 0 -11 9l-114 556q-2 11 9 11h35q9 0 11 -9l85 -458q2 -6 4 0l75 458q2 9 10 9h28q10 0 11 -9l76 -457
q2 -6 4 0l77 457q2 9 11 9h35q11 0 9 -11l-107 -556q-2 -9 -11 -9h-32q-9 0 -10 9l-75 454q-2 6 -4 0l-75 -454q-1 -9 -11 -9h-30z" />
    <glyph glyph-name="wdieresis.sc" horiz-adv-x="546" 
d="M214 673q-16 0 -27 11.5t-11 28.5t11 28.5t27 11.5t26 -11.5t10 -28.5t-10 -28.5t-26 -11.5zM336 673q-16 0 -27 11.5t-11 28.5t11 28.5t27 11.5t26 -11.5t10 -28.5t-10 -28.5t-26 -11.5zM158 0q-10 0 -11 9l-114 556q-2 11 9 11h35q9 0 11 -9l85 -458q2 -6 4 0l75 458
q2 9 10 9h28q10 0 11 -9l76 -457q2 -6 4 0l77 457q2 9 11 9h35q11 0 9 -11l-107 -556q-2 -9 -11 -9h-32q-9 0 -10 9l-75 454q-2 6 -4 0l-75 -454q-1 -9 -11 -9h-30z" />
    <glyph glyph-name="wgrave.sc" horiz-adv-x="546" 
d="M292 662q7 -12 -7 -12h-24q-7 0 -12 7l-68 110q-7 12 6 12h31q7 0 12 -7zM158 0q-10 0 -11 9l-114 556q-2 11 9 11h35q9 0 11 -9l85 -458q2 -6 4 0l75 458q2 9 10 9h28q10 0 11 -9l76 -457q2 -6 4 0l77 457q2 9 11 9h35q11 0 9 -11l-107 -556q-2 -9 -11 -9h-32
q-9 0 -10 9l-75 454q-2 6 -4 0l-75 -454q-1 -9 -11 -9h-30z" />
    <glyph glyph-name="x.sc" horiz-adv-x="375" 
d="M44 0q-13 0 -8 12l122 273q2 3 0 6l-122 273q-5 12 8 12h35q8 0 11 -8l96 -222q1 -2 3 -2t3 2l93 222q3 8 11 8h35q13 0 8 -12l-123 -274q-2 -3 0 -6l123 -272q5 -12 -8 -12h-35q-8 0 -11 8l-93 223q-1 2 -3 2t-3 -2l-96 -223q-3 -8 -11 -8h-35z" />
    <glyph glyph-name="y.sc" horiz-adv-x="366" 
d="M167 0q-10 0 -10 10v248q0 4 -1 5l-120 301q-5 12 7 12h36q8 0 11 -8l90 -243q1 -3 3 -3t3 3l90 243q3 8 11 8h36q12 0 7 -12l-119 -301q-1 -1 -1 -5v-248q0 -10 -10 -10h-33z" />
    <glyph glyph-name="yacute.sc" horiz-adv-x="366" 
d="M152 650q-14 0 -7 12l62 110q5 7 12 7h31q14 0 7 -12l-69 -110q-5 -7 -12 -7h-24zM167 0q-10 0 -10 10v248q0 4 -1 5l-120 301q-5 12 7 12h36q8 0 11 -8l90 -243q1 -3 3 -3t3 3l90 243q3 8 11 8h36q12 0 7 -12l-119 -301q-1 -1 -1 -5v-248q0 -10 -10 -10h-33z" />
    <glyph glyph-name="ycircumflex.sc" horiz-adv-x="366" 
d="M90 642q-13 0 -6 12l66 102q5 7 12 7h40q8 0 12 -6l68 -103q3 -4 1 -8t-8 -4h-31q-7 0 -12 7l-46 76q-1 1 -3 1t-3 -1l-47 -76q-5 -7 -12 -7h-31zM167 0q-10 0 -10 10v248q0 4 -1 5l-120 301q-5 12 7 12h36q8 0 11 -8l90 -243q1 -3 3 -3t3 3l90 243q3 8 11 8h36
q12 0 7 -12l-119 -301q-1 -1 -1 -5v-248q0 -10 -10 -10h-33z" />
    <glyph glyph-name="ydieresis.sc" horiz-adv-x="366" 
d="M123 673q-16 0 -27 11.5t-11 28.5t11 28.5t27 11.5t26 -11.5t10 -28.5t-10 -28.5t-26 -11.5zM245 673q-16 0 -27 11.5t-11 28.5t11 28.5t27 11.5t26 -11.5t10 -28.5t-10 -28.5t-26 -11.5zM167 0q-10 0 -10 10v248q0 4 -1 5l-120 301q-5 12 7 12h36q8 0 11 -8l90 -243
q1 -3 3 -3t3 3l90 243q3 8 11 8h36q12 0 7 -12l-119 -301q-1 -1 -1 -5v-248q0 -10 -10 -10h-33z" />
    <glyph glyph-name="ygrave.sc" horiz-adv-x="366" 
d="M201 662q7 -12 -7 -12h-24q-7 0 -12 7l-68 110q-7 12 6 12h31q7 0 12 -7zM167 0q-10 0 -10 10v248q0 4 -1 5l-120 301q-5 12 7 12h36q8 0 11 -8l90 -243q1 -3 3 -3t3 3l90 243q3 8 11 8h36q12 0 7 -12l-119 -301q-1 -1 -1 -5v-248q0 -10 -10 -10h-33z" />
    <glyph glyph-name="z.sc" horiz-adv-x="344" 
d="M41 0q-10 0 -10 10v31q0 5 3 12l218 471q2 5 -3 5h-208q-10 0 -10 10v27q0 10 10 10h258q10 0 10 -10v-31q0 -5 -3 -12l-218 -471q-2 -5 3 -5h208q10 0 10 -10v-27q0 -10 -10 -10h-258z" />
    <glyph glyph-name="zacute.sc" horiz-adv-x="344" 
d="M140 661q-14 0 -7 12l62 110q5 7 12 7h31q14 0 7 -12l-69 -110q-5 -7 -12 -7h-24zM41 0q-10 0 -10 10v31q0 5 3 12l218 471q2 5 -3 5h-208q-10 0 -10 10v27q0 10 10 10h258q10 0 10 -10v-31q0 -5 -3 -12l-218 -471q-2 -5 3 -5h208q10 0 10 -10v-27q0 -10 -10 -10h-258z
" />
    <glyph glyph-name="zcaron.sc" horiz-adv-x="344" 
d="M151 642q-7 0 -12 7l-66 102q-7 12 6 12h30q7 0 12 -7l48 -77q1 -1 3 -1t3 1l47 77q5 7 12 7h28q13 0 6 -12l-67 -102q-5 -7 -12 -7h-38zM41 0q-10 0 -10 10v31q0 5 3 12l218 471q2 5 -3 5h-208q-10 0 -10 10v27q0 10 10 10h258q10 0 10 -10v-31q0 -5 -3 -12l-218 -471
q-2 -5 3 -5h208q10 0 10 -10v-27q0 -10 -10 -10h-258z" />
    <glyph glyph-name="zdotaccent.sc" horiz-adv-x="344" 
d="M171 667q-16 0 -26.5 11t-10.5 28t10.5 28t26.5 11q15 0 24.5 -11t9.5 -28t-9.5 -28t-24.5 -11zM41 0q-10 0 -10 10v31q0 5 3 12l218 471q2 5 -3 5h-208q-10 0 -10 10v27q0 10 10 10h258q10 0 10 -10v-31q0 -5 -3 -12l-218 -471q-2 -5 3 -5h208q10 0 10 -10v-27
q0 -10 -10 -10h-258z" />
    <glyph glyph-name="zero.dnom" horiz-adv-x="265" 
d="M132 -8q-46 0 -73 29.5t-27 77.5v219q0 48 27.5 77.5t72.5 29.5q46 0 74 -30t28 -77v-219q0 -48 -28 -77.5t-74 -29.5zM132 28q28 0 45 19t17 50v223q0 31 -17 50t-45 19q-27 0 -43.5 -19t-16.5 -50v-223q0 -31 16.5 -50t43.5 -19z" />
    <glyph glyph-name="one.dnom" horiz-adv-x="142" 
d="M62 417q6 3 13 3h24q10 0 10 -10v-400q0 -10 -10 -10h-21q-10 0 -10 10v365q0 5 -5 3l-21 -8q-12 -3 -12 8v11q0 7 7 12z" />
    <glyph glyph-name="two.dnom" horiz-adv-x="239" 
d="M34 0q-10 0 -10 10v18q0 8 4 13l104 168q37 65 37 111q0 32 -14.5 50.5t-38.5 18.5q-23 0 -37.5 -18.5t-14.5 -49.5v-19q0 -10 -10 -10h-21q-10 0 -10 10v20q1 47 26.5 75t67.5 28t67.5 -28t25.5 -79q0 -55 -38 -123q-30 -55 -92 -155q-3 -5 3 -5h129q10 0 10 -10v-15
q0 -10 -10 -10h-178z" />
    <glyph glyph-name="three.dnom" horiz-adv-x="258" 
d="M211 184q7 -32 7 -60q0 -40 -10 -66q-17 -65 -87 -65q-38 0 -64 24t-31 63q-2 22 -2 34q0 10 10 10h20q10 0 10 -10q0 -11 2 -25q8 -60 55 -60q36 0 50 39q9 31 9 60q0 30 -6 53q-12 49 -53 49q-5 0 -11 -2q-10 -2 -14 3l-9 10q-5 7 -1 14l80 123q1 3 -3 5h-127
q-10 0 -10 10v15q0 10 10 10h169q10 0 10 -10v-18q0 -5 -4 -13l-72 -113q-1 -2 -0.5 -3.5t2.5 -1.5q26 -3 44.5 -23t25.5 -52z" />
    <glyph glyph-name="four.dnom" horiz-adv-x="238" 
d="M215 152q10 0 10 -10v-17q0 -10 -10 -10h-13q-4 0 -4 -4v-101q0 -10 -10 -10h-20q-10 0 -10 10v101q0 4 -4 4h-130q-10 0 -10 10v16q0 4 2 12l88 259q3 8 12 8h22q11 0 8 -11l-84 -252q-2 -5 3 -5h89q4 0 4 4v88q0 10 10 10h20q10 0 10 -10v-88q0 -4 4 -4h13z" />
    <glyph glyph-name="five.dnom" horiz-adv-x="232" 
d="M203 188q7 -22 7 -62q0 -37 -5 -56q-15 -77 -90 -77q-79 0 -91 83q-1 3 -3 28q0 10 10 10h20q10 0 10 -10q0 -4 0.5 -12t1.5 -11q10 -52 52 -52q40 0 50 45q6 21 6 52q0 32 -6 51q-11 44 -50 44q-42 0 -51 -39q-3 -9 -11 -9h-22q-10 0 -10 10v225q0 10 10 10h160
q10 0 10 -10v-16q0 -10 -10 -10h-125q-4 0 -4 -4l-1 -140q0 -5 5 -2q21 21 60 21q62 0 77 -69z" />
    <glyph glyph-name="six.dnom" horiz-adv-x="245" 
d="M214 191q9 -27 9 -65q0 -41 -8 -65q-17 -68 -87 -68t-88 70q-7 24 -7 61v196q-1 46 25.5 74.5t68.5 28.5q39 0 64 -28.5t25 -74.5v-5q0 -10 -10 -10h-20q-10 0 -10 7v7q0 29 -14 48t-35 19q-24 0 -39 -18.5t-15 -48.5v-86q0 -6 5 -1q21 27 57 27q63 0 79 -68zM175 70
q7 28 7 57q0 31 -7 61q-14 38 -48 38q-36 0 -48 -41q-6 -25 -6 -58t5 -53q12 -45 49 -45q36 0 48 41z" />
    <glyph glyph-name="seven.dnom" horiz-adv-x="214" 
d="M69 0q-12 0 -9 11l100 370q2 4 -4 4h-108q-4 0 -4 -4v-33q0 -10 -10 -10h-14q-10 0 -10 10l1 62q0 10 10 10h173q10 0 10 -10v-19q0 -2 -2 -12l-101 -370q-2 -9 -11 -9h-21z" />
    <glyph glyph-name="eight.dnom" horiz-adv-x="253" 
d="M175 223q-5 -3 0 -6q32 -19 42 -59q4 -24 4 -44q0 -26 -4 -44q-8 -34 -32.5 -55.5t-58.5 -21.5q-66 0 -88 77q-6 19 -6 44q0 26 5 45q8 38 40 58q5 3 0 6q-32 18 -40 56q-5 19 -5 37q0 21 5 37q20 70 89 70q34 0 58 -18.5t33 -51.5q5 -23 5 -38q0 -14 -5 -36
q-10 -39 -42 -56zM71 312q0 -13 2 -21q10 -54 53 -54q40 0 54 54q1 7 1 22q0 13 -1 21q-13 54 -54 54q-22 0 -36 -14.5t-17 -39.5q-2 -12 -2 -22zM180 87q1 12 1 30t-1 28q-5 27 -19 43.5t-35 16.5q-22 0 -36.5 -17t-16.5 -43q-1 -10 -1 -28q0 -19 1 -30q1 -26 16 -42
t37 -16q21 0 35.5 15.5t18.5 42.5z" />
    <glyph glyph-name="nine.dnom" horiz-adv-x="245" 
d="M212 95q1 -46 -25.5 -74.5t-68.5 -28.5q-39 0 -64 28.5t-25 74.5v5q0 10 10 10h20q10 0 10 -7v-7q0 -29 14 -48t35 -19q24 0 39 18.5t15 48.5v86q0 6 -5 1q-21 -27 -57 -27q-63 0 -79 68q-9 27 -9 65q0 41 8 65q17 68 87 68t88 -70q7 -24 7 -61v-196zM118 189q36 0 48 41
q6 25 6 58t-5 53q-12 45 -49 45q-36 0 -48 -41q-7 -28 -7 -57q0 -31 7 -61q14 -38 48 -38z" />
    <glyph glyph-name="zero.numr" horiz-adv-x="265" 
d="M132 275q-46 0 -73 29.5t-27 77.5v219q0 48 27.5 77.5t72.5 29.5q46 0 74 -30t28 -77v-219q0 -48 -28 -77.5t-74 -29.5zM132 311q28 0 45 19t17 50v223q0 31 -17 50t-45 19q-27 0 -43.5 -19t-16.5 -50v-223q0 -31 16.5 -50t43.5 -19z" />
    <glyph glyph-name="one.numr" horiz-adv-x="142" 
d="M62 697q6 3 13 3h24q10 0 10 -10v-400q0 -10 -10 -10h-21q-10 0 -10 10v365q0 5 -5 3l-21 -8q-12 -3 -12 8v11q0 7 7 12z" />
    <glyph glyph-name="two.numr" horiz-adv-x="239" 
d="M34 283q-10 0 -10 10v18q0 8 4 13l104 168q37 65 37 111q0 32 -14.5 50.5t-38.5 18.5q-23 0 -37.5 -18.5t-14.5 -49.5v-19q0 -10 -10 -10h-21q-10 0 -10 10v20q1 47 26.5 75t67.5 28t67.5 -28t25.5 -79q0 -55 -38 -123q-30 -55 -92 -155q-3 -5 3 -5h129q10 0 10 -10v-15
q0 -10 -10 -10h-178z" />
    <glyph glyph-name="three.numr" horiz-adv-x="258" 
d="M211 464q7 -32 7 -60q0 -40 -10 -66q-17 -65 -87 -65q-38 0 -64 24t-31 63q-2 22 -2 34q0 10 10 10h20q10 0 10 -10q0 -11 2 -25q8 -60 55 -60q36 0 50 39q9 31 9 60q0 30 -6 53q-12 49 -53 49q-5 0 -11 -2q-10 -2 -14 3l-9 10q-5 7 -1 14l80 123q1 3 -3 5h-127
q-10 0 -10 10v15q0 10 10 10h169q10 0 10 -10v-18q0 -5 -4 -13l-72 -113q-1 -2 -0.5 -3.5t2.5 -1.5q26 -3 44.5 -23t25.5 -52z" />
    <glyph glyph-name="four.numr" horiz-adv-x="238" 
d="M215 432q10 0 10 -10v-17q0 -10 -10 -10h-13q-4 0 -4 -4v-101q0 -10 -10 -10h-20q-10 0 -10 10v101q0 4 -4 4h-130q-10 0 -10 10v16q0 4 2 12l88 259q3 8 12 8h22q11 0 8 -11l-84 -252q-2 -5 3 -5h89q4 0 4 4v88q0 10 10 10h20q10 0 10 -10v-88q0 -4 4 -4h13z" />
    <glyph glyph-name="five.numr" horiz-adv-x="232" 
d="M203 468q7 -22 7 -62q0 -37 -5 -56q-15 -77 -90 -77q-79 0 -91 83q-1 3 -3 28q0 10 10 10h20q10 0 10 -10q0 -4 0.5 -12t1.5 -11q10 -52 52 -52q40 0 50 45q6 21 6 52q0 32 -6 51q-11 44 -50 44q-42 0 -51 -39q-3 -9 -11 -9h-22q-10 0 -10 10v225q0 10 10 10h160
q10 0 10 -10v-16q0 -10 -10 -10h-125q-4 0 -4 -4l-1 -140q0 -5 5 -2q21 21 60 21q62 0 77 -69z" />
    <glyph glyph-name="six.numr" horiz-adv-x="245" 
d="M214 474q9 -27 9 -65q0 -41 -8 -65q-17 -68 -87 -68t-88 70q-7 24 -7 61v196q-1 46 25.5 74.5t68.5 28.5q39 0 64 -28.5t25 -74.5v-5q0 -10 -10 -10h-20q-10 0 -10 7v7q0 29 -14 48t-35 19q-24 0 -39 -18.5t-15 -48.5v-86q0 -6 5 -1q21 27 57 27q63 0 79 -68zM175 353
q7 28 7 57q0 31 -7 61q-14 38 -48 38q-36 0 -48 -41q-6 -26 -6 -58q0 -33 5 -53q12 -45 49 -45q36 0 48 41z" />
    <glyph glyph-name="seven.numr" horiz-adv-x="214" 
d="M69 280q-12 0 -9 11l100 370q2 4 -4 4h-108q-4 0 -4 -4v-33q0 -10 -10 -10h-14q-10 0 -10 10l1 62q0 10 10 10h173q10 0 10 -10v-19q0 -2 -2 -12l-101 -370q-2 -9 -11 -9h-21z" />
    <glyph glyph-name="eight.numr" horiz-adv-x="253" 
d="M175 505q-5 -3 0 -6q32 -19 42 -59q4 -24 4 -44q0 -26 -4 -44q-8 -34 -32.5 -55.5t-58.5 -21.5q-66 0 -88 77q-6 19 -6 44q0 26 5 45q8 38 40 58q5 3 0 6q-32 18 -40 56q-5 19 -5 37q0 21 5 37q20 70 89 70q34 0 58 -18.5t33 -51.5q5 -23 5 -38q0 -14 -5 -36
q-10 -39 -42 -56zM71 594q0 -13 2 -21q10 -54 53 -54q40 0 54 54q1 7 1 22q0 13 -1 21q-13 54 -54 54q-22 0 -36 -14.5t-17 -39.5q-2 -12 -2 -22zM180 369q1 12 1 30t-1 28q-5 27 -19 43.5t-35 16.5q-22 0 -36.5 -17t-16.5 -43q-1 -10 -1 -28q0 -19 1 -30q1 -26 16 -42
t37 -16q21 0 35.5 15.5t18.5 42.5z" />
    <glyph glyph-name="nine.numr" horiz-adv-x="245" 
d="M212 378q1 -46 -25.5 -74.5t-68.5 -28.5q-39 0 -64 28.5t-25 74.5v5q0 10 10 10h20q10 0 10 -7v-7q0 -29 14 -48t35 -19q24 0 39 18.5t15 48.5v86q0 6 -5 1q-21 -27 -57 -27q-63 0 -79 68q-9 27 -9 65q0 41 8 65q17 68 87 68t88 -70q7 -24 7 -61v-196zM118 472
q36 0 48 41q6 25 6 58t-5 53q-12 45 -49 45q-36 0 -48 -41q-7 -28 -7 -57q0 -31 7 -61q14 -38 48 -38z" />
    <glyph glyph-name="at.alt" horiz-adv-x="846" 
d="M422 708q155 0 259 -104t104 -255q0 -150 -104.5 -253.5t-258.5 -103.5q-153 0 -257 103.5t-104 253.5q0 151 104 255t257 104zM422 28q138 0 231.5 93t93.5 228q0 136 -93.5 229.5t-231.5 93.5t-231 -93.5t-93 -229.5q0 -135 93.5 -228t230.5 -93zM426 511
q44 0 68.5 -28t24.5 -78v-205q0 -10 -10 -10h-19q-10 0 -10 10v12q0 7 -5 2q-24 -29 -69 -29q-80 0 -80 88q0 101 104 101h46q4 0 4 4v26q0 34 -14.5 53t-40.5 19q-21 0 -36.5 -13t-17.5 -32q-1 -9 -10 -9l-20 1q-10 0 -10 10q4 34 30.5 56t64.5 22zM416 217q29 0 46.5 17.5
t17.5 46.5v58q0 4 -4 4h-43q-32 0 -50 -18.5t-18 -50.5q0 -57 51 -57z" />
    <glyph glyph-name="uni0327.alt" 
d="M-86 -181q-49 0 -79 37q-5 7 2 14l6 6q7 6 14 -1q22 -25 54 -24q22 0 36.5 11.5t15.5 32.5q0 19 -11.5 32.5t-32.5 13.5q-23 0 -42 -14q-7 -6 -14 1l-10 9q-6 6 -3 14l23 54q4 9 13 6l6 -2q9 -3 6 -13l-12 -29q-1 -2 0 -3t4 0q23 12 46 8q30 -3 47 -25t15 -52
q-1 -35 -25 -55.5t-59 -20.5z" />
    <glyph glyph-name="cedilla.alt" horiz-adv-x="172" 
d="M86 -181q-48 0 -77 35q-5 7 1 14l6 6q6 6 14 -1q22 -23 53 -22q22 0 36.5 11.5t15.5 32.5q0 19 -11.5 32.5t-32.5 13.5q-23 0 -42 -14q-7 -6 -14 1l-10 9q-5 5 -2 14l24 54q4 9 13 6l6 -2q9 -5 5 -13l-13 -29q-1 -2 0.5 -3t3.5 0q23 12 46 8q30 -3 47 -25t15 -52
q-1 -35 -25 -55.5t-59 -20.5z" />
    <glyph glyph-name="NULL" 
 />
    </font>
</defs>
</svg>
